<svg width="15" height="8" viewBox="0 0 15 8" fill="none" xmlns="http://www.w3.org/2000/svg">
<path d="M10.4375 2.75V1.3125C10.4375 1.125 10.5 0.9375 10.6562 0.78125C10.7812 0.65625 10.9688 0.5625 11.1875 0.5625C11.375 0.5625 11.5625 0.65625 11.7188 0.78125L14.4062 3.46875C14.5312 3.625 14.625 3.8125 14.625 4C14.625 4.21875 14.5312 4.40625 14.4062 4.53125L11.7188 7.21875C11.5625 7.375 11.375 7.4375 11.1875 7.4375C10.9688 7.4375 10.7812 7.375 10.6562 7.21875C10.5 7.09375 10.4375 6.90625 10.4375 6.6875V5.25H1C0.875 5.25 0.78125 5.21875 0.71875 5.15625C0.65625 5.09375 0.625 5 0.625 4.875V3.125C0.625 3.03125 0.65625 2.9375 0.71875 2.875C0.78125 2.8125 0.875 2.75 1 2.75H10.4375Z" fill="#F53B57"/>
</svg>
