<svg width="12" height="16" viewBox="0 0 12 16" fill="none" xmlns="http://www.w3.org/2000/svg">
<path d="M3.125 14.1875V13H8.125V14.1875C8.125 14.4062 8.0625 14.5938 7.96875 14.75L7.40625 15.5625C7.21875 15.875 6.9375 16 6.59375 16H4.65625C4.28125 16 4.03125 15.875 3.84375 15.5625L3.28125 14.75C3.15625 14.5938 3.125 14.4062 3.125 14.1875ZM0.125 5.5C0.125 4.5625 0.34375 3.65625 0.84375 2.8125C1.3125 1.96875 1.96875 1.28125 2.78125 0.78125C3.625 0.28125 4.5625 0 5.5625 0C6.5625 0 7.5 0.25 8.34375 0.75C9.1875 1.25 9.875 1.90625 10.375 2.75C10.875 3.59375 11.125 4.5 11.125 5.5C11.125 6.1875 11 6.84375 10.75 7.46875C10.5 8.09375 10.1875 8.625 9.75 9.125C9.4375 9.46875 9.15625 9.875 8.875 10.375C8.5 10.9688 8.25 11.5 8.125 11.9688V12H3.125V11.9688C2.96875 11.5 2.71875 10.9688 2.375 10.375C2.0625 9.875 1.78125 9.46875 1.5 9.125C1.0625 8.625 0.71875 8.09375 0.46875 7.46875C0.21875 6.84375 0.125 6.1875 0.125 5.5ZM5.625 3C5.75 3 5.875 2.96875 5.96875 2.875C6.0625 2.78125 6.125 2.65625 6.125 2.5C6.125 2.375 6.0625 2.25 5.96875 2.15625C5.875 2.0625 5.75 2 5.625 2C5 2 4.40625 2.15625 3.875 2.46875C3.3125 2.78125 2.90625 3.21875 2.59375 3.75C2.28125 4.3125 2.125 4.875 2.125 5.5C2.125 5.65625 2.15625 5.78125 2.25 5.875C2.34375 5.96875 2.46875 6 2.625 6C2.75 6 2.875 5.96875 2.96875 5.875C3.0625 5.78125 3.125 5.65625 3.125 5.5C3.125 4.8125 3.34375 4.25 3.84375 3.75C4.34375 3.25 4.9375 3 5.625 3Z" fill="#FFD32A"/>
</svg>
