<svg width="16" height="12" viewBox="0 0 16 12" fill="none" xmlns="http://www.w3.org/2000/svg">
<path d="M5.4375 11.7188C5.5625 11.9062 5.75 11.9688 6 11.9688C6.21875 11.9688 6.40625 11.9062 6.5625 11.7188L15.7812 2.53125C15.9062 2.40625 16 2.21875 16 1.96875C16 1.75 15.9062 1.5625 15.7812 1.40625L14.625 0.28125C14.4688 0.125 14.2812 0.03125 14.0625 0.03125C13.8438 0.03125 13.6562 0.125 13.5 0.28125L6 7.78125L2.5 4.28125C2.3125 4.125 2.125 4.03125 1.90625 4.03125C1.6875 4.03125 1.5 4.125 1.375 4.28125L0.21875 5.40625C0.0625 5.5625 0 5.75 0 5.96875C0 6.21875 0.0625 6.40625 0.21875 6.53125L5.4375 11.7188Z" fill="#05C46B"/>
</svg>
