<?xml version="1.0" encoding="UTF-8" standalone="no"?>
<svg
   xmlns:dc="http://purl.org/dc/elements/1.1/"
   xmlns:cc="http://creativecommons.org/ns#"
   xmlns:rdf="http://www.w3.org/1999/02/22-rdf-syntax-ns#"
   xmlns:svg="http://www.w3.org/2000/svg"
   xmlns="http://www.w3.org/2000/svg"
   xmlns:sodipodi="http://sodipodi.sourceforge.net/DTD/sodipodi-0.dtd"
   xmlns:inkscape="http://www.inkscape.org/namespaces/inkscape"
   width="63.413219mm"
   height="38.475689mm"
   viewBox="0 0 63.413219 38.475689"
   version="1.1"
   id="svg675"
   inkscape:version="1.0.2-2 (e86c870879, 2021-01-15)"
   sodipodi:docname="line2.svg">
  <defs
     id="defs669" />
  <sodipodi:namedview
     id="base"
     pagecolor="#ffffff"
     bordercolor="#666666"
     borderopacity="1.0"
     inkscape:pageopacity="0.0"
     inkscape:pageshadow="2"
     inkscape:zoom="0.35"
     inkscape:cx="1125.5503"
     inkscape:cy="658.42425"
     inkscape:document-units="mm"
     inkscape:current-layer="layer1"
     inkscape:document-rotation="0"
     showgrid="false"
     inkscape:window-width="1862"
     inkscape:window-height="1030"
     inkscape:window-x="40"
     inkscape:window-y="0"
     inkscape:window-maximized="0" />
  <metadata
     id="metadata672">
    <rdf:RDF>
      <cc:Work
         rdf:about="">
        <dc:format>image/svg+xml</dc:format>
        <dc:type
           rdf:resource="http://purl.org/dc/dcmitype/StillImage" />
        <dc:title></dc:title>
      </cc:Work>
    </rdf:RDF>
  </metadata>
  <g
     inkscape:label="Шар 1"
     inkscape:groupmode="layer"
     id="layer1"
     transform="translate(191.96851,26.041416)">
    <path
       style="fill:#000000;fill-opacity:1;fill-rule:nonzero;stroke:none;stroke-width:0.264583"
       id="path656"
       d="m -191.96851,12.434273 c 2.02565,-0.0749 4.05333,-0.06368 6.08003,-0.06364 2.49198,0.113535 4.94737,-0.294516 7.36866,-0.837383 1.60771,-0.426611 3.20608,-0.93858 4.68115,-1.719014 0.78065,-0.41303 1.02436,-0.603072 1.7435,-1.086328 0.91089,-0.612103 1.69157,-1.373021 2.39158,-2.213364 2.66498,-3.199236 1.86178,-2.112026 3.19548,-3.984604 1.2059,-1.669979 2.29166,-3.424153 3.27236,-5.234517 0.84182,-1.67205 1.7252,-3.32237 2.70595,-4.917429 0.60299,-1.156335 1.40657,-2.190271 2.06172,-3.312702 0.10374,-0.162537 0.20667,-0.325594 0.31122,-0.487612 0.10785,-0.167132 0.20638,-0.340891 0.32598,-0.499829 0.12364,-0.164301 0.53176,-0.627409 0.40216,-0.467768 -0.55316,0.681366 -1.14407,1.332714 -1.67295,2.033093 -0.15077,0.199657 0.35347,-0.354261 0.53512,-0.526309 0.18095,-0.171395 0.36831,-0.335891 0.55247,-0.503836 1.04102,-1.008422 2.24146,-1.801349 3.49985,-2.506858 1.2156,-0.69437 2.53917,-1.166151 3.84851,-1.648441 1.62972,-0.575956 3.33335,-0.895491 5.00374,-1.327764 1.48955,-0.3946 2.99031,-0.747395 4.49412,-1.083133 1.59866,-0.447836 3.2565,-0.646234 4.84034,-1.143354 1.08783,-0.372933 2.12088,-0.873565 3.11212,-1.452407 0.73655,-0.380113 1.42283,-0.798298 1.98486,-1.410994 1.55118,-1.617755 2.29416,-2.308838 2.67525,-4.081496 0,0 -2.43907,2.325817 -2.43907,2.325817 v 0 c -0.38604,1.423728 -1.54617,2.641967 1.50389,-1.130205 -0.096,0.117602 -0.3687,0.458621 -0.47863,0.566457 -0.40755,0.39978 -0.94506,0.634338 -1.42824,0.923549 -0.97884,0.590032 -1.98413,1.12749 -3.06596,1.50893 -1.56528,0.569155 -3.22914,0.774866 -4.83581,1.20189 -1.51282,0.322091 -3.02709,0.639528 -4.51036,1.083075 -1.66851,0.440465 -3.37474,0.742656 -5.01391,1.28678 -1.31477,0.48024 -2.65808,0.918395 -3.88324,1.606002 -1.26917,0.708774 -2.52067,1.452888 -3.56824,2.476722 -1.79584,1.600132 -3.4265,3.412427 -4.66891,5.477309 -0.68858,1.095021 -1.42236,2.162101 -2.04459,3.298344 -0.94293,1.595485 -1.80159,3.23605 -2.64969,4.883427 -1.01072,1.794545 -2.08579,3.556077 -3.30991,5.214673 -1.12268,1.52145 -0.70903,0.918964 0.93702,-0.977437 0.18462,-0.212701 -0.35737,0.435568 -0.54357,0.646883 -0.53614,0.608436 -1.12866,1.159727 -1.78943,1.632026 -0.70426,0.500034 -0.95584,0.705096 -1.72207,1.137023 -1.45045,0.817619 -3.03747,1.345941 -4.63574,1.790102 -2.39452,0.548029 -4.82486,0.956922 -7.29196,0.852747 -1.99585,4e-5 -3.9928,0.01254 -5.98755,-0.06364 0,0 -1.98725,2.735215 -1.98725,2.735215 z" />
  </g>
</svg>
