<?xml version="1.0" standalone="no"?>
<!DOCTYPE svg PUBLIC "-//W3C//DTD SVG 1.1//EN" "http://www.w3.org/Graphics/SVG/1.1/DTD/svg11.dtd" >
<svg xmlns="http://www.w3.org/2000/svg" xmlns:xlink="http://www.w3.org/1999/xlink" version="1.1">
<metadata>
Created by FontForge 20190801 at Fri May  5 11:18:36 2017
 By root
Copyright 2009 The Cairo Project Authors (gaber@gaberism.net)
</metadata>
<defs>
<font id="Cairo-SemiBold" horiz-adv-x="560" >
  <font-face 
    font-family="Cairo SemiBold"
    font-weight="600"
    font-stretch="normal"
    units-per-em="1000"
    panose-1="0 0 7 0 0 0 0 0 0 0"
    ascent="800"
    descent="-200"
    x-height="500"
    cap-height="688"
    bbox="-224 -485 1642 1198"
    underline-thickness="50"
    underline-position="-100"
    unicode-range="U+000D-FEFC"
  />
<missing-glyph horiz-adv-x="235" 
 />
    <glyph glyph-name="uniFEFB" unicode="&#xfedf;&#xfe8e;" horiz-adv-x="607" arabic-form="isolated" 
d="M530 712v-712h-490v85h127v492h95v-492h174v627h94z" />
    <glyph glyph-name="uniFEFC" unicode="&#xfee0;&#xfe8e;" horiz-adv-x="616" arabic-form="final" 
d="M616 85v-85h-576v85h127v492h95v-492h174v627h94v-627h86z" />
    <glyph glyph-name="uniFEF7" unicode="&#xfedf;&#xfe84;" horiz-adv-x="607" arabic-form="isolated" 
d="M40 0zM530 712v-712h-490v85h127v492h95v-492h174v627h94zM311 669l-209 -41l-10 36l48 13q-18 14 -27 33.5t-9 40.5q0 38 27 66t70 28q38 0 74 -24l-11 -45q-6 5 -18 10t-26 5q-25 0 -41 -16.5t-16 -39.5q0 -28 24 -46l112 30z" />
    <glyph glyph-name="uniFEF8" unicode="&#xfee0;&#xfe84;" horiz-adv-x="616" arabic-form="final" 
d="M40 0zM616 85v-85h-576v85h127v492h95v-492h174v627h94v-627h86zM311 669l-209 -41l-10 36l48 13q-18 14 -27 33.5t-9 40.5q0 38 27 66t70 28q38 0 74 -24l-11 -45q-6 5 -18 10t-26 5q-25 0 -41 -16.5t-16 -39.5q0 -28 24 -46l112 30z" />
    <glyph glyph-name="uniFEF9" unicode="&#xfedf;&#xfe88;" horiz-adv-x="607" arabic-form="isolated" 
d="M40 0zM530 712v-712h-490v85h127v492h95v-492h174v627h94zM320 -256l-208 -41l-10 36l47 13q-35 31 -35 74q0 38 27 66t70 28q38 0 74 -24l-11 -45q-6 5 -18 9.5t-27 4.5q-25 0 -40.5 -16t-15.5 -39q0 -27 23 -46l112 30z" />
    <glyph glyph-name="uniFEFA" unicode="&#xfee0;&#xfe88;" horiz-adv-x="616" arabic-form="final" 
d="M40 0zM616 85v-85h-576v85h127v492h95v-492h174v627h94v-627h86zM320 -256l-208 -41l-10 36l47 13q-35 31 -35 74q0 38 27 66t70 28q38 0 74 -24l-11 -45q-6 5 -18 9.5t-27 4.5q-25 0 -40.5 -16t-15.5 -39q0 -27 23 -46l112 30z" />
    <glyph glyph-name="uniFEF5" unicode="&#xfedf;&#xfe82;" horiz-adv-x="607" arabic-form="isolated" 
d="M40 0zM530 712v-712h-490v85h127v492h95v-492h174v627h94zM203 668q-18 8 -35 15t-24 7q-15 0 -47 -28l-12 -10l-16 54q17 19 37.5 32.5t40.5 13.5q18 0 69 -22q49 -21 56 -21q6 0 18 7.5t26 19.5l11 10l17 -55q-39 -44 -71 -44q-17 0 -70 21z" />
    <glyph glyph-name="uniFEF6" unicode="&#xfee0;&#xfe82;" horiz-adv-x="616" arabic-form="final" 
d="M40 0zM616 85v-85h-576v85h127v492h95v-492h174v627h94v-627h86zM203 668q-18 8 -35 15t-24 7q-15 0 -47 -28l-12 -10l-16 54q17 19 37.5 32.5t40.5 13.5q18 0 69 -22q49 -21 56 -21q6 0 18 7.5t26 19.5l11 10l17 -55q-39 -44 -71 -44q-17 0 -70 21z" />
    <glyph glyph-name="uni06440671" unicode="&#xfedf;&#xfb51;" horiz-adv-x="607" 
d="M40 0zM530 712v-712h-490v85h127v492h95v-492h174v627h94zM84 690h43q0 26 15 51t41.5 41.5t59.5 16.5q84 0 84 -109v-48h-243v48zM286 690q0 38 -13.5 53t-37.5 15q-31 0 -54 -19t-23 -49h128z" />
    <glyph glyph-name="uni06440671.fina" unicode="&#xfee0;&#xfb51;" horiz-adv-x="616" 
d="M40 0zM616 85v-85h-576v85h127v492h95v-492h174v627h94v-627h86zM84 690h43q0 26 15 51t41.5 41.5t59.5 16.5q84 0 84 -109v-48h-243v48zM286 690q0 38 -13.5 53t-37.5 15q-31 0 -54 -19t-23 -49h128z" />
    <glyph glyph-name="uniFDF2" unicode="&#x627;&#xfedf;&#xfee0;&#xfeea;" horiz-adv-x="1433" arabic-form="isolated" 
d="M767 876l-60 -26v199l60 27v-200zM642.5 670q-14.5 16 -14.5 53q0 34 2 49l41 9v-54q0 -15 6 -23t17 -6q13 1 19.5 11t6.5 25v41l36 7v-48q0 -9 8 -14.5t18 -3.5l20 4v87l39 8q5 -35 5 -64v-67l-59 -11q-4 -1 -11 -1q-20 0 -32 16q-12 -34 -59 -34q-28 0 -42.5 16z
M1000 712h95v-712h-809q-92 0 -145 24t-77 79t-24 152q0 95 23 150.5t75 80t143 24.5q44 0 121 -4t112 -8v-413h192v507h95v-507h199v627zM1343 712v-712h-95v712h95zM150.5 154q15.5 -37 50.5 -53t96 -16h123v333q-80 6 -127 6q-59 0 -93.5 -16.5t-49.5 -53t-15 -98.5
q0 -65 15.5 -102z" />
    <glyph glyph-name="uniFE8E" unicode="&#x627;" horiz-adv-x="277" arabic-form="final" 
d="M277 85v-85h-190v712h95v-627h95z" />
    <glyph glyph-name="uniFE84" unicode="&#x623;" horiz-adv-x="277" arabic-form="final" 
d="M21 0zM277 85v-85h-190v626h95v-541h95zM240 709l-209 -41l-10 36l48 13q-18 14 -27 33.5t-9 40.5q0 38 27 66t70 28q38 0 74 -24l-11 -45q-6 5 -18 10t-26 5q-25 0 -41 -16.5t-16 -39.5q0 -28 24 -46l112 30z" />
    <glyph glyph-name="uniFE88" unicode="&#x625;" horiz-adv-x="277" arabic-form="final" 
d="M28 0zM277 85v-85h-190v712h95v-627h95zM246 -233l-208 -41l-10 36l47 13q-35 31 -35 74q0 38 27 66t70 28q38 0 74 -24l-11 -45q-6 5 -18 9.5t-27 4.5q-25 0 -40.5 -16t-15.5 -39q0 -27 23 -46l112 30z" />
    <glyph glyph-name="uniFE82" unicode="&#x622;" horiz-adv-x="277" arabic-form="final" 
d="M0 0zM277 85v-85h-190v626h95v-541h95zM132 708q-18 8 -35 15t-24 7q-15 0 -47 -28l-12 -10l-16 54q17 19 37.5 32.5t40.5 13.5q18 0 69 -22q49 -21 56 -21q6 0 18 7.5t26 19.5l11 10l17 -55q-39 -44 -71 -44q-17 0 -70 21z" />
    <glyph glyph-name="uniFB51" unicode="&#x671;" horiz-adv-x="277" arabic-form="final" 
d="M13 0zM277 85v-85h-190v626h95v-541h95zM13 730h43q0 26 15 51t41.5 41.5t59.5 16.5q84 0 84 -109v-48h-243v48zM215 730q0 38 -13.5 53t-37.5 15q-31 0 -54 -19t-23 -49h128z" />
    <glyph glyph-name="uni066E.init" unicode="&#x66e;" horiz-adv-x="321" 
d="M244 500v-500h-244v85h149v415h95z" />
    <glyph glyph-name="uni066E.medi" unicode="&#x66e;" horiz-adv-x="393" 
d="M393 85v-85h-393v85h149v415h95v-415h149z" />
    <glyph glyph-name="uni066E.fina" unicode="&#x66e;" horiz-adv-x="859" 
d="M859 85v-85h-538q-92 0 -150 15t-87.5 52.5t-29.5 104.5q0 42 9.5 103t21.5 116l75 -4l-9 -74q-12 -84 -12 -119q0 -58 38.5 -83.5t138.5 -25.5h301v415h95v-415h147z" />
    <glyph glyph-name="uniFE90" unicode="&#x628;" horiz-adv-x="859" arabic-form="final" 
d="M54 0zM859 85v-85h-538q-92 0 -150 15t-87.5 52.5t-29.5 104.5q0 42 9.5 103t21.5 116l75 -4l-9 -74q-12 -84 -12 -119q0 -58 38.5 -83.5t138.5 -25.5h301v415h95v-415h147zM356 -80h91v-98h-91v98z" />
    <glyph glyph-name="uniFE92" unicode="&#x628;" horiz-adv-x="393" arabic-form="medial" 
d="M0 0zM393 85v-85h-393v85h149v415h95v-415h149zM151 -80h91v-98h-91v98z" />
    <glyph glyph-name="uniFE91" unicode="&#x628;" horiz-adv-x="321" arabic-form="initial" 
d="M0 0zM244 500v-500h-244v85h149v415h95zM152 -80h91v-98h-91v98z" />
    <glyph glyph-name="uniFB57" unicode="&#x67e;" horiz-adv-x="859" arabic-form="final" 
d="M54 0zM859 85v-85h-538q-92 0 -150 15t-87.5 52.5t-29.5 104.5q0 42 9.5 103t21.5 116l75 -4l-9 -74q-12 -84 -12 -119q0 -58 38.5 -83.5t138.5 -25.5h301v415h95v-415h147zM291 -80h85v-95h-85v95zM425 -80h84v-95h-84v95zM359 -211h82v-91h-82v91z" />
    <glyph glyph-name="uniFB59" unicode="&#x67e;" horiz-adv-x="393" arabic-form="medial" 
d="M0 0zM393 85v-85h-393v85h149v415h95v-415h149zM86 -80h85v-95h-85v95zM220 -80h84v-95h-84v95zM154 -211h82v-91h-82v91z" />
    <glyph glyph-name="uniFB58" unicode="&#x67e;" horiz-adv-x="321" arabic-form="initial" 
d="M0 0zM244 500v-500h-244v85h149v415h95zM87 -80h85v-95h-85v95zM221 -80h84v-95h-84v95zM155 -211h82v-91h-82v91z" />
    <glyph glyph-name="uniFBE9" unicode="&#x649;" horiz-adv-x="393" arabic-form="medial" 
d="M0 0zM393 85v-85h-393v85h149v415h95v-415h149z" />
    <glyph glyph-name="uniFBE8" unicode="&#x649;" horiz-adv-x="321" arabic-form="initial" 
d="M0 0zM244 500v-500h-244v85h149v415h95z" />
    <glyph glyph-name="uniFE96" unicode="&#x62a;" horiz-adv-x="859" arabic-form="final" 
d="M54 0zM859 85v-85h-538q-92 0 -150 15t-87.5 52.5t-29.5 104.5q0 42 9.5 103t21.5 116l75 -4l-9 -74q-12 -84 -12 -119q0 -58 38.5 -83.5t138.5 -25.5h301v415h95v-415h147zM292 597h85v-97h-85v97zM426 597h84v-97h-84v97z" />
    <glyph glyph-name="uniFE98" unicode="&#x62a;" horiz-adv-x="393" arabic-form="medial" 
d="M0 0zM393 85v-85h-393v85h149v415h95v-415h149zM87 690h85v-97h-85v97zM221 690h84v-97h-84v97z" />
    <glyph glyph-name="uniFE97" unicode="&#x62a;" horiz-adv-x="321" arabic-form="initial" 
d="M0 0zM244 500v-500h-244v85h149v415h95zM88 690h85v-97h-85v97zM222 690h84v-97h-84v97z" />
    <glyph glyph-name="uniFE9A" unicode="&#x62b;" horiz-adv-x="859" arabic-form="final" 
d="M54 0zM859 85v-85h-538q-92 0 -150 15t-87.5 52.5t-29.5 104.5q0 42 9.5 103t21.5 116l75 -4l-9 -74q-12 -84 -12 -119q0 -58 38.5 -83.5t138.5 -25.5h301v415h95v-415h147zM359 722h82v-91h-82v91zM291 595h85v-95h-85v95zM425 595h84v-95h-84v95z" />
    <glyph glyph-name="uniFE9C" unicode="&#x62b;" horiz-adv-x="393" arabic-form="medial" 
d="M0 0zM393 85v-85h-393v85h149v415h95v-415h149zM154 815h82v-91h-82v91zM86 688h85v-95h-85v95zM220 688h84v-95h-84v95z" />
    <glyph glyph-name="uniFE9B" unicode="&#x62b;" horiz-adv-x="321" arabic-form="initial" 
d="M0 0zM244 500v-500h-244v85h149v415h95zM155 815h82v-91h-82v91zM87 688h85v-95h-85v95zM221 688h84v-95h-84v95z" />
    <glyph glyph-name="uniFB67" unicode="&#x679;" horiz-adv-x="859" arabic-form="final" 
d="M54 0zM859 85v-85h-538q-92 0 -150 15t-87.5 52.5t-29.5 104.5q0 42 9.5 103t21.5 116l75 -4l-9 -74q-12 -84 -12 -119q0 -58 38.5 -83.5t138.5 -25.5h301v415h95v-415h147zM487.5 650q22.5 -21 22.5 -64v-86h-215v48h13v193h44v-128q15 28 34.5 43t47.5 15
q31 0 53.5 -21zM373.5 601.5q-21.5 -23.5 -21.5 -48.5v-5h115v38q0 17 -10.5 28t-30.5 11q-31 0 -52.5 -23.5z" />
    <glyph glyph-name="uniFB69" unicode="&#x679;" horiz-adv-x="393" arabic-form="medial" 
d="M0 0zM393 85v-85h-393v85h149v415h95v-415h149zM282.5 743q22.5 -21 22.5 -64v-86h-215v48h13v193h44v-128q15 28 34.5 43t47.5 15q31 0 53.5 -21zM168.5 694.5q-21.5 -23.5 -21.5 -48.5v-5h115v38q0 17 -10.5 28t-30.5 11q-31 0 -52.5 -23.5z" />
    <glyph glyph-name="uniFB68" unicode="&#x679;" horiz-adv-x="321" arabic-form="initial" 
d="M0 0zM244 500v-500h-244v85h149v415h95zM283.5 743q22.5 -21 22.5 -64v-86h-215v48h13v193h44v-128q15 28 34.5 43t47.5 15q31 0 53.5 -21zM169.5 694.5q-21.5 -23.5 -21.5 -48.5v-5h115v38q0 17 -10.5 28t-30.5 11q-31 0 -52.5 -23.5z" />
    <glyph glyph-name="uniFE9E" unicode="&#x62c;" horiz-adv-x="616" arabic-form="final" 
d="M40 0zM616 85v-85h-205q-27 13 -67.5 23.5t-79.5 10.5q-128 0 -128 -126q0 -67 38 -103.5t115 -36.5q30 0 80.5 5.5t105.5 15.5l11 -74q-51 -12 -110 -21.5t-106 -9.5q-112 0 -171 60t-59 170q0 101 52 152.5t155 51.5q50 0 94 -10.5t70 -24.5v248q0 96 -97 96
q-45 0 -208 -16l-3 67q55 13 122 22.5t111 9.5q79 0 124 -38.5t45 -130.5v-256h111zM281 -68h84v-95h-84v95z" />
    <glyph glyph-name="uniFEA0" unicode="&#x62c;" horiz-adv-x="599" arabic-form="medial" 
d="M0 0zM599 85v-85h-599v85h394v246q0 96 -98 96q-44 0 -207 -16l-3 67q54 13 121.5 22.5t111.5 9.5q79 0 124 -38.5t45 -130.5v-256h111zM255 -80h91v-98h-91v98z" />
    <glyph glyph-name="uniFE9F" unicode="&#x62c;" horiz-adv-x="548" arabic-form="initial" 
d="M0 0zM443 471.5q45 -38.5 45 -130.5v-341h-488v85h394v246q0 96 -98 96q-44 0 -207 -16l-3 67q54 13 121.5 22.5t111.5 9.5q79 0 124 -38.5zM241 -80h91v-98h-91v98z" />
    <glyph glyph-name="uniFB7B" unicode="&#x686;" horiz-adv-x="614" arabic-form="final" 
d="M96 -256q-59 60 -59 170q0 101 52 152.5t155 51.5q47 0 92 -11t72 -24v248q0 96 -98 96q-44 0 -207 -16l-3 67q55 13 122 22.5t111 9.5q79 0 124 -38.5t45 -130.5v-256h112v-85h-206q-27 13 -68 23.5t-79 10.5q-128 0 -128 -126q0 -67 38 -103.5t115 -36.5l13 -83
q-11 -1 -32 -1q-112 0 -171 60zM294 -76h88v-103h-88v103zM446 -76h88v-103h-88v103zM373 -211h82v-95h-82v95z" />
    <glyph glyph-name="uniFB7D" unicode="&#x686;" horiz-adv-x="599" arabic-form="medial" 
d="M0 0zM599 85v-85h-599v85h394v246q0 96 -98 96q-44 0 -207 -16l-3 67q54 13 121.5 22.5t111.5 9.5q79 0 124 -38.5t45 -130.5v-256h111zM190 -80h85v-95h-85v95zM324 -80h84v-95h-84v95zM258 -211h82v-91h-82v91z" />
    <glyph glyph-name="uniFB7C" unicode="&#x686;" horiz-adv-x="548" arabic-form="initial" 
d="M0 0zM443 471.5q45 -38.5 45 -130.5v-341h-488v85h394v246q0 96 -98 96q-44 0 -207 -16l-3 67q54 13 121.5 22.5t111.5 9.5q79 0 124 -38.5zM176 -80h85v-95h-85v95zM310 -80h84v-95h-84v95zM244 -211h82v-91h-82v91z" />
    <glyph glyph-name="uniFEA2" unicode="&#x62d;" horiz-adv-x="616" arabic-form="final" 
d="M616 85v-85h-205q-27 13 -67.5 23.5t-79.5 10.5q-128 0 -128 -126q0 -67 38 -103.5t115 -36.5q30 0 80.5 5.5t105.5 15.5l11 -74q-51 -12 -110 -21.5t-106 -9.5q-112 0 -171 60t-59 170q0 101 52 152.5t155 51.5q50 0 94 -10.5t70 -24.5v248q0 96 -97 96q-45 0 -208 -16
l-3 67q55 13 122 22.5t111 9.5q79 0 124 -38.5t45 -130.5v-256h111z" />
    <glyph glyph-name="uniFEA4" unicode="&#x62d;" horiz-adv-x="599" arabic-form="medial" 
d="M599 85v-85h-599v85h394v246q0 96 -98 96q-44 0 -207 -16l-3 67q54 13 121.5 22.5t111.5 9.5q79 0 124 -38.5t45 -130.5v-256h111z" />
    <glyph glyph-name="uniFEA3" unicode="&#x62d;" horiz-adv-x="548" arabic-form="initial" 
d="M443 471.5q45 -38.5 45 -130.5v-341h-488v85h394v246q0 96 -98 96q-44 0 -207 -16l-3 67q54 13 121.5 22.5t111.5 9.5q79 0 124 -38.5z" />
    <glyph glyph-name="uniFEA6" unicode="&#x62e;" horiz-adv-x="616" arabic-form="final" 
d="M40 0zM616 85v-85h-205q-27 13 -67.5 23.5t-79.5 10.5q-128 0 -128 -126q0 -67 38 -103.5t115 -36.5q30 0 80.5 5.5t105.5 15.5l11 -74q-51 -12 -110 -21.5t-106 -9.5q-112 0 -171 60t-59 170q0 101 52 152.5t155 51.5q50 0 94 -10.5t70 -24.5v248q0 96 -97 96
q-45 0 -208 -16l-3 67q55 13 122 22.5t111 9.5q79 0 124 -38.5t45 -130.5v-256h111zM244 691h91v-98h-91v98z" />
    <glyph glyph-name="uniFEA8" unicode="&#x62e;" horiz-adv-x="599" arabic-form="medial" 
d="M0 0zM599 85v-85h-599v85h394v246q0 96 -98 96q-44 0 -207 -16l-3 67q54 13 121.5 22.5t111.5 9.5q79 0 124 -38.5t45 -130.5v-256h111zM255 691h91v-98h-91v98z" />
    <glyph glyph-name="uniFEA7" unicode="&#x62e;" horiz-adv-x="548" arabic-form="initial" 
d="M0 0zM443 471.5q45 -38.5 45 -130.5v-341h-488v85h394v246q0 96 -98 96q-44 0 -207 -16l-3 67q54 13 121.5 22.5t111.5 9.5q79 0 124 -38.5zM241 691h91v-98h-91v98z" />
    <glyph glyph-name="uniFEAA" unicode="&#x62f;" horiz-adv-x="556" arabic-form="final" 
d="M556 85v-85h-516v85h324v92q0 142 -55 200.5t-129 58.5h-87l-7 71q15 5 49 10t64 5q72 0 130.5 -34.5t93.5 -110.5t35 -195v-97h98z" />
    <glyph glyph-name="uniFEAC" unicode="&#x630;" horiz-adv-x="556" arabic-form="final" 
d="M40 0zM556 85v-85h-516v85h324v92q0 142 -55 200.5t-129 58.5h-87l-7 71q15 5 49 10t64 5q72 0 130.5 -34.5t93.5 -110.5t35 -195v-97h98zM99 718h91v-98h-91v98z" />
    <glyph glyph-name="uniFB89" unicode="&#x688;" horiz-adv-x="556" arabic-form="final" 
d="M38 0zM556 85v-85h-516v85h324v92q0 142 -55 200.5t-129 58.5h-87l-7 71q15 5 49 10t64 5q72 0 130.5 -34.5t93.5 -110.5t35 -195v-97h98zM230.5 770q22.5 -21 22.5 -64v-86h-215v48h13v193h44v-128q15 28 34.5 43t47.5 15q31 0 53.5 -21zM116.5 721.5
q-21.5 -23.5 -21.5 -48.5v-5h115v38q0 17 -10.5 28t-30.5 11q-31 0 -52.5 -23.5z" />
    <glyph glyph-name="uniFEAE" unicode="&#x631;" horiz-adv-x="417" arabic-form="final" 
d="M417 0h-138v-6q0 -118 -41 -180.5t-124 -62.5q-23 0 -50 3l-24 2v84q33 -3 54 -3q45 0 68 36t23 101v525h94v-414h138v-85z" />
    <glyph glyph-name="uniFEB0" unicode="&#x632;" horiz-adv-x="417" arabic-form="final" 
d="M40 0zM417 0h-138v-6q0 -118 -41 -180.5t-124 -62.5q-23 0 -50 3l-24 2v84q33 -3 54 -3q45 0 68 36t23 101v525h94v-414h138v-85zM186 691h91v-98h-91v98z" />
    <glyph glyph-name="uniFB8D" unicode="&#x691;" horiz-adv-x="417" arabic-form="final" 
d="M40 0zM417 0h-138v-6q0 -118 -41 -180.5t-124 -62.5q-23 0 -50 3l-24 2v84q33 -3 54 -3q45 0 68 36t23 101v525h94v-414h138v-85zM317.5 743q22.5 -21 22.5 -64v-86h-215v48h13v193h44v-128q15 28 34.5 43t47.5 15q31 0 53.5 -21zM203.5 694.5q-21.5 -23.5 -21.5 -48.5
v-5h115v38q0 17 -10.5 28t-30.5 11q-31 0 -52.5 -23.5z" />
    <glyph glyph-name="uniFB8B" unicode="&#x698;" horiz-adv-x="417" arabic-form="final" 
d="M40 0zM417 0h-138v-6q0 -118 -41 -180.5t-124 -62.5q-23 0 -50 3l-24 2v84q33 -3 54 -3q45 0 68 36t23 101v525h94v-414h138v-85zM189 815h82v-91h-82v91zM121 688h85v-95h-85v95zM255 688h84v-95h-84v95z" />
    <glyph glyph-name="uniFEB2" unicode="&#x633;" horiz-adv-x="1197" arabic-form="final" 
d="M1197 85v-85h-303q-61 0 -112 40q-37 -40 -96 -40h-113v-40q0 -61 -33.5 -108.5t-93.5 -73.5t-137 -26q-84 0 -145 30.5t-92.5 81t-31.5 108.5q0 64 41 303l91 -5q-39 -223 -39 -281q0 -41 21.5 -76t61 -55t90.5 -20q48 0 87.5 18.5t62 50.5t22.5 72v471h95v-365h82
q44 0 64.5 37t20.5 93v235h94v-234q0 -58 -13 -101q14 -12 34.5 -21t40.5 -9h96v193q0 70 -16 219l80 3q12 -57 21 -122.5t9 -99.5v-193h111z" />
    <glyph glyph-name="uniFEB4" unicode="&#x633;" horiz-adv-x="859" arabic-form="medial" 
d="M859 85v-85h-284q-62 0 -111 40q-37 -40 -97 -40h-367v85h159v365h95v-365h82q44 0 64.5 37t20.5 93v235h95v-234q0 -57 -13 -102q14 -11 34 -20t40 -9h96v193q0 70 -16 219l80 3q12 -59 21.5 -123.5t9.5 -98.5v-193h91z" />
    <glyph glyph-name="uniFEB3" unicode="&#x633;" horiz-adv-x="835" arabic-form="initial" 
d="M758.5 376.5q9.5 -64.5 9.5 -98.5v-278h-193q-62 0 -111 40q-37 -40 -97 -40h-367v85h159v365h95v-365h82q44 0 64.5 37t20.5 93v235h95v-234q0 -57 -13 -102q14 -11 34 -20t40 -9h96v193q0 70 -16 219l80 3q12 -59 21.5 -123.5z" />
    <glyph glyph-name="uniFEB6" unicode="&#x634;" horiz-adv-x="1197" arabic-form="final" 
d="M40 0zM1197 85v-85h-303q-61 0 -112 40q-37 -40 -96 -40h-113v-40q0 -61 -33.5 -108.5t-93.5 -73.5t-137 -26q-84 0 -145 30.5t-92.5 81t-31.5 108.5q0 64 41 303l91 -5q-39 -223 -39 -281q0 -41 21.5 -76t61 -55t90.5 -20q48 0 87.5 18.5t62 50.5t22.5 72v471h95v-365
h82q44 0 64.5 37t20.5 93v235h94v-234q0 -58 -13 -101q14 -12 34.5 -21t40.5 -9h96v193q0 70 -16 219l80 3q12 -57 21 -122.5t9 -99.5v-193h111zM745 815h82v-91h-82v91zM677 688h85v-95h-85v95zM811 688h84v-95h-84v95z" />
    <glyph glyph-name="uniFEB8" unicode="&#x634;" horiz-adv-x="859" arabic-form="medial" 
d="M0 0zM859 85v-85h-284q-62 0 -111 40q-37 -40 -97 -40h-367v85h159v365h95v-365h82q44 0 64.5 37t20.5 93v235h95v-234q0 -57 -13 -102q14 -11 34 -20t40 -9h96v193q0 70 -16 219l80 3q12 -59 21.5 -123.5t9.5 -98.5v-193h91zM407 815h82v-91h-82v91zM339 688h85v-95h-85
v95zM473 688h84v-95h-84v95z" />
    <glyph glyph-name="uniFEB7" unicode="&#x634;" horiz-adv-x="835" arabic-form="initial" 
d="M0 0zM758.5 376.5q9.5 -64.5 9.5 -98.5v-278h-193q-62 0 -111 40q-37 -40 -97 -40h-367v85h159v365h95v-365h82q44 0 64.5 37t20.5 93v235h95v-234q0 -57 -13 -102q14 -11 34 -20t40 -9h96v193q0 70 -16 219l80 3q12 -59 21.5 -123.5zM427 815h82v-91h-82v91zM359 688h85
v-95h-85v95zM493 688h84v-95h-84v95z" />
    <glyph glyph-name="uniFEBA" unicode="&#x635;" horiz-adv-x="1197" arabic-form="final" 
d="M1197 85v-85h-624v-40q0 -61 -33.5 -108.5t-93.5 -73.5t-136 -26q-84 0 -145 30.5t-93 80.5t-32 107q0 66 41 305l91 -5q-14 -87 -26.5 -170t-12.5 -111q0 -41 22 -76t61.5 -55.5t89.5 -20.5q48 0 87.5 18.5t62 51t22.5 72.5v521h95v-160q45 56 81.5 91t85.5 57t113 22
q126 0 178.5 -77.5t52.5 -181.5v-166h113zM573 220v-135h416v150q0 81 -39 135.5t-112 54.5q-137 0 -265 -205z" />
    <glyph glyph-name="uniFEBC" unicode="&#x635;" horiz-adv-x="838" arabic-form="medial" 
d="M838 85v-85h-838v85h142v415h94v-160q45 56 81.5 91t85.5 57t113 22q126 0 178.5 -77.5t52.5 -181.5v-166h91zM236 220v-135h417v150q0 81 -39 135.5t-113 54.5q-137 0 -265 -205z" />
    <glyph glyph-name="uniFEBB" unicode="&#x635;" horiz-adv-x="814" arabic-form="initial" 
d="M694.5 432.5q52.5 -77.5 52.5 -181.5v-251h-747v85h142v415h94v-160q45 56 81.5 91t85.5 57t113 22q126 0 178.5 -77.5zM236 220v-135h417v150q0 81 -39 135.5t-113 54.5q-137 0 -265 -205z" />
    <glyph glyph-name="uniFEBE" unicode="&#x636;" horiz-adv-x="1197" arabic-form="final" 
d="M40 0zM1197 85v-85h-624v-40q0 -61 -33.5 -108.5t-93.5 -73.5t-136 -26q-84 0 -145 30.5t-93 80.5t-32 107q0 66 41 305l91 -5q-14 -87 -26.5 -170t-12.5 -111q0 -41 22 -76t61.5 -55.5t89.5 -20.5q48 0 87.5 18.5t62 51t22.5 72.5v521h95v-160q45 56 81.5 91t85.5 57
t113 22q126 0 178.5 -77.5t52.5 -181.5v-166h113zM573 220v-135h416v150q0 81 -39 135.5t-112 54.5q-137 0 -265 -205zM747 691h91v-98h-91v98z" />
    <glyph glyph-name="uniFEC0" unicode="&#x636;" horiz-adv-x="838" arabic-form="medial" 
d="M0 0zM838 85v-85h-838v85h142v415h94v-160q45 56 81.5 91t85.5 57t113 22q126 0 178.5 -77.5t52.5 -181.5v-166h91zM236 220v-135h417v150q0 81 -39 135.5t-113 54.5q-137 0 -265 -205zM408 691h91v-98h-91v98z" />
    <glyph glyph-name="uniFEBF" unicode="&#x636;" horiz-adv-x="814" arabic-form="initial" 
d="M0 0zM694.5 432.5q52.5 -77.5 52.5 -181.5v-251h-747v85h142v415h94v-160q45 56 81.5 91t85.5 57t113 22q126 0 178.5 -77.5zM236 220v-135h417v150q0 81 -39 135.5t-113 54.5q-137 0 -265 -205zM428 691h91v-98h-91v98z" />
    <glyph glyph-name="uniFEC2" unicode="&#x637;" horiz-adv-x="790" arabic-form="final" 
d="M790 85v-85h-770v85h54v627h94v-372q45 56 81.5 91t85.5 57t113 22q126 0 178.5 -77.5t52.5 -181.5v-166h111zM168 220v-135h417v150q0 81 -39 135.5t-113 54.5q-137 0 -265 -205z" />
    <glyph glyph-name="uniFEC4" unicode="&#x637;" horiz-adv-x="790" arabic-form="medial" 
d="M790 85v-85h-790v85h91v627h95v-413q64 99 130 155t158 56q66 0 116.5 -30.5t79.5 -88.5t29 -140v-166h91zM323.5 366.5q-61.5 -58.5 -99.5 -135t-38 -117.5v-29h419v159q0 59 -21.5 100t-56 61t-73.5 20q-69 0 -130.5 -58.5z" />
    <glyph glyph-name="uniFEC3" unicode="&#x637;" horiz-adv-x="759" arabic-form="initial" 
d="M590.5 479.5q50.5 -30.5 79.5 -88.5t29 -140v-251h-699v85h91v627h95v-413q64 99 130 155t158 56q66 0 116.5 -30.5zM323.5 366.5q-61.5 -58.5 -99.5 -135t-38 -117.5v-29h419v159q0 59 -21.5 100t-56 61t-73.5 20q-69 0 -130.5 -58.5z" />
    <glyph glyph-name="uniFEC6" unicode="&#x638;" horiz-adv-x="790" arabic-form="final" 
d="M20 0zM790 85v-85h-770v85h54v627h94v-372q45 56 81.5 91t85.5 57t113 22q126 0 178.5 -77.5t52.5 -181.5v-166h111zM168 220v-135h417v150q0 81 -39 135.5t-113 54.5q-137 0 -265 -205zM335 691h91v-98h-91v98z" />
    <glyph glyph-name="uniFEC8" unicode="&#x638;" horiz-adv-x="790" arabic-form="medial" 
d="M0 0zM790 85v-85h-790v85h91v627h95v-413q64 99 130 155t158 56q66 0 116.5 -30.5t79.5 -88.5t29 -140v-166h91zM323.5 366.5q-61.5 -58.5 -99.5 -135t-38 -117.5v-29h419v159q0 59 -21.5 100t-56 61t-73.5 20q-69 0 -130.5 -58.5zM335 691h91v-98h-91v98z" />
    <glyph glyph-name="uniFEC7" unicode="&#x638;" horiz-adv-x="759" arabic-form="initial" 
d="M0 0zM590.5 479.5q50.5 -30.5 79.5 -88.5t29 -140v-251h-699v85h91v627h95v-413q64 99 130 155t158 56q66 0 116.5 -30.5zM323.5 366.5q-61.5 -58.5 -99.5 -135t-38 -117.5v-29h419v159q0 59 -21.5 100t-56 61t-73.5 20q-69 0 -130.5 -58.5zM343 691h91v-98h-91v98z" />
    <glyph glyph-name="uniFECA" unicode="&#x639;" horiz-adv-x="606" arabic-form="final" 
d="M185 -0.5q-28 -29.5 -28 -90.5q0 -141 150 -141q70 0 187 21l11 -74l-34 -7q-107 -24 -182 -24q-112 0 -171 60t-59 171q0 84 35 132t104 64q-69 57 -111.5 126.5t-44.5 126.5l-2 76q60 33 125.5 52t129.5 19t130 -19t127 -52l-3 -76q-2 -59 -46 -130.5t-117 -129.5
q55 -19 106 -19h114v-85h-114q-49 0 -100.5 12t-95.5 33l-28 -12q-55 -4 -83 -33.5zM178 258q43 -65 118 -112q76 48 118.5 112.5t43.5 133.5q-94 33 -162 33q-65 0 -161 -33q0 -69 43 -134z" />
    <glyph glyph-name="uniFECC" unicode="&#x639;" horiz-adv-x="629" arabic-form="medial" 
d="M629 85v-85h-113q-49 0 -100.5 12t-96.5 33q-43 -21 -94 -33t-99 -12h-126v85h123q51 0 105 19q-73 58 -116.5 129.5t-45.5 130.5l-3 76q60 33 125.5 52t129.5 19t130.5 -19t127.5 -52l-4 -76q-2 -59 -45.5 -130.5t-117.5 -129.5q55 -19 106 -19h114zM201.5 258
q42.5 -65 117.5 -112q76 48 119 112.5t43 133.5q-92 33 -162 33q-69 0 -160 -33q0 -69 42.5 -134z" />
    <glyph glyph-name="uniFECB" unicode="&#x639;" horiz-adv-x="563" arabic-form="initial" 
d="M533 85v-85h-533v85h173q-23 30 -39.5 79t-16.5 108q0 74 28 128t78 82.5t114 28.5q38 0 84 -10.5t82 -29.5l-4 -86q-20 12 -67 26t-85 14q-61 0 -98 -41t-37 -117q0 -59 21 -106.5t52 -75.5h248z" />
    <glyph glyph-name="uniFECE" unicode="&#x63a;" horiz-adv-x="606" arabic-form="final" 
d="M40 0zM185 -0.5q-28 -29.5 -28 -90.5q0 -141 150 -141q70 0 187 21l11 -74l-34 -7q-107 -24 -182 -24q-112 0 -171 60t-59 171q0 84 35 132t104 64q-69 57 -111.5 126.5t-44.5 126.5l-2 76q60 33 125.5 52t129.5 19t130 -19t127 -52l-3 -76q-2 -59 -46 -130.5
t-117 -129.5q55 -19 106 -19h114v-85h-114q-49 0 -100.5 12t-95.5 33l-28 -12q-55 -4 -83 -33.5zM178 258q43 -65 118 -112q76 48 118.5 112.5t43.5 133.5q-94 33 -162 33q-65 0 -161 -33q0 -69 43 -134zM248 691h91v-98h-91v98z" />
    <glyph glyph-name="uniFED0" unicode="&#x63a;" horiz-adv-x="629" arabic-form="medial" 
d="M0 0zM629 85v-85h-113q-49 0 -100.5 12t-96.5 33q-43 -21 -94 -33t-99 -12h-126v85h123q51 0 105 19q-73 58 -116.5 129.5t-45.5 130.5l-3 76q60 33 125.5 52t129.5 19t130.5 -19t127.5 -52l-4 -76q-2 -59 -45.5 -130.5t-117.5 -129.5q55 -19 106 -19h114zM201.5 258
q42.5 -65 117.5 -112q76 48 119 112.5t43 133.5q-92 33 -162 33q-69 0 -160 -33q0 -69 42.5 -134zM270 691h91v-98h-91v98z" />
    <glyph glyph-name="uniFECF" unicode="&#x63a;" horiz-adv-x="563" arabic-form="initial" 
d="M0 0zM533 85v-85h-533v85h173q-23 30 -39.5 79t-16.5 108q0 74 28 128t78 82.5t114 28.5q38 0 84 -10.5t82 -29.5l-4 -86q-20 12 -67 26t-85 14q-61 0 -98 -41t-37 -117q0 -59 21 -106.5t52 -75.5h248zM284 691h91v-98h-91v98z" />
    <glyph glyph-name="uniFED2" unicode="&#x641;" horiz-adv-x="1008" arabic-form="final" 
d="M40 0zM1008 85v-85h-701q-93 0 -150.5 15t-87 52.5t-29.5 105.5q0 42 9.5 104t22.5 114l75 -4l-8 -60q-14 -96 -14 -133q0 -58 38.5 -83.5t138.5 -25.5h216q-23 53 -23 160q0 99 23.5 153.5t76.5 77.5t146 23q79 0 141 -7l36 -4v-403h90zM598 140q9 -33 24 -55h201v327
q-63 5 -88 5q-60 0 -91 -17t-43 -55t-12 -107q0 -65 9 -98zM701 691h91v-98h-91v98z" />
    <glyph glyph-name="uniFED4" unicode="&#x641;" horiz-adv-x="621" arabic-form="medial" 
d="M0 0zM621 85v-85h-621v85h130q-23 57 -23 160q0 99 24 153.5t76.5 77.5t146.5 23q78 0 141 -7l35 -4v-403h91zM211 139.5q9 -33.5 23 -54.5h201v327q-62 5 -87 5q-60 0 -91 -17t-43 -55t-12 -107q0 -65 9 -98.5zM282 691h91v-98h-91v98z" />
    <glyph glyph-name="uniFED3" unicode="&#x641;" horiz-adv-x="587" arabic-form="initial" 
d="M0 0zM530 488v-488h-530v85h130q-23 57 -23 160q0 99 24 153.5t76.5 77.5t146.5 23q78 0 141 -7zM211 139.5q9 -33.5 23 -54.5h201v327q-62 5 -87 5q-60 0 -91 -17t-43 -55t-12 -107q0 -65 9 -98.5zM290 691h91v-98h-91v98z" />
    <glyph glyph-name="uniFB6B" unicode="&#x6a4;" horiz-adv-x="1008" arabic-form="final" 
d="M40 0zM1008 85v-85h-701q-93 0 -150.5 15t-87 52.5t-29.5 105.5q0 42 9.5 104t22.5 114l75 -4l-8 -60q-14 -96 -14 -133q0 -58 38.5 -83.5t138.5 -25.5h216q-23 53 -23 160q0 99 23.5 153.5t76.5 77.5t146 23q79 0 141 -7l36 -4v-403h90zM598 140q9 -33 24 -55h201v327
q-63 5 -88 5q-60 0 -91 -17t-43 -55t-12 -107q0 -65 9 -98zM704 815h82v-91h-82v91zM636 688h85v-95h-85v95zM770 688h84v-95h-84v95z" />
    <glyph glyph-name="uniFB6D" unicode="&#x6a4;" horiz-adv-x="621" arabic-form="medial" 
d="M0 0zM621 85v-85h-621v85h130q-23 57 -23 160q0 99 24 153.5t76.5 77.5t146.5 23q78 0 141 -7l35 -4v-403h91zM211 139.5q9 -33.5 23 -54.5h201v327q-62 5 -87 5q-60 0 -91 -17t-43 -55t-12 -107q0 -65 9 -98.5zM285 815h82v-91h-82v91zM217 688h85v-95h-85v95zM351 688
h84v-95h-84v95z" />
    <glyph glyph-name="uniFB6C" unicode="&#x6a4;" horiz-adv-x="587" arabic-form="initial" 
d="M0 0zM530 488v-488h-530v85h130q-23 57 -23 160q0 99 24 153.5t76.5 77.5t146.5 23q78 0 141 -7zM211 139.5q9 -33.5 23 -54.5h201v327q-62 5 -87 5q-60 0 -91 -17t-43 -55t-12 -107q0 -65 9 -98.5zM293 815h82v-91h-82v91zM225 688h85v-95h-85v95zM359 688h84v-95h-84
v95z" />
    <glyph glyph-name="uni06A1.init" unicode="&#x6a1;" horiz-adv-x="587" 
d="M530 488v-488h-530v85h130q-23 57 -23 160q0 99 24 153.5t76.5 77.5t146.5 23q78 0 141 -7zM211 139.5q9 -33.5 23 -54.5h201v327q-62 5 -87 5q-60 0 -91 -17t-43 -55t-12 -107q0 -65 9 -98.5z" />
    <glyph glyph-name="uni06A1.medi" unicode="&#x6a1;" horiz-adv-x="621" 
d="M621 85v-85h-621v85h130q-23 57 -23 160q0 99 24 153.5t76.5 77.5t146.5 23q78 0 141 -7l35 -4v-403h91zM211 139.5q9 -33.5 23 -54.5h201v327q-62 5 -87 5q-60 0 -91 -17t-43 -55t-12 -107q0 -65 9 -98.5z" />
    <glyph glyph-name="uni06A1.fina" unicode="&#x6a1;" horiz-adv-x="1008" 
d="M1008 85v-85h-701q-93 0 -150.5 15t-87 52.5t-29.5 105.5q0 42 9.5 104t22.5 114l75 -4l-8 -60q-14 -96 -14 -133q0 -58 38.5 -83.5t138.5 -25.5h216q-23 53 -23 160q0 99 23.5 153.5t76.5 77.5t146 23q79 0 141 -7l36 -4v-403h90zM598 140q9 -33 24 -55h201v327
q-63 5 -88 5q-60 0 -91 -17t-43 -55t-12 -107q0 -65 9 -98z" />
    <glyph glyph-name="uni066F.init" unicode="&#x66f;" horiz-adv-x="587" 
d="M0 0zM530 488v-488h-530v85h130q-23 57 -23 160q0 99 24 153.5t76.5 77.5t146.5 23q78 0 141 -7zM211 139.5q9 -33.5 23 -54.5h201v327q-62 5 -87 5q-60 0 -91 -17t-43 -55t-12 -107q0 -65 9 -98.5z" />
    <glyph glyph-name="uni066F.medi" unicode="&#x66f;" horiz-adv-x="621" 
d="M0 0zM621 85v-85h-621v85h130q-23 57 -23 160q0 99 24 153.5t76.5 77.5t146.5 23q78 0 141 -7l35 -4v-403h91zM211 139.5q9 -33.5 23 -54.5h201v327q-62 5 -87 5q-60 0 -91 -17t-43 -55t-12 -107q0 -65 9 -98.5z" />
    <glyph glyph-name="uni066F.fina" unicode="&#x66f;" horiz-adv-x="921" 
d="M921 0h-116v-37q0 -63 -28 -113t-83 -78.5t-132 -28.5h-281q-77 0 -131.5 28.5t-82 78.5t-27.5 114q0 83 38 292l89 -14l-7 -44q-10 -66 -18.5 -126.5t-8.5 -91.5q0 -70 36.5 -111t113.5 -41h276q77 0 114 41t37 110v21h-138q-72 0 -112.5 19t-59 69t-18.5 146
q0 100 21.5 157t73 83t142.5 26q33 0 77.5 -2.5t72.5 -5.5l36 -4v-403h116v-85zM489 141.5q12 -32.5 38 -44.5t73 -12h110v326q-53 5 -84 5q-57 0 -89.5 -17.5t-46 -56t-13.5 -105.5q0 -63 12 -95.5z" />
    <glyph glyph-name="uniFED6" unicode="&#x642;" horiz-adv-x="921" arabic-form="final" 
d="M40 0zM921 0h-116v-37q0 -63 -28 -113t-83 -78.5t-132 -28.5h-281q-77 0 -131.5 28.5t-82 78.5t-27.5 114q0 83 38 292l89 -14l-7 -44q-10 -66 -18.5 -126.5t-8.5 -91.5q0 -70 36.5 -111t113.5 -41h276q77 0 114 41t37 110v21h-138q-72 0 -112.5 19t-59 69t-18.5 146
q0 100 21.5 157t73 83t142.5 26q33 0 77.5 -2.5t72.5 -5.5l36 -4v-403h116v-85zM489 141.5q12 -32.5 38 -44.5t73 -12h110v326q-53 5 -84 5q-57 0 -89.5 -17.5t-46 -56t-13.5 -105.5q0 -63 12 -95.5zM523 690h85v-97h-85v97zM657 690h84v-97h-84v97z" />
    <glyph glyph-name="uniFED8" unicode="&#x642;" horiz-adv-x="621" arabic-form="medial" 
d="M0 0zM621 85v-85h-621v85h130q-23 57 -23 160q0 99 24 153.5t76.5 77.5t146.5 23q78 0 141 -7l35 -4v-403h91zM211 139.5q9 -33.5 23 -54.5h201v327q-62 5 -87 5q-60 0 -91 -17t-43 -55t-12 -107q0 -65 9 -98.5zM218 690h85v-97h-85v97zM352 690h84v-97h-84v97z" />
    <glyph glyph-name="uniFED7" unicode="&#x642;" horiz-adv-x="587" arabic-form="initial" 
d="M0 0zM530 488v-488h-530v85h130q-23 57 -23 160q0 99 24 153.5t76.5 77.5t146.5 23q78 0 141 -7zM211 139.5q9 -33.5 23 -54.5h201v327q-62 5 -87 5q-60 0 -91 -17t-43 -55t-12 -107q0 -65 9 -98.5zM226 690h85v-97h-85v97zM360 690h84v-97h-84v97z" />
    <glyph glyph-name="uniFEDA" unicode="&#x643;" horiz-adv-x="836" arabic-form="final" 
d="M47 0zM836 85v-85h-522q-92 0 -150 15t-87.5 52.5t-29.5 104.5q0 63 25 190l78 -4l-4 -32q-14 -94 -14 -132q0 -58 38.5 -83.5t138.5 -25.5h283v627h95v-627h149zM467 392l-209 -41l-10 36l48 13q-18 14 -27 33.5t-9 40.5q0 38 27 66t70 28q38 0 74 -24l-11 -45
q-6 5 -18 10t-26 5q-25 0 -41 -16.5t-16 -39.5q0 -28 24 -46l112 30z" />
    <glyph glyph-name="uniFEDC" unicode="&#x643;" horiz-adv-x="682" arabic-form="medial" 
d="M682 85v-85h-682v85h448v139q0 56 -23 97t-70 42h-270l-57 76l55 107q19 37 54.5 86.5t70.5 91.5l68 -39q-67 -100 -106 -175l-33 -62h229q95 0 135.5 -67t40.5 -158v-138h140z" />
    <glyph glyph-name="uniFEDB" unicode="&#x643;" horiz-adv-x="602" arabic-form="initial" 
d="M501.5 381q40.5 -67 40.5 -158v-223h-542v85h448v139q0 56 -23 97t-70 42h-270l-57 76l55 107q19 37 54.5 86.5t70.5 91.5l68 -39q-67 -100 -106 -175l-33 -62h229q95 0 135.5 -67z" />
    <glyph glyph-name="uniFB8F" unicode="&#x6a9;" horiz-adv-x="882" arabic-form="final" 
d="M882 85v-85h-575q-92 0 -150 15t-87.5 52.5t-29.5 104.5q0 63 25 190l78 -4q-2 -24 -8 -60q-1 -12 -5.5 -48t-4.5 -56q0 -58 38.5 -83.5t138.5 -25.5h375v139q0 56 -23 97t-70 42h-270l-57 76l55 107q19 37 54.5 86.5t70.5 91.5l68 -39q-71 -106 -107 -175l-32 -62h229
q95 0 135.5 -67t40.5 -158v-138h111z" />
    <glyph glyph-name="uniFB91" unicode="&#x6a9;" horiz-adv-x="682" arabic-form="medial" 
d="M0 0zM682 85v-85h-682v85h448v139q0 56 -23 97t-70 42h-270l-57 76l55 107q19 37 54.5 86.5t70.5 91.5l68 -39q-67 -100 -106 -175l-33 -62h229q95 0 135.5 -67t40.5 -158v-138h140z" />
    <glyph glyph-name="uniFB90" unicode="&#x6a9;" horiz-adv-x="602" arabic-form="initial" 
d="M0 0zM501.5 381q40.5 -67 40.5 -158v-223h-542v85h448v139q0 56 -23 97t-70 42h-270l-57 76l55 107q19 37 54.5 86.5t70.5 91.5l68 -39q-67 -100 -106 -175l-33 -62h229q95 0 135.5 -67z" />
    <glyph glyph-name="uniFB93" unicode="&#x6af;" horiz-adv-x="882" arabic-form="final" 
d="M40 0zM882 85v-85h-575q-92 0 -150 15t-87.5 52.5t-29.5 104.5q0 63 25 190l78 -4q-2 -24 -8 -60q-1 -12 -5.5 -48t-4.5 -56q0 -58 38.5 -83.5t138.5 -25.5h375v139q0 56 -23 97t-70 42h-270l-57 76l55 107q19 37 54.5 86.5t70.5 91.5l68 -39q-71 -106 -107 -175l-32 -62
h229q95 0 135.5 -67t40.5 -158v-138h111zM192 533l32 64q18 34 53 84.5t68 91.5l57 -32q-34 -40 -74.5 -97.5t-57.5 -91.5l-37 -74z" />
    <glyph glyph-name="uniFB95" unicode="&#x6af;" horiz-adv-x="682" arabic-form="medial" 
d="M0 0zM682 85v-85h-682v85h448v139q0 56 -23 97t-70 42h-270l-57 76l55 107q19 37 54.5 86.5t70.5 91.5l68 -39q-67 -100 -106 -175l-33 -62h229q95 0 135.5 -67t40.5 -158v-138h140zM-39 533l32 64q18 34 53 84.5t68 91.5l57 -32q-34 -40 -74.5 -97.5t-57.5 -91.5
l-37 -74z" />
    <glyph glyph-name="uniFB94" unicode="&#x6af;" horiz-adv-x="602" arabic-form="initial" 
d="M0 0zM501.5 381q40.5 -67 40.5 -158v-223h-542v85h448v139q0 56 -23 97t-70 42h-270l-57 76l55 107q19 37 54.5 86.5t70.5 91.5l68 -39q-67 -100 -106 -175l-33 -62h229q95 0 135.5 -67zM-39 533l32 64q18 34 53 84.5t68 91.5l57 -32q-34 -40 -74.5 -97.5t-57.5 -91.5
l-37 -74z" />
    <glyph glyph-name="uniFEDE" unicode="&#x644;" horiz-adv-x="690" arabic-form="final" 
d="M690 0h-116v-32q0 -66 -34.5 -115t-94 -75t-132.5 -26q-77 0 -139 28.5t-97.5 78.5t-35.5 112q0 69 39 303l90 -5q-15 -95 -25.5 -178.5t-10.5 -111.5q0 -40 23 -72.5t63.5 -51t89.5 -18.5q72 0 120.5 38.5t48.5 103.5v733h95v-627h116v-85z" />
    <glyph glyph-name="uniFEE0" unicode="&#x644;" horiz-adv-x="338" arabic-form="medial" 
d="M338 85v-85h-338v85h123v627h95v-627h120z" />
    <glyph glyph-name="uniFEDF" unicode="&#x644;" horiz-adv-x="305" arabic-form="initial" 
d="M218 712v-712h-218v85h123v627h95z" />
    <glyph glyph-name="uniFEE2" unicode="&#x645;" horiz-adv-x="672" arabic-form="final" 
d="M672 85v-85h-39q-18 0 -37.5 11.5t-34.5 30.5v-42h-323q-111 0 -111 -137q0 -65 27 -188l-80 -2q-33 145 -33 228q0 133 88 171q-17 87 -17 174q0 63 9 127.5t20 107.5q26 11 74.5 20t102.5 9q130 0 186.5 -61t56.5 -199v-124q12 -18 30.5 -29.5t41.5 -11.5h39zM466 85
v167q0 92 -38.5 132.5t-122.5 40.5q-43 0 -84 -9q-15 -92 -15 -170q0 -45 4.5 -89.5t9.5 -71.5h246z" />
    <glyph glyph-name="uniFEE4" unicode="&#x645;" horiz-adv-x="708" arabic-form="medial" 
d="M708 85v-85h-39q-18 0 -38 11.5t-34 29.5v-41h-597v85h162q-14 82 -14 161q0 63 9 127.5t20 107.5q27 11 74.5 20t102.5 9q130 0 186.5 -61t56.5 -199v-124q11 -18 29.5 -29.5t42.5 -11.5h39zM246.5 156.5q4.5 -44.5 9.5 -71.5h246v167q0 92 -38.5 132.5t-122.5 40.5
q-43 0 -84 -9q-15 -92 -15 -170q0 -45 4.5 -89.5z" />
    <glyph glyph-name="uniFEE3" unicode="&#x645;" horiz-adv-x="653" arabic-form="initial" 
d="M540.5 449q56.5 -61 56.5 -199v-250h-597v85h162q-14 82 -14 161q0 63 9 127.5t20 107.5q27 11 74.5 20t102.5 9q130 0 186.5 -61zM246.5 156.5q4.5 -44.5 9.5 -71.5h246v167q0 92 -38.5 132.5t-122.5 40.5q-43 0 -84 -9q-15 -92 -15 -170q0 -45 4.5 -89.5z" />
    <glyph glyph-name="uniFEE6" unicode="&#x646;" horiz-adv-x="684" arabic-form="final" 
d="M40 0zM684 0h-111v-32q0 -66 -34.5 -115t-94 -75t-132.5 -26q-77 0 -139 28.5t-97.5 78.5t-35.5 112q0 69 39 303l90 -5q-15 -95 -25.5 -178.5t-10.5 -111.5q0 -40 23 -72.5t63.5 -51t89.5 -18.5q72 0 120.5 38.5t48.5 103.5v521h95v-415h111v-85zM269 598h91v-98h-91v98
z" />
    <glyph glyph-name="uniFEE8" unicode="&#x646;" horiz-adv-x="393" arabic-form="medial" 
d="M0 0zM393 85v-85h-393v85h149v415h95v-415h149zM151 691h91v-98h-91v98z" />
    <glyph glyph-name="uniFEE7" unicode="&#x646;" horiz-adv-x="321" arabic-form="initial" 
d="M0 0zM244 500v-500h-244v85h149v415h95zM152 691h91v-98h-91v98z" />
    <glyph glyph-name="uni06BA.init" unicode="&#x6ba;" horiz-adv-x="321" 
d="M0 0zM244 500v-500h-244v85h149v415h95z" />
    <glyph glyph-name="uni06BA.medi" unicode="&#x6ba;" horiz-adv-x="393" 
d="M0 0zM393 85v-85h-393v85h149v415h95v-415h149z" />
    <glyph glyph-name="uniFB9F" unicode="&#x6ba;" horiz-adv-x="684" arabic-form="final" 
d="M684 0h-111v-32q0 -66 -34.5 -115t-94 -75t-132.5 -26q-77 0 -139 28.5t-97.5 78.5t-35.5 112q0 69 39 303l90 -5q-15 -95 -25.5 -178.5t-10.5 -111.5q0 -40 23 -72.5t63.5 -51t89.5 -18.5q72 0 120.5 38.5t48.5 103.5v521h95v-415h111v-85z" />
    <glyph glyph-name="uniFEEA" unicode="&#x647;" horiz-adv-x="625" arabic-form="final" 
d="M625 85v-85h-339q-92 0 -145 24t-77 79t-24 152q0 95 23 150.5t75 80t143 24.5q44 0 121 -4t112 -8v-413h111zM150.5 154q15.5 -37 50.5 -53t96 -16h123v333q-80 6 -127 6q-59 0 -93.5 -16.5t-49.5 -53t-15 -98.5q0 -65 15.5 -102z" />
    <glyph glyph-name="uniFEEC" unicode="&#x647;" horiz-adv-x="810" arabic-form="medial" 
d="M810 85v-85h-810v85h112v62q0 50 25.5 93.5t68.5 69.5t95 26t95 -25.5t68 -69t25 -94.5v-62h131v125q0 144 -74.5 201.5t-181.5 57.5q-69 0 -218 -27l-7 74q142 38 244 38q96 0 170.5 -36t118 -113t43.5 -194v-126h95zM234 222q-27 -28 -27 -69v-68h188v69q0 40 -27 68
t-67 28t-67 -28z" />
    <glyph glyph-name="uniFEEB" unicode="&#x647;" horiz-adv-x="771" arabic-form="initial" 
d="M553.5 518q74.5 -36 118 -113t43.5 -194v-211h-715v85h112v62q0 50 25.5 93.5t68.5 69.5t95 26t95 -25.5t68 -69t25 -94.5v-62h131v125q0 144 -74.5 201.5t-181.5 57.5q-69 0 -218 -27l-7 74q142 38 244 38q96 0 170.5 -36zM234 222q-27 -28 -27 -69v-68h188v69
q0 40 -27 68t-67 28t-67 -28z" />
    <glyph glyph-name="uniFBA7" unicode="&#x6c1;" horiz-adv-x="624" arabic-form="final" 
d="M624 85v-85h-205v421q-90 4 -131 4q-61 0 -94 -17t-46.5 -54.5t-13.5 -105.5v-248h-94v249q0 98 23.5 154t78.5 81t153 25q39 0 97.5 -2t85.5 -5l36 -4v-413h110z" />
    <glyph glyph-name="uniFBA9" unicode="&#x6c1;" horiz-adv-x="553" arabic-form="medial" 
d="M553 0h-109v-309l-37 -4q-5 -1 -55 -3q-90 0 -140.5 29t-73 96.5t-25.5 190.5h-113v85h203v-50q0 -104 11.5 -160.5t43 -81.5t91.5 -25v317h204v-85z" />
    <glyph glyph-name="uniFBA8" unicode="&#x6c1;" horiz-adv-x="321" arabic-form="initial" 
d="M0 0zM244 500v-500h-244v85h149v415h95zM127 -61h77l-47 -239h-104z" />
    <glyph glyph-name="uni06C2.init" unicode="&#x6c2;" horiz-adv-x="321" 
d="M0 0zM244 500v-500h-244v85h149v415h95zM127 -61h77l-47 -239h-104zM303 644l-209 -41l-10 36l48 13q-18 14 -27 33.5t-9 40.5q0 38 27 66t70 28q38 0 74 -24l-11 -45q-6 5 -18 10t-26 5q-25 0 -41 -16.5t-16 -39.5q0 -28 24 -46l112 30z" />
    <glyph glyph-name="uni06C2.medi" unicode="&#x6c2;" horiz-adv-x="553" 
d="M0 0zM553 0h-109v-309l-37 -4q-5 -1 -55 -3q-90 0 -140.5 29t-73 96.5t-25.5 190.5h-113v85h203v-50q0 -104 11.5 -160.5t43 -81.5t91.5 -25v317h204v-85zM383 364l-209 -41l-10 36l48 13q-18 14 -27 33.5t-9 40.5q0 38 27 66t70 28q38 0 74 -24l-11 -45q-6 5 -18 10
t-26 5q-25 0 -41 -16.5t-16 -39.5q0 -28 24 -46l112 30z" />
    <glyph glyph-name="uni06C2.fina" unicode="&#x6c2;" horiz-adv-x="625" 
d="M40 0zM625 85v-85h-339q-92 0 -145 24t-77 79t-24 152q0 95 23 150.5t75 80t143 24.5q44 0 121 -4t112 -8v-413h111zM150.5 154q15.5 -37 50.5 -53t96 -16h123v333q-80 6 -127 6q-59 0 -93.5 -16.5t-49.5 -53t-15 -98.5q0 -65 15.5 -102zM410 644l-209 -41l-10 36l48 13
q-18 14 -27 33.5t-9 40.5q0 38 27 66t70 28q38 0 74 -24l-11 -45q-6 5 -18 10t-26 5q-25 0 -41 -16.5t-16 -39.5q0 -28 24 -46l112 30z" />
    <glyph glyph-name="uniFBAB" unicode="&#x6be;" horiz-adv-x="791" arabic-form="final" 
d="M791 85v-85h-751v85h53v62q0 50 25 93.5t68.5 69.5t95.5 26t95 -25.5t68 -69t25 -94.5v-62h131v125q0 144 -74.5 201.5t-181.5 57.5q-44 0 -97 -7.5t-122 -19.5l-6 74q138 38 244 38q96 0 170.5 -36t117.5 -113t43 -194v-126h96zM215 222q-27 -28 -27 -69v-68h187v69
q0 40 -27 68t-66 28q-40 0 -67 -28z" />
    <glyph glyph-name="uniFBAD" unicode="&#x6be;" horiz-adv-x="810" arabic-form="medial" 
d="M0 0zM810 85v-85h-810v85h112v62q0 50 25.5 93.5t68.5 69.5t95 26t95 -25.5t68 -69t25 -94.5v-62h131v125q0 144 -74.5 201.5t-181.5 57.5q-69 0 -218 -27l-7 74q142 38 244 38q96 0 170.5 -36t118 -113t43.5 -194v-126h95zM234 222q-27 -28 -27 -69v-68h188v69
q0 40 -27 68t-67 28t-67 -28z" />
    <glyph glyph-name="uniFBAC" unicode="&#x6be;" horiz-adv-x="771" arabic-form="initial" 
d="M0 0zM553.5 518q74.5 -36 118 -113t43.5 -194v-211h-715v85h112v62q0 50 25.5 93.5t68.5 69.5t95 26t95 -25.5t68 -69t25 -94.5v-62h131v125q0 144 -74.5 201.5t-181.5 57.5q-69 0 -218 -27l-7 74q142 38 244 38q96 0 170.5 -36zM234 222q-27 -28 -27 -69v-68h188v69
q0 40 -27 68t-67 28t-67 -28z" />
    <glyph glyph-name="uniFE94" unicode="&#x629;" horiz-adv-x="625" arabic-form="final" 
d="M40 0zM625 85v-85h-339q-92 0 -145 24t-77 79t-24 152q0 95 23 150.5t75 80t143 24.5q44 0 121 -4t112 -8v-413h111zM150.5 154q15.5 -37 50.5 -53t96 -16h123v333q-80 6 -127 6q-59 0 -93.5 -16.5t-49.5 -53t-15 -98.5q0 -65 15.5 -102zM195 690h85v-97h-85v97zM329 690
h84v-97h-84v97z" />
    <glyph glyph-name="uni06C3.fina" unicode="&#x6c3;" horiz-adv-x="624" 
d="M40 0zM624 85v-85h-205v421q-90 4 -131 4q-61 0 -94 -17t-46.5 -54.5t-13.5 -105.5v-248h-94v249q0 98 23.5 154t78.5 81t153 25q39 0 97.5 -2t85.5 -5l36 -4v-413h110zM193 720h85v-97h-85v97zM327 720h84v-97h-84v97z" />
    <glyph glyph-name="uniFEEE" unicode="&#x648;" horiz-adv-x="585" arabic-form="final" 
d="M585 0h-125q-7 -118 -48.5 -183t-136.5 -65q-42 0 -158 16v85q98 -16 151 -16q34 0 55 12t32 47.5t11 103.5h-137q-116 0 -152.5 71t-36.5 176q1 99 21.5 158t68 86.5t129.5 27.5q46 0 105.5 -6.5t97.5 -14.5v-413h123v-85zM159 131.5q24 -46.5 101 -46.5h107v342
q-49 7 -87 7q-81 0 -112.5 -42.5t-32.5 -141.5q0 -72 24 -118.5z" />
    <glyph glyph-name="uniFE86" unicode="&#x624;" horiz-adv-x="585" arabic-form="final" 
d="M40 0zM585 0h-125q-7 -118 -48.5 -183t-136.5 -65q-42 0 -158 16v85q98 -16 151 -16q34 0 55 12t32 47.5t11 103.5h-137q-116 0 -152.5 71t-36.5 176q1 99 21.5 158t68 86.5t129.5 27.5q46 0 105.5 -6.5t97.5 -14.5v-413h123v-85zM159 131.5q24 -46.5 101 -46.5h107v342
q-49 7 -87 7q-81 0 -112.5 -42.5t-32.5 -141.5q0 -72 24 -118.5zM382 644l-209 -41l-10 36l48 13q-18 14 -27 33.5t-9 40.5q0 38 27 66t70 28q38 0 74 -24l-11 -45q-6 5 -18 10t-26 5q-25 0 -41 -16.5t-16 -39.5q0 -28 24 -46l112 30z" />
    <glyph glyph-name="uniFEF0" unicode="&#x649;" horiz-adv-x="929" arabic-form="final" 
d="M929 0h-123v-5q0 -115 -58.5 -179t-166.5 -64h-268q-72 0 -134.5 26.5t-100.5 77t-38 117.5q0 60 26 214l89 -14q-20 -138 -20 -182q0 -45 23 -80t62.5 -54.5t87.5 -19.5h267q67 0 101 40t34 111v12h-18q-37 0 -70 7t-63 27l40 72q20 -14 41 -17.5t60 -3.5h229v-85z" />
    <glyph glyph-name="uniFEF2" unicode="&#x64a;" horiz-adv-x="929" arabic-form="final" 
d="M40 0zM929 0h-123v-5q0 -115 -58.5 -179t-166.5 -64h-268q-72 0 -134.5 26.5t-100.5 77t-38 117.5q0 60 26 214l89 -14q-20 -138 -20 -182q0 -45 23 -80t62.5 -54.5t87.5 -19.5h267q67 0 101 40t34 111v12h-18q-37 0 -70 7t-63 27l40 72q20 -14 41 -17.5t60 -3.5h229v-85
zM316 -320h85v-96h-85v96zM450 -320h84v-96h-84v96z" />
    <glyph glyph-name="uniFEF4" unicode="&#x64a;" horiz-adv-x="393" arabic-form="medial" 
d="M0 0zM393 85v-85h-393v85h149v415h95v-415h149zM86 -80h85v-96h-85v96zM220 -80h84v-96h-84v96z" />
    <glyph glyph-name="uniFEF3" unicode="&#x64a;" horiz-adv-x="321" arabic-form="initial" 
d="M0 0zM244 500v-500h-244v85h149v415h95zM87 -80h85v-96h-85v96zM221 -80h84v-96h-84v96z" />
    <glyph glyph-name="uniFE8A" unicode="&#x626;" horiz-adv-x="929" arabic-form="final" 
d="M40 0zM929 0h-123v-5q0 -115 -58.5 -179t-166.5 -64h-268q-72 0 -134.5 26.5t-100.5 77t-38 117.5q0 60 26 214l89 -14q-20 -138 -20 -182q0 -45 23 -80t62.5 -54.5t87.5 -19.5h267q67 0 101 40t34 111v12h-18q-37 0 -70 7t-63 27l40 72q20 -14 41 -17.5t60 -3.5h229v-85
zM269 312l-209 -41l-10 36l48 13q-18 14 -27 33.5t-9 40.5q0 38 27 66t70 28q38 0 74 -24l-11 -45q-6 5 -18 10t-26 5q-25 0 -41 -16.5t-16 -39.5q0 -28 24 -46l112 30z" />
    <glyph glyph-name="uniFE8C" unicode="&#x626;" horiz-adv-x="393" arabic-form="medial" 
d="M0 0zM393 85v-85h-393v85h149v415h95v-415h149zM302 644l-209 -41l-10 36l48 13q-18 14 -27 33.5t-9 40.5q0 38 27 66t70 28q38 0 74 -24l-11 -45q-6 5 -18 10t-26 5q-25 0 -41 -16.5t-16 -39.5q0 -28 24 -46l112 30z" />
    <glyph glyph-name="uniFE8B" unicode="&#x626;" horiz-adv-x="321" arabic-form="initial" 
d="M0 0zM244 500v-500h-244v85h149v415h95zM303 644l-209 -41l-10 36l48 13q-18 14 -27 33.5t-9 40.5q0 38 27 66t70 28q38 0 74 -24l-11 -45q-6 5 -18 10t-26 5q-25 0 -41 -16.5t-16 -39.5q0 -28 24 -46l112 30z" />
    <glyph glyph-name="uniFBFD" unicode="&#x6cc;" horiz-adv-x="929" arabic-form="final" 
d="M40 0zM929 0h-123v-5q0 -115 -58.5 -179t-166.5 -64h-268q-72 0 -134.5 26.5t-100.5 77t-38 117.5q0 60 26 214l89 -14q-20 -138 -20 -182q0 -45 23 -80t62.5 -54.5t87.5 -19.5h267q67 0 101 40t34 111v12h-18q-37 0 -70 7t-63 27l40 72q20 -14 41 -17.5t60 -3.5h229v-85
z" />
    <glyph glyph-name="uniFBFF" unicode="&#x6cc;" horiz-adv-x="393" arabic-form="medial" 
d="M0 0zM393 85v-85h-393v85h149v415h95v-415h149zM86 -80h85v-96h-85v96zM220 -80h84v-96h-84v96z" />
    <glyph glyph-name="uniFBFE" unicode="&#x6cc;" horiz-adv-x="321" arabic-form="initial" 
d="M0 0zM244 500v-500h-244v85h149v415h95zM87 -80h85v-96h-85v96zM221 -80h84v-96h-84v96z" />
    <glyph glyph-name="uniFBAF" unicode="&#x6d2;" horiz-adv-x="710" arabic-form="final" 
d="M138 0q-5 -25 -5 -42q0 -65 43 -91.5t134 -26.5h312v-85h-313q-93 0 -151.5 18t-88.5 61t-30 120q0 39 8 74.5t17 56.5h646v-85h-572z" />
    <glyph glyph-name="uniFBB1" unicode="&#x6d3;" horiz-adv-x="710" arabic-form="final" 
d="M39 0zM138 0q-5 -25 -5 -42q0 -65 43 -91.5t134 -26.5h312v-85h-313q-93 0 -151.5 18t-88.5 61t-30 120q0 39 8 74.5t17 56.5h646v-85h-572zM299 240l-209 -41l-10 36l48 13q-18 14 -27 33.5t-9 40.5q0 38 27 66t70 28q38 0 74 -24l-11 -45q-6 5 -18 10t-26 5
q-25 0 -41 -16.5t-16 -39.5q0 -28 24 -46l112 30z" />
    <glyph glyph-name="uniFC6A" unicode="&#xfc6a;" horiz-adv-x="740" arabic-form="final" 
d="M40 0zM740 85v-85h-218v414q-151 -7 -243 -21v-399q0 -118 -41 -180.5t-124 -62.5q-23 0 -50 3l-24 2v84q33 -3 54 -3q45 0 68 36t23 101v484q52 15 160 28.5t271 13.5v-415h124zM527 -80h91v-98h-91v98z" />
    <glyph glyph-name="uniFC6B" unicode="&#xfc6b;" horiz-adv-x="740" arabic-form="final" 
d="M40 0zM740 85v-85h-218v414q-151 -7 -243 -21v-399q0 -118 -41 -180.5t-124 -62.5q-23 0 -50 3l-24 2v84q33 -3 54 -3q45 0 68 36t23 101v484q52 15 160 28.5t271 13.5v-415h124zM527 -80h91v-98h-91v98zM186 691h91v-98h-91v98z" />
    <glyph glyph-name="uniFC6D" unicode="&#xfc6d;" horiz-adv-x="1013" arabic-form="final" 
d="M40 0zM360 500h-91v98h91v-98zM1013 85v-85h-218v414q-118 -4 -222 -19v-427q0 -66 -34.5 -115t-94 -75t-132.5 -26q-77 0 -139 28.5t-97.5 78.5t-35.5 112q0 69 39 303l90 -5q-15 -95 -25.5 -178.5t-10.5 -111.5q0 -40 23 -72.5t63.5 -51t89.5 -18.5q72 0 120.5 38.5
t48.5 103.5v483q164 38 411 38v-415h124zM799 -80h91v-98h-91v98z" />
    <glyph glyph-name="uniFC6E" unicode="&#xfc6e;" horiz-adv-x="1139" arabic-form="final" 
d="M40 0zM1139 85v-85h-218v416h-335q-137 0 -137 -100q0 -37 15.5 -58t48.5 -34t104 -31t111.5 -42t59 -61.5t18.5 -94.5q0 -115 -58.5 -179t-166.5 -64h-268q-72 0 -134.5 26.5t-100.5 77t-38 117.5q0 60 26 214l89 -14q-20 -138 -20 -182q0 -45 23 -80t62.5 -54.5
t87.5 -19.5h267q67 0 101 40t34 111q0 50 -32 77t-112 45q-81 19 -126.5 42.5t-66.5 60.5t-21 96q0 95 57.5 143t168.5 48h438v-415h123zM926 -80h91v-98h-91v98z" />
    <glyph glyph-name="uniFC6F" unicode="&#xfc6f;" horiz-adv-x="1139" arabic-form="final" 
d="M40 0zM1139 85v-85h-218v416h-335q-137 0 -137 -100q0 -37 15.5 -58t48.5 -34t104 -31t111.5 -42t59 -61.5t18.5 -94.5q0 -115 -58.5 -179t-166.5 -64h-268q-72 0 -134.5 26.5t-100.5 77t-38 117.5q0 60 26 214l89 -14q-20 -138 -20 -182q0 -45 23 -80t62.5 -54.5
t87.5 -19.5h267q67 0 101 40t34 111q0 50 -32 77t-112 45q-81 19 -126.5 42.5t-66.5 60.5t-21 96q0 95 57.5 143t168.5 48h438v-415h123zM926 -80h91v-98h-91v98zM316 -320h85v-96h-85v96zM450 -320h84v-96h-84v96z" />
    <glyph glyph-name="uniFC70" unicode="&#xfc70;" horiz-adv-x="740" arabic-form="final" 
d="M40 0zM740 85v-85h-218v414q-151 -7 -243 -21v-399q0 -118 -41 -180.5t-124 -62.5q-23 0 -50 3l-24 2v84q33 -3 54 -3q45 0 68 36t23 101v484q52 15 160 28.5t271 13.5v-415h124zM463 690h85v-97h-85v97zM597 690h84v-97h-84v97z" />
    <glyph glyph-name="uniFC71" unicode="&#xfc71;" horiz-adv-x="740" arabic-form="final" 
d="M40 0zM740 85v-85h-218v414q-151 -7 -243 -21v-399q0 -118 -41 -180.5t-124 -62.5q-23 0 -50 3l-24 2v84q33 -3 54 -3q45 0 68 36t23 101v484q52 15 160 28.5t271 13.5v-415h124zM463 690h85v-97h-85v97zM597 690h84v-97h-84v97zM186 691h91v-98h-91v98z" />
    <glyph glyph-name="uniFC73" unicode="&#xfc73;" horiz-adv-x="1013" arabic-form="final" 
d="M40 0zM360 500h-91v98h91v-98zM1013 85v-85h-218v414q-118 -4 -222 -19v-427q0 -66 -34.5 -115t-94 -75t-132.5 -26q-77 0 -139 28.5t-97.5 78.5t-35.5 112q0 69 39 303l90 -5q-15 -95 -25.5 -178.5t-10.5 -111.5q0 -40 23 -72.5t63.5 -51t89.5 -18.5q72 0 120.5 38.5
t48.5 103.5v483q164 38 411 38v-415h124zM735 690h85v-97h-85v97zM869 690h84v-97h-84v97z" />
    <glyph glyph-name="uniFC74" unicode="&#xfc74;" horiz-adv-x="1139" arabic-form="final" 
d="M40 0zM1139 85v-85h-218v416h-335q-137 0 -137 -100q0 -37 15.5 -58t48.5 -34t104 -31t111.5 -42t59 -61.5t18.5 -94.5q0 -115 -58.5 -179t-166.5 -64h-268q-72 0 -134.5 26.5t-100.5 77t-38 117.5q0 60 26 214l89 -14q-20 -138 -20 -182q0 -45 23 -80t62.5 -54.5
t87.5 -19.5h267q67 0 101 40t34 111q0 50 -32 77t-112 45q-81 19 -126.5 42.5t-66.5 60.5t-21 96q0 95 57.5 143t168.5 48h438v-415h123zM862 690h85v-97h-85v97zM996 690h84v-97h-84v97z" />
    <glyph glyph-name="uniFC75" unicode="&#xfc75;" horiz-adv-x="1139" arabic-form="final" 
d="M40 0zM1139 85v-85h-218v416h-335q-137 0 -137 -100q0 -37 15.5 -58t48.5 -34t104 -31t111.5 -42t59 -61.5t18.5 -94.5q0 -115 -58.5 -179t-166.5 -64h-268q-72 0 -134.5 26.5t-100.5 77t-38 117.5q0 60 26 214l89 -14q-20 -138 -20 -182q0 -45 23 -80t62.5 -54.5
t87.5 -19.5h267q67 0 101 40t34 111q0 50 -32 77t-112 45q-81 19 -126.5 42.5t-66.5 60.5t-21 96q0 95 57.5 143t168.5 48h438v-415h123zM862 690h85v-97h-85v97zM996 690h84v-97h-84v97zM316 -320h85v-96h-85v96zM450 -320h84v-96h-84v96z" />
    <glyph glyph-name="uniFC76" unicode="&#xfc76;" horiz-adv-x="740" arabic-form="final" 
d="M40 0zM740 85v-85h-218v414q-151 -7 -243 -21v-399q0 -118 -41 -180.5t-124 -62.5q-23 0 -50 3l-24 2v84q33 -3 54 -3q45 0 68 36t23 101v484q52 15 160 28.5t271 13.5v-415h124zM530 815h82v-91h-82v91zM462 688h85v-95h-85v95zM596 688h84v-95h-84v95z" />
    <glyph glyph-name="uniFC77" unicode="&#xfc77;" horiz-adv-x="740" arabic-form="final" 
d="M40 0zM740 85v-85h-218v414q-151 -7 -243 -21v-399q0 -118 -41 -180.5t-124 -62.5q-23 0 -50 3l-24 2v84q33 -3 54 -3q45 0 68 36t23 101v484q52 15 160 28.5t271 13.5v-415h124zM530 815h82v-91h-82v91zM462 688h85v-95h-85v95zM596 688h84v-95h-84v95zM186 691h91v-98
h-91v98z" />
    <glyph glyph-name="uniFC79" unicode="&#xfc79;" horiz-adv-x="1013" arabic-form="final" 
d="M40 0zM360 500h-91v98h91v-98zM1013 85v-85h-218v414q-118 -4 -222 -19v-427q0 -66 -34.5 -115t-94 -75t-132.5 -26q-77 0 -139 28.5t-97.5 78.5t-35.5 112q0 69 39 303l90 -5q-15 -95 -25.5 -178.5t-10.5 -111.5q0 -40 23 -72.5t63.5 -51t89.5 -18.5q72 0 120.5 38.5
t48.5 103.5v483q164 38 411 38v-415h124zM802 815h82v-91h-82v91zM734 688h85v-95h-85v95zM868 688h84v-95h-84v95z" />
    <glyph glyph-name="uniFC7A" unicode="&#xfc7a;" horiz-adv-x="1139" arabic-form="final" 
d="M40 0zM1139 85v-85h-218v416h-335q-137 0 -137 -100q0 -37 15.5 -58t48.5 -34t104 -31t111.5 -42t59 -61.5t18.5 -94.5q0 -115 -58.5 -179t-166.5 -64h-268q-72 0 -134.5 26.5t-100.5 77t-38 117.5q0 60 26 214l89 -14q-20 -138 -20 -182q0 -45 23 -80t62.5 -54.5
t87.5 -19.5h267q67 0 101 40t34 111q0 50 -32 77t-112 45q-81 19 -126.5 42.5t-66.5 60.5t-21 96q0 95 57.5 143t168.5 48h438v-415h123zM929 815h82v-91h-82v91zM861 688h85v-95h-85v95zM995 688h84v-95h-84v95z" />
    <glyph glyph-name="uniFC7B" unicode="&#xfc7b;" horiz-adv-x="1139" arabic-form="final" 
d="M40 0zM1139 85v-85h-218v416h-335q-137 0 -137 -100q0 -37 15.5 -58t48.5 -34t104 -31t111.5 -42t59 -61.5t18.5 -94.5q0 -115 -58.5 -179t-166.5 -64h-268q-72 0 -134.5 26.5t-100.5 77t-38 117.5q0 60 26 214l89 -14q-20 -138 -20 -182q0 -45 23 -80t62.5 -54.5
t87.5 -19.5h267q67 0 101 40t34 111q0 50 -32 77t-112 45q-81 19 -126.5 42.5t-66.5 60.5t-21 96q0 95 57.5 143t168.5 48h438v-415h123zM929 815h82v-91h-82v91zM861 688h85v-95h-85v95zM995 688h84v-95h-84v95zM316 -320h85v-96h-85v96zM450 -320h84v-96h-84v96z" />
    <glyph glyph-name="uniFD0E" unicode="&#xfd0e;" horiz-adv-x="1205" arabic-form="isolated" 
d="M1129.5 376.5q9.5 -64.5 9.5 -98.5v-278h-193q-62 0 -111 40q-38 -40 -97 -40h-208v414q-143 -5 -251 -21v-399q0 -118 -41 -180.5t-124 -62.5q-23 0 -50 3l-24 2v84q33 -3 54 -3q45 0 68 36t23 101v484q51 15 163.5 28.5t276.5 13.5v-415h82q44 0 64.5 37t20.5 93v235
h95v-234q0 -57 -13 -102q13 -11 33.5 -20t40.5 -9h96v192q0 72 -16 219l80 4q12 -59 21.5 -123.5z" />
    <glyph glyph-name="uniFD2A" unicode="&#xfd2a;" horiz-adv-x="1255" arabic-form="final" 
d="M1255 85v-85h-309q-62 0 -111 40q-38 -40 -97 -40h-208v414q-143 -5 -251 -21v-399q0 -118 -41 -180.5t-124 -62.5q-23 0 -50 3l-24 2v84q33 -3 54 -3q45 0 68 36t23 101v484q51 15 163.5 28.5t276.5 13.5v-415h82q44 0 64.5 37t20.5 93v235h95v-234q0 -57 -13 -102
q13 -11 33.5 -20t40.5 -9h96v192q0 72 -16 219l80 4q12 -59 21.5 -123.5t9.5 -98.5v-193h116z" />
    <glyph glyph-name="uniFCFB" unicode="&#xfcfb;" horiz-adv-x="1596" arabic-form="isolated" 
d="M1520 377.5q9 -65.5 9 -99.5v-278h-192q-61 0 -112 40q-37 -40 -96 -40h-208v416h-335q-137 0 -137 -100q0 -37 15.5 -58t48.5 -34t104 -31t111.5 -42t59 -61.5t18.5 -94.5q0 -115 -58.5 -179t-166.5 -64h-268q-72 0 -134.5 26.5t-100.5 77t-38 117.5q0 60 26 214l89 -14
q-20 -138 -20 -182q0 -45 23 -80t62.5 -54.5t87.5 -19.5h267q67 0 101 40t34 111q0 50 -32 77t-112 45q-81 19 -126.5 42.5t-66.5 60.5t-21 96q0 95 57.5 143t168.5 48h438v-415h82q44 0 64.5 37t20.5 93v235h94v-234q0 -58 -13 -101q14 -11 34.5 -20.5t40.5 -9.5h96v193
q0 48 -6 111t-7 79l-3 29l80 3q12 -57 21 -122.5z" />
    <glyph glyph-name="uniFD17" unicode="&#xfd17;" horiz-adv-x="1642" arabic-form="final" 
d="M1642 85v-85h-305q-61 0 -112 40q-37 -40 -96 -40h-208v416h-335q-137 0 -137 -100q0 -37 15.5 -58t48.5 -34t104 -31t111.5 -42t59 -61.5t18.5 -94.5q0 -115 -58.5 -179t-166.5 -64h-268q-72 0 -134.5 26.5t-100.5 77t-38 117.5q0 60 26 214l89 -14q-20 -138 -20 -182
q0 -45 23 -80t62.5 -54.5t87.5 -19.5h267q67 0 101 40t34 111q0 50 -32 77t-112 45q-81 19 -126.5 42.5t-66.5 60.5t-21 96q0 95 57.5 143t168.5 48h438v-415h82q44 0 64.5 37t20.5 93v235h94v-234q0 -58 -13 -101q14 -11 34.5 -20.5t40.5 -9.5h96v193q0 48 -6 111t-7 79
l-3 29l80 3q12 -57 21 -122.5t9 -99.5v-193h113z" />
    <glyph glyph-name="uniFCFC" unicode="&#xfcfc;" horiz-adv-x="1596" arabic-form="isolated" 
d="M40 0zM1520 377.5q9 -65.5 9 -99.5v-278h-192q-61 0 -112 40q-37 -40 -96 -40h-208v416h-335q-137 0 -137 -100q0 -37 15.5 -58t48.5 -34t104 -31t111.5 -42t59 -61.5t18.5 -94.5q0 -115 -58.5 -179t-166.5 -64h-268q-72 0 -134.5 26.5t-100.5 77t-38 117.5q0 60 26 214
l89 -14q-20 -138 -20 -182q0 -45 23 -80t62.5 -54.5t87.5 -19.5h267q67 0 101 40t34 111q0 50 -32 77t-112 45q-81 19 -126.5 42.5t-66.5 60.5t-21 96q0 95 57.5 143t168.5 48h438v-415h82q44 0 64.5 37t20.5 93v235h94v-234q0 -58 -13 -101q14 -11 34.5 -20.5t40.5 -9.5h96
v193q0 48 -6 111t-7 79l-3 29l80 3q12 -57 21 -122.5zM316 -320h85v-96h-85v96zM450 -320h84v-96h-84v96z" />
    <glyph glyph-name="uniFD18" unicode="&#xfd18;" horiz-adv-x="1642" arabic-form="final" 
d="M40 0zM1642 85v-85h-305q-61 0 -112 40q-37 -40 -96 -40h-208v416h-335q-137 0 -137 -100q0 -37 15.5 -58t48.5 -34t104 -31t111.5 -42t59 -61.5t18.5 -94.5q0 -115 -58.5 -179t-166.5 -64h-268q-72 0 -134.5 26.5t-100.5 77t-38 117.5q0 60 26 214l89 -14
q-20 -138 -20 -182q0 -45 23 -80t62.5 -54.5t87.5 -19.5h267q67 0 101 40t34 111q0 50 -32 77t-112 45q-81 19 -126.5 42.5t-66.5 60.5t-21 96q0 95 57.5 143t168.5 48h438v-415h82q44 0 64.5 37t20.5 93v235h94v-234q0 -58 -13 -101q14 -11 34.5 -20.5t40.5 -9.5h96v193
q0 48 -6 111t-7 79l-3 29l80 3q12 -57 21 -122.5t9 -99.5v-193h113zM316 -320h85v-96h-85v96zM450 -320h84v-96h-84v96z" />
    <glyph glyph-name="uniFD0D" unicode="&#xfd0d;" horiz-adv-x="1205" arabic-form="isolated" 
d="M40 0zM1129.5 376.5q9.5 -64.5 9.5 -98.5v-278h-193q-62 0 -111 40q-38 -40 -97 -40h-208v414q-143 -5 -251 -21v-399q0 -118 -41 -180.5t-124 -62.5q-23 0 -50 3l-24 2v84q33 -3 54 -3q45 0 68 36t23 101v484q51 15 163.5 28.5t276.5 13.5v-415h82q44 0 64.5 37t20.5 93
v235h95v-234q0 -57 -13 -102q13 -11 33.5 -20t40.5 -9h96v192q0 72 -16 219l80 4q12 -59 21.5 -123.5zM797 815h82v-91h-82v91zM729 688h85v-95h-85v95zM863 688h84v-95h-84v95z" />
    <glyph glyph-name="uniFD29" unicode="&#xfd29;" horiz-adv-x="1255" arabic-form="final" 
d="M40 0zM1255 85v-85h-309q-62 0 -111 40q-38 -40 -97 -40h-208v414q-143 -5 -251 -21v-399q0 -118 -41 -180.5t-124 -62.5q-23 0 -50 3l-24 2v84q33 -3 54 -3q45 0 68 36t23 101v484q51 15 163.5 28.5t276.5 13.5v-415h82q44 0 64.5 37t20.5 93v235h95v-234
q0 -57 -13 -102q13 -11 33.5 -20t40.5 -9h96v192q0 72 -16 219l80 4q12 -59 21.5 -123.5t9.5 -98.5v-193h116zM789 815h82v-91h-82v91zM721 688h85v-95h-85v95zM855 688h84v-95h-84v95z" />
    <glyph glyph-name="uniFCFD" unicode="&#xfcfd;" horiz-adv-x="1596" arabic-form="isolated" 
d="M40 0zM1520 377.5q9 -65.5 9 -99.5v-278h-192q-61 0 -112 40q-37 -40 -96 -40h-208v416h-335q-137 0 -137 -100q0 -37 15.5 -58t48.5 -34t104 -31t111.5 -42t59 -61.5t18.5 -94.5q0 -115 -58.5 -179t-166.5 -64h-268q-72 0 -134.5 26.5t-100.5 77t-38 117.5q0 60 26 214
l89 -14q-20 -138 -20 -182q0 -45 23 -80t62.5 -54.5t87.5 -19.5h267q67 0 101 40t34 111q0 50 -32 77t-112 45q-81 19 -126.5 42.5t-66.5 60.5t-21 96q0 95 57.5 143t168.5 48h438v-415h82q44 0 64.5 37t20.5 93v235h94v-234q0 -58 -13 -101q14 -11 34.5 -20.5t40.5 -9.5h96
v193q0 48 -6 111t-7 79l-3 29l80 3q12 -57 21 -122.5zM1188 815h82v-91h-82v91zM1120 688h85v-95h-85v95zM1254 688h84v-95h-84v95z" />
    <glyph glyph-name="uniFD19" unicode="&#xfd19;" horiz-adv-x="1642" arabic-form="final" 
d="M40 0zM1642 85v-85h-305q-61 0 -112 40q-37 -40 -96 -40h-208v416h-335q-137 0 -137 -100q0 -37 15.5 -58t48.5 -34t104 -31t111.5 -42t59 -61.5t18.5 -94.5q0 -115 -58.5 -179t-166.5 -64h-268q-72 0 -134.5 26.5t-100.5 77t-38 117.5q0 60 26 214l89 -14
q-20 -138 -20 -182q0 -45 23 -80t62.5 -54.5t87.5 -19.5h267q67 0 101 40t34 111q0 50 -32 77t-112 45q-81 19 -126.5 42.5t-66.5 60.5t-21 96q0 95 57.5 143t168.5 48h438v-415h82q44 0 64.5 37t20.5 93v235h94v-234q0 -58 -13 -101q14 -11 34.5 -20.5t40.5 -9.5h96v193
q0 48 -6 111t-7 79l-3 29l80 3q12 -57 21 -122.5t9 -99.5v-193h113zM1188 829h82v-91h-82v91zM1120 702h85v-95h-85v95zM1254 702h84v-95h-84v95z" />
    <glyph glyph-name="uniFCFE" unicode="&#xfcfe;" horiz-adv-x="1596" arabic-form="isolated" 
d="M40 0zM1520 377.5q9 -65.5 9 -99.5v-278h-192q-61 0 -112 40q-37 -40 -96 -40h-208v416h-335q-137 0 -137 -100q0 -37 15.5 -58t48.5 -34t104 -31t111.5 -42t59 -61.5t18.5 -94.5q0 -115 -58.5 -179t-166.5 -64h-268q-72 0 -134.5 26.5t-100.5 77t-38 117.5q0 60 26 214
l89 -14q-20 -138 -20 -182q0 -45 23 -80t62.5 -54.5t87.5 -19.5h267q67 0 101 40t34 111q0 50 -32 77t-112 45q-81 19 -126.5 42.5t-66.5 60.5t-21 96q0 95 57.5 143t168.5 48h438v-415h82q44 0 64.5 37t20.5 93v235h94v-234q0 -58 -13 -101q14 -11 34.5 -20.5t40.5 -9.5h96
v193q0 48 -6 111t-7 79l-3 29l80 3q12 -57 21 -122.5zM1188 815h82v-91h-82v91zM1120 688h85v-95h-85v95zM1254 688h84v-95h-84v95zM316 -320h85v-96h-85v96zM450 -320h84v-96h-84v96z" />
    <glyph glyph-name="uniFD1A" unicode="&#xfd1a;" horiz-adv-x="1642" arabic-form="final" 
d="M40 0zM1642 85v-85h-305q-61 0 -112 40q-37 -40 -96 -40h-208v416h-335q-137 0 -137 -100q0 -37 15.5 -58t48.5 -34t104 -31t111.5 -42t59 -61.5t18.5 -94.5q0 -115 -58.5 -179t-166.5 -64h-268q-72 0 -134.5 26.5t-100.5 77t-38 117.5q0 60 26 214l89 -14
q-20 -138 -20 -182q0 -45 23 -80t62.5 -54.5t87.5 -19.5h267q67 0 101 40t34 111q0 50 -32 77t-112 45q-81 19 -126.5 42.5t-66.5 60.5t-21 96q0 95 57.5 143t168.5 48h438v-415h82q44 0 64.5 37t20.5 93v235h94v-234q0 -58 -13 -101q14 -11 34.5 -20.5t40.5 -9.5h96v193
q0 48 -6 111t-7 79l-3 29l80 3q12 -57 21 -122.5t9 -99.5v-193h113zM1188 829h82v-91h-82v91zM1120 702h85v-95h-85v95zM1254 702h84v-95h-84v95zM316 -320h85v-96h-85v96zM450 -320h84v-96h-84v96z" />
    <glyph glyph-name="uniFD0F" unicode="&#xfd0f;" horiz-adv-x="1205" arabic-form="isolated" 
d="M1083.5 432.5q52.5 -77.5 52.5 -181.5v-251h-606v414q-146 -5 -251 -21v-399q0 -118 -41 -180.5t-124 -62.5q-23 0 -50 3l-24 2v84q33 -3 54 -3q45 0 68 36t23 101v484q51 15 163.5 28.5t276.5 13.5v-160q45 56 81.5 91t85.5 57t113 22q126 0 178.5 -77.5zM625 220v-135
h416v150q0 81 -38.5 135.5t-112.5 54.5q-137 0 -265 -205z" />
    <glyph glyph-name="uniFD2B" unicode="&#xfd2b;" horiz-adv-x="1221" arabic-form="final" 
d="M1221 85v-85h-691v414q-146 -5 -251 -21v-399q0 -118 -41 -180.5t-124 -62.5q-23 0 -50 3l-24 2v84q33 -3 54 -3q45 0 68 36t23 101v484q51 15 163.5 28.5t276.5 13.5v-160q45 56 81.5 91t85.5 57t113 22q126 0 178.5 -77.5t52.5 -181.5v-166h85zM625 220v-135h416v150
q0 81 -38.5 135.5t-112.5 54.5q-137 0 -265 -205z" />
    <glyph glyph-name="uniFD05" unicode="&#xfd05;" horiz-adv-x="1596" arabic-form="isolated" 
d="M1474.5 432.5q52.5 -77.5 52.5 -181.5v-251h-606v416h-335q-137 0 -137 -100q0 -37 15.5 -58t48.5 -34t104 -31t111.5 -42t59 -61.5t18.5 -94.5q0 -115 -58.5 -179t-166.5 -64h-268q-72 0 -134.5 26.5t-100.5 77t-38 117.5q0 60 26 214l89 -14q-20 -138 -20 -182
q0 -45 23 -80t62.5 -54.5t87.5 -19.5h267q67 0 101 40t34 111q0 50 -32 77t-112 45q-81 19 -126.5 42.5t-66.5 60.5t-21 96q0 95 57.5 143t168.5 48h438v-160q45 56 81.5 91t85.5 57t113 22q126 0 178.5 -77.5zM1016 220v-135h416v150q0 81 -39 135.5t-113 54.5
q-136 0 -264 -205z" />
    <glyph glyph-name="uniFD21" unicode="&#xfd21;" horiz-adv-x="1641" arabic-form="final" 
d="M1641 85v-85h-720v416h-335q-137 0 -137 -100q0 -37 15.5 -58t48.5 -34t104 -31t111.5 -42t59 -61.5t18.5 -94.5q0 -115 -58.5 -179t-166.5 -64h-268q-72 0 -134.5 26.5t-100.5 77t-38 117.5q0 60 26 214l89 -14q-20 -138 -20 -182q0 -45 23 -80t62.5 -54.5t87.5 -19.5
h267q67 0 101 40t34 111q0 50 -32 77t-112 45q-81 19 -126.5 42.5t-66.5 60.5t-21 96q0 95 57.5 143t168.5 48h438v-160q45 56 81.5 91t85.5 57t113 22q126 0 178.5 -77.5t52.5 -181.5v-166h114zM1016 220v-135h416v150q0 81 -39 135.5t-113 54.5q-136 0 -264 -205z" />
    <glyph glyph-name="uniFD06" unicode="&#xfd06;" horiz-adv-x="1596" arabic-form="isolated" 
d="M40 0zM1474.5 432.5q52.5 -77.5 52.5 -181.5v-251h-606v416h-335q-137 0 -137 -100q0 -37 15.5 -58t48.5 -34t104 -31t111.5 -42t59 -61.5t18.5 -94.5q0 -115 -58.5 -179t-166.5 -64h-268q-72 0 -134.5 26.5t-100.5 77t-38 117.5q0 60 26 214l89 -14q-20 -138 -20 -182
q0 -45 23 -80t62.5 -54.5t87.5 -19.5h267q67 0 101 40t34 111q0 50 -32 77t-112 45q-81 19 -126.5 42.5t-66.5 60.5t-21 96q0 95 57.5 143t168.5 48h438v-160q45 56 81.5 91t85.5 57t113 22q126 0 178.5 -77.5zM1016 220v-135h416v150q0 81 -39 135.5t-113 54.5
q-136 0 -264 -205zM316 -320h85v-96h-85v96zM450 -320h84v-96h-84v96z" />
    <glyph glyph-name="uniFD22" unicode="&#xfd22;" horiz-adv-x="1641" arabic-form="final" 
d="M40 0zM1641 85v-85h-720v416h-335q-137 0 -137 -100q0 -37 15.5 -58t48.5 -34t104 -31t111.5 -42t59 -61.5t18.5 -94.5q0 -115 -58.5 -179t-166.5 -64h-268q-72 0 -134.5 26.5t-100.5 77t-38 117.5q0 60 26 214l89 -14q-20 -138 -20 -182q0 -45 23 -80t62.5 -54.5
t87.5 -19.5h267q67 0 101 40t34 111q0 50 -32 77t-112 45q-81 19 -126.5 42.5t-66.5 60.5t-21 96q0 95 57.5 143t168.5 48h438v-160q45 56 81.5 91t85.5 57t113 22q126 0 178.5 -77.5t52.5 -181.5v-166h114zM1016 220v-135h416v150q0 81 -39 135.5t-113 54.5
q-136 0 -264 -205zM316 -320h85v-96h-85v96zM450 -320h84v-96h-84v96z" />
    <glyph glyph-name="uniFD10" unicode="&#xfd10;" horiz-adv-x="1205" arabic-form="isolated" 
d="M40 0zM1083.5 432.5q52.5 -77.5 52.5 -181.5v-251h-606v414q-146 -5 -251 -21v-399q0 -118 -41 -180.5t-124 -62.5q-23 0 -50 3l-24 2v84q33 -3 54 -3q45 0 68 36t23 101v484q51 15 163.5 28.5t276.5 13.5v-160q45 56 81.5 91t85.5 57t113 22q126 0 178.5 -77.5zM625 220
v-135h416v150q0 81 -38.5 135.5t-112.5 54.5q-137 0 -265 -205zM800 691h91v-98h-91v98z" />
    <glyph glyph-name="uniFD2C" unicode="&#xfd2c;" horiz-adv-x="1221" arabic-form="final" 
d="M40 0zM1221 85v-85h-691v414q-146 -5 -251 -21v-399q0 -118 -41 -180.5t-124 -62.5q-23 0 -50 3l-24 2v84q33 -3 54 -3q45 0 68 36t23 101v484q51 15 163.5 28.5t276.5 13.5v-160q45 56 81.5 91t85.5 57t113 22q126 0 178.5 -77.5t52.5 -181.5v-166h85zM625 220v-135h416
v150q0 81 -38.5 135.5t-112.5 54.5q-137 0 -265 -205zM800 691h91v-98h-91v98z" />
    <glyph glyph-name="uniFD07" unicode="&#xfd07;" horiz-adv-x="1596" arabic-form="isolated" 
d="M40 0zM1474.5 432.5q52.5 -77.5 52.5 -181.5v-251h-606v416h-335q-137 0 -137 -100q0 -37 15.5 -58t48.5 -34t104 -31t111.5 -42t59 -61.5t18.5 -94.5q0 -115 -58.5 -179t-166.5 -64h-268q-72 0 -134.5 26.5t-100.5 77t-38 117.5q0 60 26 214l89 -14q-20 -138 -20 -182
q0 -45 23 -80t62.5 -54.5t87.5 -19.5h267q67 0 101 40t34 111q0 50 -32 77t-112 45q-81 19 -126.5 42.5t-66.5 60.5t-21 96q0 95 57.5 143t168.5 48h438v-160q45 56 81.5 91t85.5 57t113 22q126 0 178.5 -77.5zM1016 220v-135h416v150q0 81 -39 135.5t-113 54.5
q-136 0 -264 -205zM1211 691h91v-98h-91v98z" />
    <glyph glyph-name="uniFD23" unicode="&#xfd23;" horiz-adv-x="1641" arabic-form="final" 
d="M40 0zM1641 85v-85h-720v416h-335q-137 0 -137 -100q0 -37 15.5 -58t48.5 -34t104 -31t111.5 -42t59 -61.5t18.5 -94.5q0 -115 -58.5 -179t-166.5 -64h-268q-72 0 -134.5 26.5t-100.5 77t-38 117.5q0 60 26 214l89 -14q-20 -138 -20 -182q0 -45 23 -80t62.5 -54.5
t87.5 -19.5h267q67 0 101 40t34 111q0 50 -32 77t-112 45q-81 19 -126.5 42.5t-66.5 60.5t-21 96q0 95 57.5 143t168.5 48h438v-160q45 56 81.5 91t85.5 57t113 22q126 0 178.5 -77.5t52.5 -181.5v-166h114zM1016 220v-135h416v150q0 81 -39 135.5t-113 54.5
q-136 0 -264 -205zM1211 691h91v-98h-91v98z" />
    <glyph glyph-name="uniFD08" unicode="&#xfd08;" horiz-adv-x="1596" arabic-form="isolated" 
d="M40 0zM1474.5 432.5q52.5 -77.5 52.5 -181.5v-251h-606v416h-335q-137 0 -137 -100q0 -37 15.5 -58t48.5 -34t104 -31t111.5 -42t59 -61.5t18.5 -94.5q0 -115 -58.5 -179t-166.5 -64h-268q-72 0 -134.5 26.5t-100.5 77t-38 117.5q0 60 26 214l89 -14q-20 -138 -20 -182
q0 -45 23 -80t62.5 -54.5t87.5 -19.5h267q67 0 101 40t34 111q0 50 -32 77t-112 45q-81 19 -126.5 42.5t-66.5 60.5t-21 96q0 95 57.5 143t168.5 48h438v-160q45 56 81.5 91t85.5 57t113 22q126 0 178.5 -77.5zM1016 220v-135h416v150q0 81 -39 135.5t-113 54.5
q-136 0 -264 -205zM1211 691h91v-98h-91v98zM316 -320h85v-96h-85v96zM450 -320h84v-96h-84v96z" />
    <glyph glyph-name="uniFD24" unicode="&#xfd24;" horiz-adv-x="1641" arabic-form="final" 
d="M40 0zM1641 85v-85h-720v416h-335q-137 0 -137 -100q0 -37 15.5 -58t48.5 -34t104 -31t111.5 -42t59 -61.5t18.5 -94.5q0 -115 -58.5 -179t-166.5 -64h-268q-72 0 -134.5 26.5t-100.5 77t-38 117.5q0 60 26 214l89 -14q-20 -138 -20 -182q0 -45 23 -80t62.5 -54.5
t87.5 -19.5h267q67 0 101 40t34 111q0 50 -32 77t-112 45q-81 19 -126.5 42.5t-66.5 60.5t-21 96q0 95 57.5 143t168.5 48h438v-160q45 56 81.5 91t85.5 57t113 22q126 0 178.5 -77.5t52.5 -181.5v-166h114zM1016 220v-135h416v150q0 81 -39 135.5t-113 54.5
q-136 0 -264 -205zM1211 691h91v-98h-91v98zM316 -320h85v-96h-85v96zM450 -320h84v-96h-84v96z" />
    <glyph glyph-name="uniFC8A" unicode="&#xfc8a;" horiz-adv-x="740" arabic-form="final" 
d="M40 0zM740 85v-85h-218v414q-151 -7 -243 -21v-399q0 -118 -41 -180.5t-124 -62.5q-23 0 -50 3l-24 2v84q33 -3 54 -3q45 0 68 36t23 101v484q52 15 160 28.5t271 13.5v-415h124zM527 691h91v-98h-91v98z" />
    <glyph glyph-name="uniFC8B" unicode="&#xfc8b;" horiz-adv-x="740" arabic-form="final" 
d="M40 0zM740 85v-85h-218v414q-151 -7 -243 -21v-399q0 -118 -41 -180.5t-124 -62.5q-23 0 -50 3l-24 2v84q33 -3 54 -3q45 0 68 36t23 101v484q52 15 160 28.5t271 13.5v-415h124zM527 691h91v-98h-91v98zM186 691h91v-98h-91v98z" />
    <glyph glyph-name="uniFC8D" unicode="&#xfc8d;" horiz-adv-x="1013" arabic-form="final" 
d="M40 0zM360 500h-91v98h91v-98zM1013 85v-85h-218v414q-118 -4 -222 -19v-427q0 -66 -34.5 -115t-94 -75t-132.5 -26q-77 0 -139 28.5t-97.5 78.5t-35.5 112q0 69 39 303l90 -5q-15 -95 -25.5 -178.5t-10.5 -111.5q0 -40 23 -72.5t63.5 -51t89.5 -18.5q72 0 120.5 38.5
t48.5 103.5v483q164 38 411 38v-415h124zM799 691h91v-98h-91v98z" />
    <glyph glyph-name="uniFC8E" unicode="&#xfc8e;" horiz-adv-x="1139" arabic-form="final" 
d="M40 0zM1139 85v-85h-218v416h-335q-137 0 -137 -100q0 -37 15.5 -58t48.5 -34t104 -31t111.5 -42t59 -61.5t18.5 -94.5q0 -115 -58.5 -179t-166.5 -64h-268q-72 0 -134.5 26.5t-100.5 77t-38 117.5q0 60 26 214l89 -14q-20 -138 -20 -182q0 -45 23 -80t62.5 -54.5
t87.5 -19.5h267q67 0 101 40t34 111q0 50 -32 77t-112 45q-81 19 -126.5 42.5t-66.5 60.5t-21 96q0 95 57.5 143t168.5 48h438v-415h123zM926 691h91v-98h-91v98z" />
    <glyph glyph-name="uniFC8F" unicode="&#xfc8f;" horiz-adv-x="1139" arabic-form="final" 
d="M40 0zM1139 85v-85h-218v416h-335q-137 0 -137 -100q0 -37 15.5 -58t48.5 -34t104 -31t111.5 -42t59 -61.5t18.5 -94.5q0 -115 -58.5 -179t-166.5 -64h-268q-72 0 -134.5 26.5t-100.5 77t-38 117.5q0 60 26 214l89 -14q-20 -138 -20 -182q0 -45 23 -80t62.5 -54.5
t87.5 -19.5h267q67 0 101 40t34 111q0 50 -32 77t-112 45q-81 19 -126.5 42.5t-66.5 60.5t-21 96q0 95 57.5 143t168.5 48h438v-415h123zM926 691h91v-98h-91v98zM316 -320h85v-96h-85v96zM450 -320h84v-96h-84v96z" />
    <glyph glyph-name="uniFC91" unicode="&#xfc91;" horiz-adv-x="740" arabic-form="final" 
d="M40 0zM740 85v-85h-218v414q-151 -7 -243 -21v-399q0 -118 -41 -180.5t-124 -62.5q-23 0 -50 3l-24 2v84q33 -3 54 -3q45 0 68 36t23 101v484q52 15 160 28.5t271 13.5v-415h124zM462 -80h85v-96h-85v96zM596 -80h84v-96h-84v96z" />
    <glyph glyph-name="uniFC92" unicode="&#xfc92;" horiz-adv-x="740" arabic-form="final" 
d="M40 0zM740 85v-85h-218v414q-151 -7 -243 -21v-399q0 -118 -41 -180.5t-124 -62.5q-23 0 -50 3l-24 2v84q33 -3 54 -3q45 0 68 36t23 101v484q52 15 160 28.5t271 13.5v-415h124zM462 -80h85v-96h-85v96zM596 -80h84v-96h-84v96zM186 691h91v-98h-91v98z" />
    <glyph glyph-name="uniFC94" unicode="&#xfc94;" horiz-adv-x="1013" arabic-form="final" 
d="M40 0zM360 500h-91v98h91v-98zM1013 85v-85h-218v414q-118 -4 -222 -19v-427q0 -66 -34.5 -115t-94 -75t-132.5 -26q-77 0 -139 28.5t-97.5 78.5t-35.5 112q0 69 39 303l90 -5q-15 -95 -25.5 -178.5t-10.5 -111.5q0 -40 23 -72.5t63.5 -51t89.5 -18.5q72 0 120.5 38.5
t48.5 103.5v483q164 38 411 38v-415h124zM734 -80h85v-96h-85v96zM868 -80h84v-96h-84v96z" />
    <glyph glyph-name="uniFC64" unicode="&#xfc64;" horiz-adv-x="740" arabic-form="final" 
d="M40 0zM740 85v-85h-218v414q-151 -7 -243 -21v-399q0 -118 -41 -180.5t-124 -62.5q-23 0 -50 3l-24 2v84q33 -3 54 -3q45 0 68 36t23 101v484q52 15 160 28.5t271 13.5v-415h124zM678 644l-209 -41l-10 36l48 13q-18 14 -27 33.5t-9 40.5q0 38 27 66t70 28q38 0 74 -24
l-11 -45q-6 5 -18 10t-26 5q-25 0 -41 -16.5t-16 -39.5q0 -28 24 -46l112 30z" />
    <glyph glyph-name="uniFC65" unicode="&#xfc65;" horiz-adv-x="740" arabic-form="final" 
d="M40 0zM740 85v-85h-218v414q-151 -7 -243 -21v-399q0 -118 -41 -180.5t-124 -62.5q-23 0 -50 3l-24 2v84q33 -3 54 -3q45 0 68 36t23 101v484q52 15 160 28.5t271 13.5v-415h124zM678 644l-209 -41l-10 36l48 13q-18 14 -27 33.5t-9 40.5q0 38 27 66t70 28q38 0 74 -24
l-11 -45q-6 5 -18 10t-26 5q-25 0 -41 -16.5t-16 -39.5q0 -28 24 -46l112 30zM186 691h91v-98h-91v98z" />
    <glyph glyph-name="uniFC67" unicode="&#xfc67;" horiz-adv-x="1013" arabic-form="final" 
d="M40 0zM360 500h-91v98h91v-98zM1013 85v-85h-218v414q-118 -4 -222 -19v-427q0 -66 -34.5 -115t-94 -75t-132.5 -26q-77 0 -139 28.5t-97.5 78.5t-35.5 112q0 69 39 303l90 -5q-15 -95 -25.5 -178.5t-10.5 -111.5q0 -40 23 -72.5t63.5 -51t89.5 -18.5q72 0 120.5 38.5
t48.5 103.5v483q164 38 411 38v-415h124zM950 644l-209 -41l-10 36l48 13q-18 14 -27 33.5t-9 40.5q0 38 27 66t70 28q38 0 74 -24l-11 -45q-6 5 -18 10t-26 5q-25 0 -41 -16.5t-16 -39.5q0 -28 24 -46l112 30z" />
    <glyph glyph-name="uniFC68" unicode="&#xfc68;" horiz-adv-x="1139" arabic-form="final" 
d="M40 0zM1139 85v-85h-218v416h-335q-137 0 -137 -100q0 -37 15.5 -58t48.5 -34t104 -31t111.5 -42t59 -61.5t18.5 -94.5q0 -115 -58.5 -179t-166.5 -64h-268q-72 0 -134.5 26.5t-100.5 77t-38 117.5q0 60 26 214l89 -14q-20 -138 -20 -182q0 -45 23 -80t62.5 -54.5
t87.5 -19.5h267q67 0 101 40t34 111q0 50 -32 77t-112 45q-81 19 -126.5 42.5t-66.5 60.5t-21 96q0 95 57.5 143t168.5 48h438v-415h123zM1077 644l-209 -41l-10 36l48 13q-18 14 -27 33.5t-9 40.5q0 38 27 66t70 28q38 0 74 -24l-11 -45q-6 5 -18 10t-26 5q-25 0 -41 -16.5
t-16 -39.5q0 -28 24 -46l112 30z" />
    <glyph glyph-name="uniFC69" unicode="&#xfc69;" horiz-adv-x="1139" arabic-form="final" 
d="M40 0zM1139 85v-85h-218v416h-335q-137 0 -137 -100q0 -37 15.5 -58t48.5 -34t104 -31t111.5 -42t59 -61.5t18.5 -94.5q0 -115 -58.5 -179t-166.5 -64h-268q-72 0 -134.5 26.5t-100.5 77t-38 117.5q0 60 26 214l89 -14q-20 -138 -20 -182q0 -45 23 -80t62.5 -54.5
t87.5 -19.5h267q67 0 101 40t34 111q0 50 -32 77t-112 45q-81 19 -126.5 42.5t-66.5 60.5t-21 96q0 95 57.5 143t168.5 48h438v-415h123zM1077 644l-209 -41l-10 36l48 13q-18 14 -27 33.5t-9 40.5q0 38 27 66t70 28q38 0 74 -24l-11 -45q-6 5 -18 10t-26 5q-25 0 -41 -16.5
t-16 -39.5q0 -28 24 -46l112 30zM316 -320h85v-96h-85v96zM450 -320h84v-96h-84v96z" />
    <glyph glyph-name=".notdef" horiz-adv-x="235" 
 />
    <glyph glyph-name="nonmarkingreturn" horiz-adv-x="235" 
 />
    <glyph glyph-name="space" unicode=" " horiz-adv-x="220" 
 />
    <glyph glyph-name="uni0000" horiz-adv-x="0" 
 />
    <glyph glyph-name="uni0000" horiz-adv-x="0" 
 />
    <glyph glyph-name="uni000D" unicode="&#xd;" horiz-adv-x="333" 
 />
    <glyph glyph-name="exclam" unicode="!" horiz-adv-x="257" 
d="M79 688h100l-8 -453h-84zM78 127h102v-127h-102v127z" />
    <glyph glyph-name="quotedbl" unicode="&#x22;" horiz-adv-x="385" 
d="M64 688h91l-5 -227h-83zM231 688h92l-6 -227h-83z" />
    <glyph glyph-name="numbersign" unicode="#" 
d="M128 166h-106v79h106v168h-106v78h106v173h83v-173h138v173h83v-173h106v-78h-106v-168h106v-79h-106v-166h-83v166h-138v-166h-83v166zM349 245v168h-138v-168h138z" />
    <glyph glyph-name="dollar" unicode="$" 
d="M199 -119l14 113q-68 7 -126 17l-17 3l9 74q78 -11 144 -15l30 227q-71 18 -111.5 40.5t-59 57.5t-18.5 90q0 97 53.5 140t162.5 43l20 -1l17 132h58l-17 -136q17 -2 48 -5.5t59 -7.5l20 -4l-8 -75l-30 3q-73 8 -99 10l-27 -211q68 -18 105.5 -38.5t54.5 -53t17 -87.5
q0 -103 -55 -155t-161 -52h-11l-14 -116q-58 3 -58 7zM289 589q-72 -1 -102.5 -22t-30.5 -74q0 -44 22.5 -64.5t85.5 -37.5zM406 189q0 43 -20.5 62t-75.5 35l-28 -214q124 1 124 117z" />
    <glyph glyph-name="percent" unicode="%" 
d="M146 -5l214 692l56 -20l-215 -689zM53 424q-29 36 -29 107q0 140 113 140t113 -140q0 -71 -29 -107t-84 -36t-84 36zM168 468.5q10 20.5 10 63.5q0 40 -10 59.5t-31 19.5t-31 -19.5t-10 -59.5q0 -84 41 -84q21 0 31 20.5zM340 25.5q-29 36.5 -29 107.5q0 139 113 139
q112 0 112 -139q0 -71 -29 -107.5t-84 -36.5q-54 0 -83 36.5zM455 69.5q10 20.5 10 62.5t-9.5 61t-31.5 19t-31.5 -19t-9.5 -60q0 -43 10 -63.5t31 -20.5t31 20.5z" />
    <glyph glyph-name="ampersand" unicode="&#x26;" horiz-adv-x="692" 
d="M97.5 43.5q-57.5 54.5 -57.5 157.5q0 83 36 129t115 73q-33 37 -46.5 69t-13.5 72q0 80 48 120t137 40t135 -39.5t46 -117.5q0 -64 -33.5 -106t-114.5 -84l135 -134q9 26 16 67t9 84l91 -1q-16 -128 -48 -207l124 -114l-55 -62l-116 105q-41 -57 -93 -81.5t-131 -24.5
q-126 0 -183.5 54.5zM379 468.5q24 27.5 24 70.5q0 85 -88 85q-90 0 -90 -83q0 -57 45 -105l25 -25q60 30 84 57.5zM379 92.5q41 18.5 62 55.5l-199 199q-56 -20 -82 -52t-26 -87q0 -68 36.5 -101t110.5 -33q57 0 98 18.5z" />
    <glyph glyph-name="quotesingle" unicode="'" horiz-adv-x="218" 
d="M64 688h91l-5 -227h-83z" />
    <glyph glyph-name="parenleft" unicode="(" horiz-adv-x="278" 
d="M75.5 90q-28.5 112 -28.5 212q0 203 108 448h89q-36 -94 -65.5 -229t-29.5 -224q0 -86 25.5 -195t69.5 -227h-89q-51 103 -79.5 215z" />
    <glyph glyph-name="parenright" unicode=")" horiz-adv-x="278" 
d="M34 -125q47 128 70.5 231t23.5 190q0 97 -29 227t-65 227h89q108 -249 108 -448q0 -99 -29 -211t-79 -216h-89z" />
    <glyph glyph-name="asterisk" unicode="*" horiz-adv-x="422" 
d="M191 491l-105 -79l-36 46l107 79l-105 75l36 49l104 -76l40 124l58 -19l-40 -125h128v-58h-129l40 -123l-57 -17z" />
    <glyph glyph-name="plus" unicode="+" 
d="M236 209h-183v84h183v187h86v-187h185v-84h-185v-189h-86v189z" />
    <glyph glyph-name="comma" unicode="," horiz-adv-x="235" 
d="M77 116h103l-74 -239h-76z" />
    <glyph glyph-name="hyphen" unicode="-" horiz-adv-x="429" 
d="M64 315h301v-86h-301v86z" />
    <glyph glyph-name="period" unicode="." horiz-adv-x="228" 
d="M64 130h101v-130h-101v130z" />
    <glyph glyph-name="slash" unicode="/" horiz-adv-x="429" 
d="M32 9l284 702l82 -30l-284 -701z" />
    <glyph glyph-name="zero" unicode="0" 
d="M94 69.5q-60 79.5 -60 261.5t60.5 261.5t185.5 79.5t185 -79.5t60 -261.5t-60 -261.5t-185 -79.5q-126 0 -186 79.5zM364 98.5q32 24.5 47 80.5t15 152t-15 151.5t-47 80t-84 24.5t-84 -24.5t-47 -80t-15 -151.5t15 -152t47 -80.5t84 -24.5t84 24.5z" />
    <glyph glyph-name="one" unicode="1" 
d="M302 552l-162 -105l-43 71l212 142h89v-660h-96v552z" />
    <glyph glyph-name="two" unicode="2" 
d="M68 81l177 185q49 50 75 80.5t42 63.5t16 69q0 57 -31 81.5t-98 24.5q-66 0 -145 -15l-25 -5l-7 78q100 28 199 28q103 0 154 -44.5t51 -136.5q0 -48 -13.5 -85.5t-43 -76t-84.5 -89.5l-157 -156h314v-83h-424v81z" />
    <glyph glyph-name="three" unicode="3" 
d="M92 11l-32 8l7 76q111 -23 180 -23q71 0 110 26.5t39 88.5q0 55 -31.5 83t-92.5 30h-133v81h133q26 0 51.5 14.5t41.5 40.5t16 58q0 49 -29.5 71t-97.5 22q-66 0 -151 -15l-26 -5l-8 74q93 30 202 30t158.5 -41.5t49.5 -131.5q0 -51 -23.5 -90t-67.5 -61q39 -16 61.5 -34
t33.5 -46.5t11 -75.5q0 -103 -52.5 -152.5t-165.5 -49.5q-82 0 -184 22z" />
    <glyph glyph-name="four" unicode="4" 
d="M348 123h-308v74l180 463h105l-186 -453h209v199h96v-199h77v-84h-77v-123h-96v123z" />
    <glyph glyph-name="five" unicode="5" 
d="M93 14l-34 8l11 73q117 -21 196 -21q68 0 104.5 36t36.5 102q0 63 -31 92t-92 29q-33 0 -69.5 -7.5t-60.5 -17.5l-20 -8l-62 13l18 347h391v-85h-313l-18 -193q75 36 144 36q211 0 211 -197q0 -111 -58 -171t-164 -60q-85 0 -190 24z" />
    <glyph glyph-name="six" unicode="6" 
d="M105 75.5q-60 86.5 -60 258.5q0 170 68 253.5t196 83.5q80 0 158 -15l28 -6l-9 -76q-101 13 -175 13q-81 0 -123.5 -52.5t-42.5 -153.5l23 9q30 11 66.5 18.5t62.5 7.5q224 0 224 -207q0 -106 -61.5 -163t-175.5 -57q-119 0 -179 86.5zM387 108.5q35 34.5 35 98.5
q0 62 -33.5 93t-98.5 31q-28 0 -62.5 -7t-62.5 -17l-21 -9q0 -107 35.5 -165.5t104.5 -58.5q68 0 103 34.5z" />
    <glyph glyph-name="seven" unicode="7" 
d="M150 16l242 530v28h-317v86h413v-118l-248 -553z" />
    <glyph glyph-name="eight" unicode="8" 
d="M31 168q0 66 23.5 103t80.5 72q-51 30 -72 64t-21 91q0 84 63 129q62 44 173 44t175.5 -45.5t64.5 -128.5q0 -60 -20.5 -91.5t-77.5 -62.5q58 -31 83 -67t25 -97q0 -95 -63.5 -142.5t-185.5 -47.5q-248 0 -248 179zM327 380q46 18 67.5 42.5t21.5 61.5q0 101 -136 101
t-136 -101q0 -37 20 -61.5t63 -42.5h100zM426 191q0 43 -23.5 66.5t-75.5 40.5h-100q-48 -15 -71 -41t-23 -70q0 -111 147 -111q146 0 146 115z" />
    <glyph glyph-name="nine" unicode="9" 
d="M89 6l-28 5l9 75q93 -12 177 -12q166 0 167 208q-100 -35 -158 -35q-108 0 -163.5 51t-55.5 153t63 161t172 59q120 0 180.5 -89t60.5 -263q0 -171 -66 -250.5t-200 -79.5q-75 0 -158 17zM392 355l23 8q-2 224 -145 224q-63 0 -98.5 -36.5t-35.5 -99.5q0 -120 128 -120
q58 0 128 24z" />
    <glyph glyph-name="colon" unicode=":" horiz-adv-x="229" 
d="M64 442h101v-130h-101v130zM64 130h101v-130h-101v130z" />
    <glyph glyph-name="semicolon" unicode=";" horiz-adv-x="258" 
d="M81 442h102v-130h-102v130zM89 116h103l-74 -239h-77z" />
    <glyph glyph-name="less" unicode="&#x3c;" 
d="M63 211v80l412 197v-96l-314 -139l314 -144v-97z" />
    <glyph glyph-name="equal" unicode="=" 
d="M62 390h436v-85h-436v85zM62 198h436v-85h-436v85z" />
    <glyph glyph-name="greater" unicode="&#x3e;" 
d="M84 109l315 144l-315 139v96l413 -197v-80l-413 -199v97z" />
    <glyph glyph-name="question" unicode="?" horiz-adv-x="444" 
d="M139 276q0 28 20 55t67 67q53 44 70 69t17 66t-29 61.5t-89 20.5q-43 0 -151 -21l-6 73q98 32 172 32q101 0 150 -38.5t49 -120.5q0 -47 -7 -75.5t-25 -51.5t-54 -52q-51 -42 -69.5 -66.5t-18.5 -54.5v-34h-77q-19 29 -19 70zM143 128h102v-127h-102v127z" />
    <glyph glyph-name="at" unicode="@" horiz-adv-x="976" 
d="M305.5 -182q-80.5 23 -139.5 75q-119 104 -119 368q0 234 116.5 349t340.5 115q220 0 326 -104t106 -316v-11q0 -113 -19.5 -178t-58 -92.5t-99.5 -27.5q-48 0 -80 15t-46 44q-91 -58 -166 -58q-87 0 -133 54t-46 187q0 95 19.5 153t63 85t116.5 27q40 0 91 -18l17 -7v15
h93v-187q0 -164 9 -193q10 -26 23 -32.5t41 -6.5q36 0 54 30.5t22.5 75.5t4.5 114v12q0 119 -34.5 193t-109 109t-195.5 35q-183 0 -272.5 -94.5t-89.5 -293.5q0 -136 37 -218.5t116 -121t210 -38.5l143 10l3 -83q-93 -9 -146 -9q-118 0 -198.5 23zM603 118q-8 43 -8 152
v134q-52 17 -90 17q-48 0 -74.5 -17.5t-37.5 -55t-11 -102.5q0 -167 92 -167q41 0 129 39z" />
    <glyph glyph-name="A" unicode="A" horiz-adv-x="598" 
d="M438 161h-278l-43 -161h-95l178 688h198l178 -688h-95zM180 246h238l-93 361h-52z" />
    <glyph glyph-name="B" unicode="B" horiz-adv-x="614" 
d="M82 688h256q106 0 156.5 -43t50.5 -137q0 -59 -20 -94.5t-64 -58.5q52 -20 77.5 -59t25.5 -104q0 -192 -216 -192h-266v688zM338 390q56 0 83 27t27 82t-28 80.5t-87 25.5h-155v-215h160zM344 84q61 0 92 25t31 84q0 114 -127 114h-162v-223h166z" />
    <glyph glyph-name="C" unicode="C" horiz-adv-x="544" 
d="M155 28.5q-57 39.5 -78.5 115t-21.5 199.5q0 128 22 204t77.5 114t157.5 38q83 0 192 -24l-3 -79q-95 17 -170 17t-113 -26.5t-51 -85.5t-12 -171q0 -97 12.5 -149.5t51 -79t117.5 -26.5q66 0 165 17l3 -81q-110 -22 -185 -22q-107 0 -164 39.5z" />
    <glyph glyph-name="D" unicode="D" horiz-adv-x="643" 
d="M489 646q58 -42 79 -112.5t21 -174.5q0 -128 -27 -206.5t-85 -115.5t-154 -37h-241v688h241q108 0 166 -42zM452 150.5q39 66.5 39 206.5q0 89 -16.5 143t-53 79t-98.5 25h-145v-520h145q90 0 129 66.5z" />
    <glyph glyph-name="E" unicode="E" horiz-adv-x="553" 
d="M178 604v-214h270v-83h-270v-223h330v-84h-426v688h426v-84h-330z" />
    <glyph glyph-name="F" unicode="F" horiz-adv-x="528" 
d="M178 604v-248h271v-84h-271v-272h-96v688h420v-84h-324z" />
    <glyph glyph-name="G" unicode="G" horiz-adv-x="614" 
d="M163.5 27q-59.5 38 -85 115.5t-25.5 202.5t26 202t84.5 114.5t157.5 37.5q90 0 196 -20l35 -7l-4 -77q-123 18 -209 18q-78 0 -118 -28.5t-54 -86t-14 -160.5q0 -99 15.5 -155.5t54.5 -82.5t110 -26q68 0 124 10v188h-99v85h194v-344q-132 -24 -228 -24q-101 0 -160.5 38
z" />
    <glyph glyph-name="H" unicode="H" horiz-adv-x="676" 
d="M594 688v-688h-95v303h-321v-303h-96v688h96v-300h321v300h95z" />
    <glyph glyph-name="I" unicode="I" horiz-adv-x="258" 
d="M82 688h96v-688h-96v688z" />
    <glyph glyph-name="J" unicode="J" horiz-adv-x="293" 
d="M18 13q44 0 65 7t29 27t8 64v577h95l1 -587q0 -75 -21.5 -112t-62.5 -48.5t-114 -11.5v84z" />
    <glyph glyph-name="K" unicode="K" horiz-adv-x="576" 
d="M286 296l-108 -7v-289h-96v688h96v-315l108 7l156 308h109l-182 -346l191 -342h-112z" />
    <glyph glyph-name="L" unicode="L" horiz-adv-x="477" 
d="M464 85v-85h-382v688h96v-603h286z" />
    <glyph glyph-name="M" unicode="M" horiz-adv-x="846" 
d="M764 688v-688h-96v584h-15l-179 -557h-102l-180 557h-14v-584h-96v688h168l173 -561l172 561h169z" />
    <glyph glyph-name="N" unicode="N" horiz-adv-x="681" 
d="M600 688v-688h-168l-238 604h-16v-604h-96v688h171l233 -604h18v604h96z" />
    <glyph glyph-name="O" unicode="O" horiz-adv-x="658" 
d="M166 26q-60 37 -86.5 113.5t-26.5 201.5q0 124 26.5 202.5t87 117t162.5 38.5t162.5 -38.5t87 -116.5t26.5 -204q0 -125 -26 -201t-86 -113t-164 -37q-103 0 -163 37zM437 100.5q38 26.5 53.5 83.5t15.5 156t-16 158.5t-54.5 88t-106.5 28.5t-106.5 -28.5t-54.5 -87.5
t-16 -158q0 -97 15.5 -154t53.5 -85t108 -28t108 26.5z" />
    <glyph glyph-name="P" unicode="P" horiz-adv-x="592" 
d="M82 688h252q115 0 171 -56t56 -171q0 -118 -57.5 -178.5t-169.5 -60.5h-156v-222h-96v688zM333 306q130 0 130 155q0 75 -31 109.5t-99 34.5h-155v-299h155z" />
    <glyph glyph-name="Q" unicode="Q" horiz-adv-x="658" 
d="M400 -3q-27 -8 -71 -8q-103 0 -163.5 37t-86.5 113.5t-26 201.5q0 124 26.5 202.5t87 117t162.5 38.5t162.5 -38.5t87 -116.5t26.5 -203q0 -124 -26.5 -199.5t-85.5 -112.5l85 -136l-89 -41zM437 100q38 26 53.5 83t15.5 156t-16 159t-54.5 88.5t-106.5 28.5
t-106.5 -28.5t-54.5 -87.5t-16 -158q0 -97 15 -154t53.5 -85t108.5 -28t108 26z" />
    <glyph glyph-name="R" unicode="R" horiz-adv-x="617" 
d="M82 688h258q114 0 170.5 -53t56.5 -161q0 -152 -119 -200l122 -274h-105l-111 254h-176v-254h-96v688zM341 337q63 0 95.5 34.5t32.5 100.5q0 65 -32.5 99t-96.5 34h-162v-268h163z" />
    <glyph glyph-name="S" unicode="S" horiz-adv-x="543" 
d="M87 9l-36 6l10 77q135 -18 206 -18q135 0 135 123q0 34 -14 54.5t-44.5 33t-85.5 24.5q-81 19 -126 42.5t-66 60.5t-21 97q0 95 57 143t168 48q41 0 88.5 -5t125.5 -18l-8 -78q-137 16 -198 16q-137 0 -137 -100q0 -37 15.5 -58t49.5 -34.5t103 -29.5q72 -18 112 -40
t58.5 -57t18.5 -92q0 -106 -57.5 -160t-167.5 -54q-69 0 -186 19z" />
    <glyph glyph-name="T" unicode="T" horiz-adv-x="526" 
d="M216 603h-203v85h500v-85h-201v-603h-96v603z" />
    <glyph glyph-name="U" unicode="U" horiz-adv-x="647" 
d="M137 43.5q-61 54.5 -61 172.5v472h96v-474q0 -140 149 -140q78 0 116.5 34t38.5 106v474h95v-472q0 -118 -61.5 -172.5t-186.5 -54.5t-186 54.5z" />
    <glyph glyph-name="V" unicode="V" horiz-adv-x="589" 
d="M22 688h100l146 -604h53l146 604h100l-174 -688h-198z" />
    <glyph glyph-name="W" unicode="W" horiz-adv-x="900" 
d="M27 688h100l107 -604h25l135 600h112l135 -600h24l108 604h99l-137 -688h-162l-123 568l-124 -568h-162z" />
    <glyph glyph-name="X" unicode="X" horiz-adv-x="561" 
d="M224 335l-208 353h107l160 -281l162 281h101l-208 -349l208 -339h-107l-159 271l-162 -271h-102z" />
    <glyph glyph-name="Y" unicode="Y" horiz-adv-x="544" 
d="M224 286l-217 402h107l158 -307l157 307h108l-217 -402v-286h-96v286z" />
    <glyph glyph-name="Z" unicode="Z" horiz-adv-x="535" 
d="M42 98l338 485v21h-338v84h450v-99l-337 -485v-20h337v-85h-450v99z" />
    <glyph glyph-name="bracketleft" unicode="[" horiz-adv-x="337" 
d="M76 749h223v-83h-128v-706h128v-83h-223v872z" />
    <glyph glyph-name="backslash" unicode="\" horiz-adv-x="455" 
d="M31 674l81 36l312 -696l-82 -35z" />
    <glyph glyph-name="bracketright" unicode="]" horiz-adv-x="337" 
d="M38 -123v83h129v706h-129v83h223v-872h-223z" />
    <glyph glyph-name="asciicircum" unicode="^" 
d="M234 660h82l192 -343h-99l-132 252l-132 -252h-98z" />
    <glyph glyph-name="underscore" unicode="_" horiz-adv-x="628" 
d="M100 -86h428v-81h-428v81z" />
    <glyph glyph-name="grave" unicode="`" horiz-adv-x="246" 
d="M-6 664l30 80l228 -99l-24 -62z" />
    <glyph glyph-name="a" unicode="a" horiz-adv-x="504" 
d="M74 29q-37 40 -37 115q0 74 38 108.5t121 42.5l142 13v39q0 44 -19 63.5t-56 19.5q-84 0 -194 -12l-3 68q106 25 197 25q88 0 128 -39.5t40 -124.5v-241q2 -20 13.5 -30.5t36.5 -14.5l-3 -72q-43 0 -73 9.5t-53 29.5q-85 -39 -170 -39q-71 0 -108 40zM317 86l21 7v147
l-130 -12q-39 -4 -57.5 -23.5t-18.5 -57.5q0 -80 67 -80q61 0 118 19z" />
    <glyph glyph-name="b" unicode="b" horiz-adv-x="532" 
d="M100 -2l-31 3v711h93v-234q38 17 70.5 25t70.5 8q66 0 105.5 -26t58 -82.5t18.5 -150.5q0 -101 -22.5 -157.5t-74 -80.5t-143.5 -24q-68 0 -145 8zM335.5 90.5q30.5 17.5 42.5 56t12 106.5q0 66 -10.5 103.5t-34 54t-64.5 16.5q-50 0 -119 -24v-325q65 -5 86 -5
q57 0 87.5 17.5z" />
    <glyph glyph-name="c" unicode="c" horiz-adv-x="439" 
d="M130.5 16q-44.5 27 -64 84t-19.5 150q0 124 43.5 192.5t157.5 68.5q29 0 62 -3.5t89 -14.5l-3 -74q-85 8 -120 8q-53 0 -82 -16t-40.5 -54t-11.5 -108q0 -68 11.5 -105t40.5 -54t85 -17l118 9l3 -76q-100 -17 -151 -17q-74 0 -118.5 27z" />
    <glyph glyph-name="d" unicode="d" horiz-adv-x="535" 
d="M88 51.5q-42 62.5 -42 190.5q0 142 50 205.5t160 63.5q53 0 117 -14v215h93v-712h-93v30q-78 -41 -146 -41q-97 0 -139 62.5zM301 80q31 7 54 16l18 7v315q-62 12 -106 12q-69 0 -97 -42t-28 -141q0 -90 23.5 -132t80.5 -42q24 0 55 7z" />
    <glyph glyph-name="e" unicode="e" horiz-adv-x="507" 
d="M95 48.5q-49 59.5 -49 188.5q0 139 52.5 206.5t162.5 67.5q204 0 204 -232l-6 -68h-319q1 -54 14 -83.5t42 -42.5t82 -13q31 0 70 1.5t70 4.5l28 3l2 -72q-117 -20 -189 -20q-115 0 -164 59.5zM372 284q0 81 -25.5 115t-85.5 34q-63 0 -92 -35.5t-30 -113.5h233z" />
    <glyph glyph-name="f" unicode="f" horiz-adv-x="339" 
d="M91 420h-60v80h60v38q0 72 13 111.5t42.5 56.5t82.5 17l105 -8l-1 -77q-116 3 -92 3q-32 0 -44.5 -27.5t-12.5 -76.5v-37h138v-80h-138v-420h-93v420z" />
    <glyph glyph-name="g" unicode="g" horiz-adv-x="520" 
d="M96.5 -200.5q-50.5 32.5 -50.5 108.5q0 43 16.5 68.5t60.5 59.5q-16 11 -23.5 29t-7.5 38q0 14 6.5 29.5t29.5 54.5q-76 40 -76 149q0 174 195 174q46 0 102 -13l152 4v-77l-89 3q16 -18 23 -39.5t7 -55.5q0 -89 -47.5 -127.5t-148.5 -38.5q-30 0 -49 4q-16 -38 -16 -55
q0 -24 19.5 -31t60.5 -7h35q70 -1 112 -11t65 -40.5t23 -88.5q0 -88 -56.5 -129t-182.5 -41q-110 0 -160.5 32.5zM325.5 262q23.5 23 23.5 76q0 52 -24 75t-77 23q-54 0 -78.5 -23.5t-24.5 -75.5t24.5 -75t78.5 -23t77.5 23zM370.5 -136.5q30.5 19.5 30.5 66.5
q0 28 -11.5 41.5t-34.5 18t-68 5.5l-102 6q-27 -21 -37 -38t-10 -41q0 -43 29 -60.5t98 -17.5q75 0 105.5 19.5z" />
    <glyph glyph-name="h" unicode="h" horiz-adv-x="542" 
d="M69 712h93v-239q43 20 78 29t72 9q64 0 100 -24.5t51 -77.5t15 -143v-266h-93v264q0 65 -8 99t-29.5 49t-62.5 15q-51 0 -106 -19l-17 -6v-402h-93v712z" />
    <glyph glyph-name="i" unicode="i" horiz-adv-x="230" 
d="M69 0zM69 500h93v-500h-93v500zM69 699h92v-101h-92v101z" />
    <glyph glyph-name="j" unicode="j" horiz-adv-x="231" 
d="M0 0zM-44 -154q51 31 74 52t31.5 47t8.5 71v484h93v-485q0 -65 -14 -104.5t-49.5 -69.5t-106.5 -66zM70 699h92v-101h-92v101z" />
    <glyph glyph-name="k" unicode="k" horiz-adv-x="490" 
d="M69 712h93v-416l70 6l129 198h105l-152 -232l159 -268h-105l-134 221l-72 -5v-216h-93v712z" />
    <glyph glyph-name="l" unicode="l" horiz-adv-x="243" 
d="M75 712h93v-712h-93v712z" />
    <glyph glyph-name="m" unicode="m" horiz-adv-x="837" 
d="M69 500h92v-33q38 22 72 33t70 11q39 0 72 -12.5t52 -37.5q40 22 87.5 36t96.5 14q62 0 97 -25t50 -78t15 -142v-266h-93v264q0 63 -7.5 97.5t-27 50t-57.5 15.5q-28 0 -58 -6.5t-53 -16.5l-18 -8q11 -43 11 -136v-260h-94v258q0 67 -7 102.5t-26.5 51t-57.5 15.5
q-28 0 -57.5 -7t-49.5 -16l-16 -8v-396h-93v500z" />
    <glyph glyph-name="n" unicode="n" horiz-adv-x="542" 
d="M69 500h92v-33q43 24 78 34t74 10q63 0 99 -25t51 -77.5t15 -142.5v-266h-93v264q0 63 -7.5 97.5t-28 50t-59.5 15.5q-53 0 -111 -23l-17 -8v-396h-93v500z" />
    <glyph glyph-name="o" unicode="o" horiz-adv-x="529" 
d="M97 51.5q-51 62.5 -51 196.5q0 137 52 200t167 63q116 0 167.5 -63.5t51.5 -199.5q0 -133 -51 -196t-168 -63t-168 62.5zM339.5 87q26.5 17 37.5 55t11 106q0 71 -11.5 110t-38 55.5t-73.5 16.5t-74 -16.5t-38.5 -56t-11.5 -109.5q0 -67 11 -105.5t38 -55.5t75 -17
t74.5 17z" />
    <glyph glyph-name="p" unicode="p" horiz-adv-x="532" 
d="M69 500h92v-33q39 23 72.5 33.5t71.5 10.5q94 0 137.5 -62.5t43.5 -197.5q0 -95 -22 -152.5t-70.5 -83.5t-129.5 -26q-45 0 -102 10v-217h-93v718zM361.5 112q29.5 42 29.5 137q0 94 -26 136t-81 42q-25 0 -54 -7.5t-51 -17.5l-17 -9v-313q70 -10 98 -10q72 0 101.5 42z
" />
    <glyph glyph-name="q" unicode="q" horiz-adv-x="531" 
d="M369 21q-36 -17 -68 -24.5t-68 -7.5q-99 0 -143 60t-44 199q0 98 23 155t75 82.5t142 25.5l176 -11v-718h-93v239zM353 91l16 6v327q-54 6 -83 6q-56 0 -88 -19t-45 -58.5t-13 -105.5q0 -95 26 -134.5t88 -39.5q48 0 99 18z" />
    <glyph glyph-name="r" unicode="r" horiz-adv-x="354" 
d="M69 500h92v-63q89 57 176 74v-94q-39 -8 -81 -22t-70 -27l-24 -11v-357h-93v500z" />
    <glyph glyph-name="s" unicode="s" horiz-adv-x="467" 
d="M80 5l-30 5l4 80q121 -17 173 -17q53 0 80 16t27 52q0 26 -13.5 39.5t-34.5 20t-60 12.5l-24 4q-57 9 -90.5 23t-51.5 41t-18 74q0 155 190 155q60 0 150 -15l29 -6l-2 -78q-112 16 -172 16q-102 0 -102 -62q0 -23 13 -35.5t33.5 -18.5t58.5 -13q7 -1 28 -5
q59 -11 92.5 -25.5t50 -42.5t16.5 -76q0 -83 -48 -121.5t-148 -38.5q-58 0 -151 16z" />
    <glyph glyph-name="t" unicode="t" horiz-adv-x="355" 
d="M148.5 6q-29.5 17 -42.5 57t-13 111v246h-67v80h67v149h93v-149h147v-80h-147v-229q0 -47 3.5 -70.5t16.5 -36t42 -12.5l85 5l6 -76q-70 -12 -108 -12q-53 0 -82.5 17z" />
    <glyph glyph-name="u" unicode="u" horiz-adv-x="538" 
d="M127 13.5q-35 24.5 -49 78t-14 147.5v261h93v-261q0 -69 7 -103.5t26.5 -48.5t59.5 -14q33 0 62.5 8t63.5 23v396h93v-500h-93v33q-42 -24 -75.5 -34t-73.5 -10q-65 0 -100 24.5z" />
    <glyph glyph-name="v" unicode="v" horiz-adv-x="486" 
d="M22 500h98l106 -420h34l110 420h95l-134 -500h-175z" />
    <glyph glyph-name="w" unicode="w" horiz-adv-x="765" 
d="M29 500h93l88 -420h19l105 410h97l106 -410h19l88 420h92l-111 -500h-152l-90 365l-91 -365h-152z" />
    <glyph glyph-name="x" unicode="x" horiz-adv-x="459" 
d="M170 250l-150 250h100l109 -183l110 183h101l-154 -247l153 -253h-101l-109 182l-109 -182h-100z" />
    <glyph glyph-name="y" unicode="y" horiz-adv-x="488" 
d="M239 0h-81l-136 500h93l114 -420h30l115 420h93l-198 -718h-92z" />
    <glyph glyph-name="z" unicode="z" horiz-adv-x="455" 
d="M42 83l258 334h-258v83h371v-83l-259 -334h259v-83h-371v83z" />
    <glyph glyph-name="braceleft" unicode="{" horiz-adv-x="355" 
d="M166.5 -86q-43.5 40 -43.5 130l7 122q0 41 -26 67t-82 42v74q56 13 82 38.5t26 65.5l-7 128q0 63 19 100t60.5 55t112.5 21l1 -80q-57 -4 -79.5 -27.5t-22.5 -74.5l7 -124q0 -44 -9 -69.5t-31.5 -41t-66.5 -27.5q62 -18 84.5 -48t22.5 -94l-7 -117q0 -51 22.5 -75.5
t78.5 -28.5l-1 -80q-104 4 -147.5 44z" />
    <glyph glyph-name="bar" unicode="|" horiz-adv-x="242" 
d="M75 712h92v-930h-92v930z" />
    <glyph glyph-name="braceright" unicode="}" horiz-adv-x="355" 
d="M39 -50q57 4 79.5 28.5t22.5 75.5l-7 117q0 64 22.5 94t84.5 48q-44 12 -66.5 27.5t-31.5 41t-9 69.5l7 124q0 51 -22.5 74.5t-79.5 27.5v80q71 -3 113 -21t61 -55t19 -100l-7 -128q0 -40 26 -65.5t82 -38.5v-74q-56 -16 -82 -42t-26 -67l7 -122q0 -90 -43.5 -130
t-147.5 -44z" />
    <glyph glyph-name="asciitilde" unicode="~" 
d="M277 215q-75 29 -96 29q-17 0 -43.5 -10.5t-44.5 -23.5l-17 -11l-11 76q62 53 118 53q30 0 104 -28t94 -28q39 0 88 32l17 12l10 -76q-28 -25 -58.5 -39t-57.5 -14q-28 0 -103 28z" />
    <glyph glyph-name="uni00A0" unicode="&#xa0;" horiz-adv-x="220" 
 />
    <glyph glyph-name="exclamdown" unicode="&#xa1;" horiz-adv-x="239" 
d="M169 500v-127h-101v127h101zM160 265l8 -453h-99l7 453h84z" />
    <glyph glyph-name="cent" unicode="&#xa2;" 
d="M276 34q-94 5 -136.5 55t-42.5 158t44 161t135 59v112h78v-116l95 -12l-4 -72q-66 5 -129 5q-67 0 -95 -31t-28 -104q0 -75 28.5 -104.5t103.5 -29.5l121 6l3 -73q-56 -10 -95 -11v-116h-78v113z" />
    <glyph glyph-name="sterling" unicode="&#xa3;" 
d="M78 81h82v261h-66v80h66v56q0 75 15.5 116.5t48 58.5t90.5 17q61 0 117 -14l22 -5l-2 -74q-85 10 -128 10q-40 0 -56 -24.5t-16 -89.5v-51h166v-80h-166v-261h145l75 16l15 -79l-82 -18h-326v81z" />
    <glyph glyph-name="currency" unicode="&#xa4;" 
d="M49 86l71 71q-26 44 -26 94t26 96l-71 71l65 65l71 -72q42 27 94 27q51 0 96 -27l71 72l65 -65l-72 -71q27 -45 27 -96q0 -52 -27 -94l72 -71l-65 -65l-71 72q-45 -27 -96 -27q-50 0 -94 27l-71 -72zM355 177.5q31 31.5 31 74.5q0 44 -31 75t-75 31q-43 0 -74.5 -31
t-31.5 -75q0 -43 32 -74q31 -32 74 -32q44 0 75 31.5z" />
    <glyph glyph-name="yen" unicode="&#xa5;" 
d="M234 154h-176v80h176v74h-177v79h125l-165 273h107l157 -252l155 252h107l-162 -273h121v-79h-172v-74h173v-80h-173v-154h-96v154z" />
    <glyph glyph-name="brokenbar" unicode="&#xa6;" horiz-adv-x="246" 
d="M77 712h92v-373h-92v373zM77 160h92v-378h-92v378z" />
    <glyph glyph-name="section" unicode="&#xa7;" horiz-adv-x="505" 
d="M97 -149l-30 5l9 77q108 -15 163 -15q116 0 116 86q0 40 -28 55q-27 13 -116 33q-62 13 -97 29.5t-51 45t-16 75.5q0 35 19.5 73t40.5 55q-44 32 -44 111q0 166 200 166q55 0 141 -15l27 -4l-5 -77q-111 15 -165 15q-56 0 -81.5 -19.5t-25.5 -63.5q0 -27 14.5 -43.5
t44 -26.5t85.5 -21q60 -12 92.5 -28t47.5 -42.5t15 -72.5q0 -69 -46 -136q19 -16 28 -40.5t9 -62.5q0 -88 -49 -130t-150 -42q-64 0 -148 13zM350.5 183.5q7.5 26.5 7.5 56.5q0 32 -22 48.5t-76 27.5q-27 5 -54 11.5t-37 10.5q-28 -46 -28 -83q0 -25 9 -40t30 -24.5
t62 -17.5q63 -13 93 -26q8 10 15.5 36.5z" />
    <glyph glyph-name="dieresis" unicode="&#xa8;" horiz-adv-x="246" 
d="M-18 716h90v-103h-90v103zM187 716h90v-103h-90v103z" />
    <glyph glyph-name="copyright" unicode="&#xa9;" horiz-adv-x="644" 
d="M186.5 194.5q-61.5 36.5 -96.5 100t-35 140.5q0 78 34.5 140.5t96 98.5t137.5 36t136.5 -36.5t95 -100t34.5 -140.5t-34 -140t-94.5 -99t-136.5 -36t-137.5 36.5zM433 237q50 30 78.5 82t28.5 115q0 62 -29 114.5t-78.5 83t-109.5 30.5q-93 0 -156 -66q-62 -68 -62 -162
q0 -63 28.5 -115t78 -82t110.5 -30t111 30zM234 311q-27 37 -27 123t27.5 122.5t94.5 36.5q41 0 68 -8l10 -3l-5 -64q-36 6 -68 6q-31 0 -42 -19t-11 -68q0 -50 11.5 -72t40.5 -22l69 6l5 -61q-32 -14 -82 -14q-64 0 -91 37z" />
    <glyph glyph-name="ordfeminine" unicode="&#xaa;" horiz-adv-x="399" 
d="M276 339q-22 8 -33 23q-49 -29 -96 -29q-48 0 -74 27t-26 75q0 88 114 94l76 4v23q0 26 -46 26l-124 -7l-3 63q70 21 135 21q68 0 99.5 -24.5t31.5 -83.5v-139q7 -10 23 -12l-2 -68q-57 0 -75 7zM228 418l9 4v52l-60 -4q-36 -3 -36 -33q0 -31 33 -31q26 0 54 12z" />
    <glyph glyph-name="guillemotleft" unicode="&#xab;" horiz-adv-x="558" 
d="M43 211v71l200 149v-95l-119 -88l119 -99v-96zM295 211v71l200 149v-95l-119 -88l119 -99v-96z" />
    <glyph glyph-name="logicalnot" unicode="&#xac;" 
d="M408 263h-345v84h430v-234h-85v150z" />
    <glyph glyph-name="registered" unicode="&#xae;" horiz-adv-x="644" 
d="M186.5 194.5q-61.5 36.5 -96.5 99.5t-35 141t34.5 140.5t96 98.5t137.5 36t137 -36.5t95 -99.5t34 -141q0 -77 -34 -140t-94.5 -99t-136.5 -36t-137.5 36.5zM433 237q50 30 78.5 82t28.5 115q0 62 -29 114.5t-78.5 83t-109.5 30.5q-62 0 -111.5 -30.5t-78 -82.5
t-28.5 -114q0 -63 28.5 -115t78.5 -82.5t111 -30.5q60 0 110 30zM209 587h118q56 0 85 -23t29 -68q0 -44 -10 -66t-37 -36l51 -114h-73l-43 103h-50v-103h-70v307zM327 437q24 0 35 11.5t11 36.5q0 47 -53 47h-42v-95h49z" />
    <glyph glyph-name="macron" unicode="&#xaf;" horiz-adv-x="246" 
d="M-11 687h279v-71h-279v71z" />
    <glyph glyph-name="degree" unicode="&#xb0;" 
d="M176 451.5q-40 39.5 -40 103.5q0 65 40 104.5t104 39.5q65 0 104.5 -39.5t39.5 -104.5q0 -64 -40 -103.5t-104 -39.5t-104 39.5zM343.5 491.5q24.5 24.5 24.5 63.5t-24.5 63.5t-63.5 24.5t-62.5 -24.5t-23.5 -63.5t23.5 -63.5t62.5 -24.5t63.5 24.5z" />
    <glyph glyph-name="plusminus" unicode="&#xb1;" 
d="M236 286h-183v84h183v120h86v-120h185v-84h-185v-119h-86v119zM53 116h454v-84h-454v84z" />
    <glyph glyph-name="uni00B2" unicode="&#xb2;" horiz-adv-x="280" 
d="M27 544l84 78q49 46 49 75q0 30 -45 30l-82 -8l-3 70q58 11 113 11q97 0 97 -90q0 -35 -13 -59.5t-46 -52.5l-55 -51h117v-69h-216v66z" />
    <glyph glyph-name="uni00B3" unicode="&#xb3;" horiz-adv-x="280" 
d="M27 477l5 68q61 -8 100 -8q41 0 41 35q0 33 -40 33h-66v63h65q13 0 22.5 10t9.5 25q0 28 -39 28l-89 -7l-5 67q61 9 104 9q110 0 110 -85q0 -52 -36 -72q22 -9 32.5 -26t10.5 -50q0 -99 -110 -99z" />
    <glyph glyph-name="acute" unicode="&#xb4;" horiz-adv-x="268" 
d="M19 645l228 99l30 -80l-234 -81z" />
    <glyph glyph-name="uni00B5" unicode="&#xb5;" 
d="M77 500h94v-269q0 -65 7 -98t27 -46.5t60 -13.5q27 0 57 7t51 16l16 8v396h94v-500h-93v33q-76 -44 -136 -44q-50 0 -83 13v-220h-94v718z" />
    <glyph glyph-name="paragraph" unicode="&#xb6;" horiz-adv-x="595" 
d="M226 312h-7q-54 0 -96.5 24t-66 66.5t-23.5 96.5q0 55 24 98t66.5 67t96.5 24h330v-80h-61v-608h-82v608h-100v-608h-81v312z" />
    <glyph glyph-name="periodcentered" unicode="&#xb7;" horiz-adv-x="229" 
d="M64 340h101v-130h-101v130z" />
    <glyph glyph-name="cedilla" unicode="&#xb8;" horiz-adv-x="263" 
d="M51 -219l-13 3l4 57q24 -2 60 -2q42 0 42 34q0 30 -42 30h-36v98h44v-46q63 -1 89 -18.5t26 -64.5q0 -96 -99 -96q-42 0 -75 5z" />
    <glyph glyph-name="uni00B9" unicode="&#xb9;" horiz-adv-x="280" 
d="M122 705l-62 -42l-35 55l103 72h71v-312h-77v227z" />
    <glyph glyph-name="ordmasculine" unicode="&#xba;" horiz-adv-x="392" 
d="M49 503q0 80 36.5 118t111.5 38q74 0 110 -38t36 -118q0 -159 -146 -159q-148 0 -148 159zM244.5 437.5q13.5 19.5 13.5 65.5t-13 64t-48 18q-34 0 -48.5 -19t-14.5 -63q0 -45 14.5 -65t48.5 -20t47.5 19.5z" />
    <glyph glyph-name="guillemotright" unicode="&#xbb;" horiz-adv-x="559" 
d="M63 149l120 99l-120 88v95l200 -149v-71l-200 -158v96zM315 149l120 99l-120 88v95l200 -149v-71l-200 -158v96z" />
    <glyph glyph-name="onequarter" unicode="&#xbc;" horiz-adv-x="563" 
d="M212 632l-10 -16v-138h-77v14l-306 -492l-43 28l349 563v114l-62 -42l-35 55l103 72h71v-152zM540 13v-69h-22v-44h-76v44h-138v65l60 203h84l-66 -199h60l8 90h68v-90h22z" />
    <glyph glyph-name="onehalf" unicode="&#xbd;" horiz-adv-x="563" 
d="M212 632l-10 -16v-138h-77v14l-306 -492l-43 28l349 563v114l-62 -42l-35 55l103 72h71v-152zM526 -31v-69h-216v66l84 78q49 46 49 75q0 30 -45 30l-82 -8l-3 70q58 11 113 11q97 0 97 -90q0 -35 -13 -59.5t-46 -52.5l-55 -51h117z" />
    <glyph glyph-name="threequarters" unicode="&#xbe;" horiz-adv-x="563" 
d="M0 0zM-224 28l392 632l44 -28l-393 -632zM162 -56h-138v65l60 203h84l-66 -199h60l8 90h68v-90h22v-69h-22v-44h-76v44zM310 477l5 68q61 -8 100 -8q41 0 41 35q0 33 -40 33h-66v63h65q13 0 22.5 10t9.5 25q0 28 -39 28l-89 -7l-5 67q61 9 104 9q110 0 110 -85
q0 -52 -36 -72q22 -9 32.5 -26t10.5 -50q0 -99 -110 -99z" />
    <glyph glyph-name="questiondown" unicode="&#xbf;" horiz-adv-x="439" 
d="M301 373h-102v127h102v-127zM305 225q0 -28 -20 -55t-67 -67q-53 -44 -70 -69t-17 -66t29 -61.5t89 -20.5q43 0 151 21l6 -73q-98 -32 -172 -32q-101 0 -150 38.5t-49 120.5q0 47 7 75.5t25 51.5t54 52q51 42 69.5 66.5t18.5 54.5v34h77q19 -29 19 -70z" />
    <glyph glyph-name="Agrave" unicode="&#xc0;" horiz-adv-x="598" 
d="M22 0zM157 853l30 82l228 -102l-27 -65zM438 161h-278l-43 -161h-95l178 688h198l178 -688h-95zM180 246h238l-93 361h-52z" />
    <glyph glyph-name="Aacute" unicode="&#xc1;" horiz-adv-x="598" 
d="M22 0zM438 161h-278l-43 -161h-95l178 688h198l178 -688h-95zM180 246h238l-93 361h-52zM179 833l227 102l30 -82l-231 -85z" />
    <glyph glyph-name="Acircumflex" unicode="&#xc2;" horiz-adv-x="598" 
d="M22 0zM438 161h-278l-43 -161h-95l178 688h198l178 -688h-95zM180 246h238l-93 361h-52zM257 922h81l134 -139h-102l-72 73l-73 -73h-102z" />
    <glyph glyph-name="Atilde" unicode="&#xc3;" horiz-adv-x="598" 
d="M22 0zM438 161h-278l-43 -161h-95l178 688h198l178 -688h-95zM180 246h238l-93 361h-52zM290 815q-64 26 -76 26q-22 0 -62 -35l-14 -12l-20 69q20 24 48 42t51 18t86 -26t72 -26q20 0 60 34l13 11l21 -69q-20 -25 -45.5 -41.5t-48.5 -16.5q-22 0 -85 26z" />
    <glyph glyph-name="Adieresis" unicode="&#xc4;" horiz-adv-x="598" 
d="M22 0zM438 161h-278l-43 -161h-95l178 688h198l178 -688h-95zM180 246h238l-93 361h-52zM150 897h90v-103h-90v103zM358 897h89v-103h-89v103z" />
    <glyph glyph-name="Aring" unicode="&#xc5;" horiz-adv-x="598" 
d="M438 161h-278l-43 -161h-95l172 666q-24 29 -24 71q0 52 36 82t92 30q57 0 92.5 -30t35.5 -82q0 -41 -23 -69l173 -668h-95zM253 773.5q-16 -12.5 -16 -36.5q0 -20 12.5 -33t34.5 -16h28q22 3 34.5 16t12.5 33q0 23 -16.5 36t-44.5 13q-29 0 -45 -12.5zM180 246h238
l-93 361h-52z" />
    <glyph glyph-name="AE" unicode="&#xc6;" horiz-adv-x="874" 
d="M229 694h600v-91h-331v-203h271v-91h-271v-218h331v-91h-426v157h-239l-49 -157h-97zM403 249l1 354h-106l-109 -354h214z" />
    <glyph glyph-name="Ccedilla" unicode="&#xc7;" horiz-adv-x="544" 
d="M320 -11v-34q63 -1 89 -18.5t26 -64.5q0 -96 -99 -96q-42 0 -75 5l-13 3l4 57q24 -2 60 -2q42 0 42 34q0 30 -42 30h-36v88q-89 8 -137 49.5t-66 114.5t-18 188q0 128 22 204t77.5 114t157.5 38q83 0 192 -24l-3 -79q-95 17 -170 17t-113 -26.5t-51 -85.5t-12 -171
q0 -97 12.5 -149.5t51 -79t117.5 -26.5q66 0 165 17l3 -81q-110 -22 -184 -22z" />
    <glyph glyph-name="Egrave" unicode="&#xc8;" horiz-adv-x="553" 
d="M82 0zM178 604v-214h270v-83h-270v-223h330v-84h-426v688h426v-84h-330zM160 853l30 82l228 -102l-27 -65z" />
    <glyph glyph-name="Eacute" unicode="&#xc9;" horiz-adv-x="553" 
d="M82 0zM178 604v-214h270v-83h-270v-223h330v-84h-426v688h426v-84h-330zM170 833l227 102l30 -82l-231 -85z" />
    <glyph glyph-name="Ecircumflex" unicode="&#xca;" horiz-adv-x="553" 
d="M82 0zM178 604v-214h270v-83h-270v-223h330v-84h-426v688h426v-84h-330zM254 922h81l134 -139h-102l-72 73l-73 -73h-102z" />
    <glyph glyph-name="Edieresis" unicode="&#xcb;" horiz-adv-x="553" 
d="M82 0zM178 604v-214h270v-83h-270v-223h330v-84h-426v688h426v-84h-330zM147 897h90v-103h-90v103zM355 897h89v-103h-89v103z" />
    <glyph glyph-name="Igrave" unicode="&#xcc;" horiz-adv-x="258" 
d="M0 0zM82 688h96v-688h-96v688zM-21 853l30 82l228 -102l-27 -65z" />
    <glyph glyph-name="Iacute" unicode="&#xcd;" horiz-adv-x="258" 
d="M11 0zM82 688h96v-688h-96v688zM11 833l227 102l30 -82l-231 -85z" />
    <glyph glyph-name="Icircumflex" unicode="&#xce;" horiz-adv-x="258" 
d="M0 0zM82 688h96v-688h-96v688zM86 922h81l134 -139h-102l-72 73l-73 -73h-102z" />
    <glyph glyph-name="Idieresis" unicode="&#xcf;" horiz-adv-x="258" 
d="M0 0zM82 688h96v-688h-96v688zM-19 897h90v-103h-90v103zM189 897h89v-103h-89v103z" />
    <glyph glyph-name="Eth" unicode="&#xd0;" horiz-adv-x="645" 
d="M85 300h-63v92h63v302h241q100 0 158 -37t83 -110t25 -189q0 -187 -62.5 -272.5t-203.5 -85.5h-241v300zM326 91q86 0 126.5 62.5t40.5 203.5q0 87 -16 140.5t-52.5 79.5t-98.5 26h-146v-211h149v-92h-149v-209h146z" />
    <glyph glyph-name="Ntilde" unicode="&#xd1;" horiz-adv-x="681" 
d="M82 0zM600 688v-688h-168l-238 604h-16v-604h-96v688h171l233 -604h18v604h96zM334 815q-64 26 -76 26q-22 0 -62 -35l-14 -12l-20 69q20 24 48 42t51 18t86 -26t72 -26q20 0 60 34l13 11l21 -69q-20 -25 -45.5 -41.5t-48.5 -16.5q-22 0 -85 26z" />
    <glyph glyph-name="Ograve" unicode="&#xd2;" horiz-adv-x="658" 
d="M53 0zM166 26q-60 37 -86.5 113.5t-26.5 201.5q0 124 26.5 202.5t87 117t162.5 38.5t162.5 -38.5t87 -116.5t26.5 -204q0 -125 -26 -201t-86 -113t-164 -37q-103 0 -163 37zM437 100.5q38 26.5 53.5 83.5t15.5 156t-16 158.5t-54.5 88t-106.5 28.5t-106.5 -28.5
t-54.5 -87.5t-16 -158q0 -97 15.5 -154t53.5 -85t108 -28t108 26.5zM190 853l30 82l228 -102l-27 -65z" />
    <glyph glyph-name="Oacute" unicode="&#xd3;" horiz-adv-x="658" 
d="M53 0zM166 26q-60 37 -86.5 113.5t-26.5 201.5q0 124 26.5 202.5t87 117t162.5 38.5t162.5 -38.5t87 -116.5t26.5 -204q0 -125 -26 -201t-86 -113t-164 -37q-103 0 -163 37zM437 100.5q38 26.5 53.5 83.5t15.5 156t-16 158.5t-54.5 88t-106.5 28.5t-106.5 -28.5
t-54.5 -87.5t-16 -158q0 -97 15.5 -154t53.5 -85t108 -28t108 26.5zM189 833l227 102l30 -82l-231 -85z" />
    <glyph glyph-name="Ocircumflex" unicode="&#xd4;" horiz-adv-x="658" 
d="M53 0zM166 26q-60 37 -86.5 113.5t-26.5 201.5q0 124 26.5 202.5t87 117t162.5 38.5t162.5 -38.5t87 -116.5t26.5 -204q0 -125 -26 -201t-86 -113t-164 -37q-103 0 -163 37zM437 100.5q38 26.5 53.5 83.5t15.5 156t-16 158.5t-54.5 88t-106.5 28.5t-106.5 -28.5
t-54.5 -87.5t-16 -158q0 -97 15.5 -154t53.5 -85t108 -28t108 26.5zM289 922h81l134 -139h-102l-72 73l-73 -73h-102z" />
    <glyph glyph-name="Otilde" unicode="&#xd5;" horiz-adv-x="658" 
d="M53 0zM166 26q-60 37 -86.5 113.5t-26.5 201.5q0 124 26.5 202.5t87 117t162.5 38.5t162.5 -38.5t87 -116.5t26.5 -204q0 -125 -26 -201t-86 -113t-164 -37q-103 0 -163 37zM437 100.5q38 26.5 53.5 83.5t15.5 156t-16 158.5t-54.5 88t-106.5 28.5t-106.5 -28.5
t-54.5 -87.5t-16 -158q0 -97 15.5 -154t53.5 -85t108 -28t108 26.5zM323 815q-64 26 -76 26q-22 0 -62 -35l-14 -12l-20 69q20 24 48 42t51 18t86 -26t72 -26q20 0 60 34l13 11l21 -69q-20 -25 -45.5 -41.5t-48.5 -16.5q-22 0 -85 26z" />
    <glyph glyph-name="Odieresis" unicode="&#xd6;" horiz-adv-x="658" 
d="M53 0zM166 26q-60 37 -86.5 113.5t-26.5 201.5q0 124 26.5 202.5t87 117t162.5 38.5t162.5 -38.5t87 -116.5t26.5 -204q0 -125 -26 -201t-86 -113t-164 -37q-103 0 -163 37zM437 100.5q38 26.5 53.5 83.5t15.5 156t-16 158.5t-54.5 88t-106.5 28.5t-106.5 -28.5
t-54.5 -87.5t-16 -158q0 -97 15.5 -154t53.5 -85t108 -28t108 26.5zM181 897h90v-103h-90v103zM389 897h89v-103h-89v103z" />
    <glyph glyph-name="multiply" unicode="&#xd7;" 
d="M315 253l151 -151l-60 -60l-151 151l-151 -151l-60 60l151 151l-151 151l60 60l151 -151l151 151l60 -60z" />
    <glyph glyph-name="Oslash" unicode="&#xd8;" horiz-adv-x="658" 
d="M89 -86l59 125q-50 39 -72.5 112.5t-22.5 189.5q0 124 26.5 202.5t87 117t162.5 38.5q70 0 118 -18l58 121l71 -29l-61 -132q90 -78 90 -300q0 -126 -26 -202.5t-86.5 -113t-163.5 -36.5q-63 0 -113 15l-57 -123zM410 600q-33 15 -81 15q-69 0 -107 -28.5t-54 -88
t-16 -160.5q0 -148 40 -203zM437 100.5q38 26.5 53.5 83.5t15.5 156q0 141 -37 203l-215 -459q27 -10 75 -10q70 0 108 26.5z" />
    <glyph glyph-name="Ugrave" unicode="&#xd9;" horiz-adv-x="647" 
d="M76 0zM137 43.5q-61 54.5 -61 172.5v472h96v-474q0 -140 149 -140q78 0 116.5 34t38.5 106v474h95v-472q0 -118 -61.5 -172.5t-186.5 -54.5t-186 54.5zM190 853l30 82l228 -102l-27 -65z" />
    <glyph glyph-name="Uacute" unicode="&#xda;" horiz-adv-x="647" 
d="M76 0zM137 43.5q-61 54.5 -61 172.5v472h96v-474q0 -140 149 -140q78 0 116.5 34t38.5 106v474h95v-472q0 -118 -61.5 -172.5t-186.5 -54.5t-186 54.5zM192 833l227 102l30 -82l-231 -85z" />
    <glyph glyph-name="Ucircumflex" unicode="&#xdb;" horiz-adv-x="647" 
d="M76 0zM137 43.5q-61 54.5 -61 172.5v472h96v-474q0 -140 149 -140q78 0 116.5 34t38.5 106v474h95v-472q0 -118 -61.5 -172.5t-186.5 -54.5t-186 54.5zM283 922h81l134 -139h-102l-72 73l-73 -73h-102z" />
    <glyph glyph-name="Udieresis" unicode="&#xdc;" horiz-adv-x="647" 
d="M76 0zM137 43.5q-61 54.5 -61 172.5v472h96v-474q0 -140 149 -140q78 0 116.5 34t38.5 106v474h95v-472q0 -118 -61.5 -172.5t-186.5 -54.5t-186 54.5zM176 897h90v-103h-90v103zM384 897h89v-103h-89v103z" />
    <glyph glyph-name="Yacute" unicode="&#xdd;" horiz-adv-x="544" 
d="M7 0zM224 286l-217 402h107l158 -307l157 307h108l-217 -402v-286h-96v286zM157 833l227 102l30 -82l-231 -85z" />
    <glyph glyph-name="Thorn" unicode="&#xde;" horiz-adv-x="598" 
d="M82 694h96v-108h156q116 0 172 -56t56 -172q0 -118 -58 -181t-170 -63h-156v-114h-96v694zM333 207q132 0 132 152q0 70 -32 103t-100 33h-155v-288h155z" />
    <glyph glyph-name="germandbls" unicode="&#xdf;" horiz-adv-x="585" 
d="M237 3l-22 4l3 77q90 -12 126 -12q60 0 87 21t27 61q0 28 -9.5 45t-30 30t-64.5 33q-65 30 -89.5 57.5t-24.5 68.5t17.5 63.5t59.5 41.5q40 17 53.5 33t13.5 50t-25.5 49t-83.5 15q-63 0 -88 -23.5t-25 -85.5v-531h-93v538q0 101 47.5 143t157.5 42q109 0 158 -35
t49 -113q0 -51 -19 -79t-62 -47q-37 -16 -50.5 -25.5t-13.5 -25.5q0 -14 8.5 -21t42.5 -25l47 -26q68 -33 94 -64.5t26 -88.5q0 -69 -19.5 -108.5t-63 -57.5t-118.5 -18q-49 0 -116 14z" />
    <glyph glyph-name="agrave" unicode="&#xe0;" horiz-adv-x="504" 
d="M37 0zM74 29q-37 40 -37 115q0 74 38 108.5t121 42.5l142 13v39q0 44 -19 63.5t-56 19.5q-84 0 -194 -12l-3 68q106 25 197 25q88 0 128 -39.5t40 -124.5v-241q2 -20 13.5 -30.5t36.5 -14.5l-3 -72q-43 0 -73 9.5t-53 29.5q-85 -39 -170 -39q-71 0 -108 40zM317 86l21 7
v147l-130 -12q-39 -4 -57.5 -23.5t-18.5 -57.5q0 -80 67 -80q61 0 118 19zM115 664l30 80l228 -99l-24 -62z" />
    <glyph glyph-name="aacute" unicode="&#xe1;" horiz-adv-x="504" 
d="M37 0zM74 29q-37 40 -37 115q0 74 38 108.5t121 42.5l142 13v39q0 44 -19 63.5t-56 19.5q-84 0 -194 -12l-3 68q106 25 197 25q88 0 128 -39.5t40 -124.5v-241q2 -20 13.5 -30.5t36.5 -14.5l-3 -72q-43 0 -73 9.5t-53 29.5q-85 -39 -170 -39q-71 0 -108 40zM317 86l21 7
v147l-130 -12q-39 -4 -57.5 -23.5t-18.5 -57.5q0 -80 67 -80q61 0 118 19zM111 645l228 99l30 -80l-234 -81z" />
    <glyph glyph-name="acircumflex" unicode="&#xe2;" horiz-adv-x="504" 
d="M37 0zM74 29q-37 40 -37 115q0 74 38 108.5t121 42.5l142 13v39q0 44 -19 63.5t-56 19.5q-84 0 -194 -12l-3 68q106 25 197 25q88 0 128 -39.5t40 -124.5v-241q2 -20 13.5 -30.5t36.5 -14.5l-3 -72q-43 0 -73 9.5t-53 29.5q-85 -39 -170 -39q-71 0 -108 40zM317 86l21 7
v147l-130 -12q-39 -4 -57.5 -23.5t-18.5 -57.5q0 -80 67 -80q61 0 118 19zM215 732h62l125 -144h-90l-65 81l-66 -81h-90z" />
    <glyph glyph-name="atilde" unicode="&#xe3;" horiz-adv-x="504" 
d="M37 0zM74 29q-37 40 -37 115q0 74 38 108.5t121 42.5l142 13v39q0 44 -19 63.5t-56 19.5q-84 0 -194 -12l-3 68q106 25 197 25q88 0 128 -39.5t40 -124.5v-241q2 -20 13.5 -30.5t36.5 -14.5l-3 -72q-43 0 -73 9.5t-53 29.5q-85 -39 -170 -39q-71 0 -108 40zM317 86l21 7
v147l-130 -12q-39 -4 -57.5 -23.5t-18.5 -57.5q0 -80 67 -80q61 0 118 19zM230 626q-50 21 -63 21q-25 0 -63 -28l-13 -9l-22 56q24 26 49.5 40.5t46.5 14.5q19 0 71 -22q51 -21 62 -21q23 0 61 28l13 9l21 -57q-22 -24 -46.5 -39t-45.5 -15q-23 0 -71 22z" />
    <glyph glyph-name="adieresis" unicode="&#xe4;" horiz-adv-x="504" 
d="M37 0zM74 29q-37 40 -37 115q0 74 38 108.5t121 42.5l142 13v39q0 44 -19 63.5t-56 19.5q-84 0 -194 -12l-3 68q106 25 197 25q88 0 128 -39.5t40 -124.5v-241q2 -20 13.5 -30.5t36.5 -14.5l-3 -72q-43 0 -73 9.5t-53 29.5q-85 -39 -170 -39q-71 0 -108 40zM317 86l21 7
v147l-130 -12q-39 -4 -57.5 -23.5t-18.5 -57.5q0 -80 67 -80q61 0 118 19zM92 716h90v-103h-90v103zM297 716h90v-103h-90v103z" />
    <glyph glyph-name="aring" unicode="&#xe5;" horiz-adv-x="504" 
d="M37 0zM74 29q-37 40 -37 115q0 74 38 108.5t121 42.5l142 13v39q0 44 -19 63.5t-56 19.5q-84 0 -194 -12l-3 68q106 25 197 25q88 0 128 -39.5t40 -124.5v-241q2 -20 13.5 -30.5t36.5 -14.5l-3 -72q-43 0 -73 9.5t-53 29.5q-85 -39 -170 -39q-71 0 -108 40zM317 86l21 7
v147l-130 -12q-39 -4 -57.5 -23.5t-18.5 -57.5q0 -80 67 -80q61 0 118 19zM182.5 566.5q-30.5 31.5 -30.5 77.5q0 45 30.5 76t75.5 31q44 0 75 -31.5t31 -75.5q0 -46 -31 -77.5t-75 -31.5q-45 0 -75.5 31.5zM295 605.5q15 15.5 15 38.5q0 22 -15 37t-37 15t-37 -15t-15 -37
q0 -23 15 -38.5t37 -15.5t37 15.5z" />
    <glyph glyph-name="ae" unicode="&#xe6;" horiz-adv-x="798" 
d="M72.5 29.5q-35.5 40.5 -35.5 118.5q0 52 18 82.5t56 46t104 21.5l123 10v36q0 77 -77 77q-61 0 -159 -8l-31 -2l-3 82q116 17 202 17q96 0 131 -62q49 62 147 62q105 0 156.5 -56.5t51.5 -174.5l-6 -69h-319q1 -69 29 -102.5t84 -33.5q70 0 164 7l29 2l2 -74
q-117 -20 -206 -20q-92 0 -142 53l-29 -14q-85 -39 -183 -39q-71 0 -106.5 40.5zM663 284q0 78 -26 110.5t-87 32.5t-90 -34.5t-29 -108.5h232zM268 79.5q40 9.5 69 20.5l-1 134l-128 -9q-40 -3 -58 -21.5t-18 -55.5q0 -78 61 -78q35 0 75 9.5z" />
    <glyph glyph-name="ccedilla" unicode="&#xe7;" horiz-adv-x="439" 
d="M340 -63.5q26 -17.5 26 -64.5q0 -96 -99 -96q-42 0 -75 5l-13 3l4 57q24 -2 60 -2q42 0 42 34q0 30 -42 30h-36v88q-86 11 -123 72.5t-37 186.5q0 124 43.5 192.5t157.5 68.5q29 0 62 -3.5t89 -14.5l-3 -74q-85 8 -120 8q-53 0 -82 -16t-40.5 -54t-11.5 -108
q0 -68 11.5 -105t40.5 -54t85 -17l118 9l3 -76q-99 -17 -149 -17v-34q63 -1 89 -18.5z" />
    <glyph glyph-name="egrave" unicode="&#xe8;" horiz-adv-x="507" 
d="M46 0zM95 48.5q-49 59.5 -49 188.5q0 139 52.5 206.5t162.5 67.5q204 0 204 -232l-6 -68h-319q1 -54 14 -83.5t42 -42.5t82 -13q31 0 70 1.5t70 4.5l28 3l2 -72q-117 -20 -189 -20q-115 0 -164 59.5zM372 284q0 81 -25.5 115t-85.5 34q-63 0 -92 -35.5t-30 -113.5h233z
M118 664l30 80l228 -99l-24 -62z" />
    <glyph glyph-name="eacute" unicode="&#xe9;" horiz-adv-x="507" 
d="M46 0zM95 48.5q-49 59.5 -49 188.5q0 139 52.5 206.5t162.5 67.5q204 0 204 -232l-6 -68h-319q1 -54 14 -83.5t42 -42.5t82 -13q31 0 70 1.5t70 4.5l28 3l2 -72q-117 -20 -189 -20q-115 0 -164 59.5zM372 284q0 81 -25.5 115t-85.5 34q-63 0 -92 -35.5t-30 -113.5h233z
M132 645l228 99l30 -80l-234 -81z" />
    <glyph glyph-name="ecircumflex" unicode="&#xea;" horiz-adv-x="507" 
d="M46 0zM95 48.5q-49 59.5 -49 188.5q0 139 52.5 206.5t162.5 67.5q204 0 204 -232l-6 -68h-319q1 -54 14 -83.5t42 -42.5t82 -13q31 0 70 1.5t70 4.5l28 3l2 -72q-117 -20 -189 -20q-115 0 -164 59.5zM372 284q0 81 -25.5 115t-85.5 34q-63 0 -92 -35.5t-30 -113.5h233z
M228 732h62l125 -144h-90l-65 81l-66 -81h-90z" />
    <glyph glyph-name="edieresis" unicode="&#xeb;" horiz-adv-x="507" 
d="M46 0zM95 48.5q-49 59.5 -49 188.5q0 139 52.5 206.5t162.5 67.5q204 0 204 -232l-6 -68h-319q1 -54 14 -83.5t42 -42.5t82 -13q31 0 70 1.5t70 4.5l28 3l2 -72q-117 -20 -189 -20q-115 0 -164 59.5zM372 284q0 81 -25.5 115t-85.5 34q-63 0 -92 -35.5t-30 -113.5h233z
M108 716h90v-103h-90v103zM313 716h90v-103h-90v103z" />
    <glyph glyph-name="igrave" unicode="&#xec;" horiz-adv-x="230" 
d="M0 0zM69 500h93v-500h-93v500zM-60 664l30 80l228 -99l-24 -62z" />
    <glyph glyph-name="iacute" unicode="&#xed;" horiz-adv-x="230" 
d="M35 0zM69 500h93v-500h-93v500zM35 645l228 99l30 -80l-234 -81z" />
    <glyph glyph-name="icircumflex" unicode="&#xee;" horiz-adv-x="230" 
d="M0 0zM69 500h93v-500h-93v500zM81 732h62l125 -144h-90l-65 81l-66 -81h-90z" />
    <glyph glyph-name="idieresis" unicode="&#xef;" horiz-adv-x="230" 
d="M0 0zM69 500h93v-500h-93v500zM-37 716h90v-103h-90v103zM168 716h90v-103h-90v103z" />
    <glyph glyph-name="eth" unicode="&#xf0;" horiz-adv-x="554" 
d="M99 48q-58 57 -58 164q0 104 55.5 162t156.5 58q65 0 132 -24l22 -8q-4 61 -33.5 107t-88.5 79l-124 -82l-39 56l89 60q-71 24 -119 35l16 68q108 -17 184 -49l99 66l40 -56l-69 -47q144 -94 144 -285q0 -129 -24.5 -208t-77 -116t-137.5 -37q-110 0 -168 57zM375 130.5
q32 55.5 33 187.5q-79 32 -147 32q-59 0 -90.5 -37.5t-31.5 -100.5q0 -66 33.5 -101.5t99.5 -35.5q71 0 103 55.5z" />
    <glyph glyph-name="ntilde" unicode="&#xf1;" horiz-adv-x="542" 
d="M69 0zM69 500h92v-33q43 24 78 34t74 10q63 0 99 -25t51 -77.5t15 -142.5v-266h-93v264q0 63 -7.5 97.5t-28 50t-59.5 15.5q-53 0 -111 -23l-17 -8v-396h-93v500zM277 626q-50 21 -63 21q-25 0 -63 -28l-13 -9l-22 56q24 26 49.5 40.5t46.5 14.5q19 0 71 -22
q51 -21 62 -21q23 0 61 28l13 9l21 -57q-22 -24 -46.5 -39t-45.5 -15q-23 0 -71 22z" />
    <glyph glyph-name="ograve" unicode="&#xf2;" horiz-adv-x="529" 
d="M46 0zM97 51.5q-51 62.5 -51 196.5q0 137 52 200t167 63q116 0 167.5 -63.5t51.5 -199.5q0 -133 -51 -196t-168 -63t-168 62.5zM339.5 87q26.5 17 37.5 55t11 106q0 71 -11.5 110t-38 55.5t-73.5 16.5t-74 -16.5t-38.5 -56t-11.5 -109.5q0 -67 11 -105.5t38 -55.5t75 -17
t74.5 17zM135 664l30 80l228 -99l-24 -62z" />
    <glyph glyph-name="oacute" unicode="&#xf3;" horiz-adv-x="529" 
d="M46 0zM97 51.5q-51 62.5 -51 196.5q0 137 52 200t167 63q116 0 167.5 -63.5t51.5 -199.5q0 -133 -51 -196t-168 -63t-168 62.5zM339.5 87q26.5 17 37.5 55t11 106q0 71 -11.5 110t-38 55.5t-73.5 16.5t-74 -16.5t-38.5 -56t-11.5 -109.5q0 -67 11 -105.5t38 -55.5t75 -17
t74.5 17zM142 645l228 99l30 -80l-234 -81z" />
    <glyph glyph-name="ocircumflex" unicode="&#xf4;" horiz-adv-x="529" 
d="M46 0zM97 51.5q-51 62.5 -51 196.5q0 137 52 200t167 63q116 0 167.5 -63.5t51.5 -199.5q0 -133 -51 -196t-168 -63t-168 62.5zM339.5 87q26.5 17 37.5 55t11 106q0 71 -11.5 110t-38 55.5t-73.5 16.5t-74 -16.5t-38.5 -56t-11.5 -109.5q0 -67 11 -105.5t38 -55.5t75 -17
t74.5 17zM230 732h62l125 -144h-90l-65 81l-66 -81h-90z" />
    <glyph glyph-name="otilde" unicode="&#xf5;" horiz-adv-x="529" 
d="M46 0zM97 51.5q-51 62.5 -51 196.5q0 137 52 200t167 63q116 0 167.5 -63.5t51.5 -199.5q0 -133 -51 -196t-168 -63t-168 62.5zM339.5 87q26.5 17 37.5 55t11 106q0 71 -11.5 110t-38 55.5t-73.5 16.5t-74 -16.5t-38.5 -56t-11.5 -109.5q0 -67 11 -105.5t38 -55.5t75 -17
t74.5 17zM261 626q-50 21 -63 21q-25 0 -63 -28l-13 -9l-22 56q24 26 49.5 40.5t46.5 14.5q19 0 71 -22q51 -21 62 -21q23 0 61 28l13 9l21 -57q-22 -24 -46.5 -39t-45.5 -15q-23 0 -71 22z" />
    <glyph glyph-name="odieresis" unicode="&#xf6;" horiz-adv-x="529" 
d="M46 0zM97 51.5q-51 62.5 -51 196.5q0 137 52 200t167 63q116 0 167.5 -63.5t51.5 -199.5q0 -133 -51 -196t-168 -63t-168 62.5zM339.5 87q26.5 17 37.5 55t11 106q0 71 -11.5 110t-38 55.5t-73.5 16.5t-74 -16.5t-38.5 -56t-11.5 -109.5q0 -67 11 -105.5t38 -55.5t75 -17
t74.5 17zM115 716h90v-103h-90v103zM320 716h90v-103h-90v103z" />
    <glyph glyph-name="divide" unicode="&#xf7;" 
d="M233 567h93v-110h-93v110zM98 341h363v-88h-363v88zM233 137h93v-111h-93v111z" />
    <glyph glyph-name="oslash" unicode="&#xf8;" horiz-adv-x="529" 
d="M91 -89l44 107q-47 27 -68 84.5t-21 151.5q0 132 51 194.5t168 62.5q29 0 68 -7l42 102l60 -22l-43 -102q92 -53 92 -228q0 -140 -50.5 -202.5t-168.5 -62.5q-38 0 -72 8l-43 -108zM303 426l-38 4q-69 0 -96.5 -38t-27.5 -124q0 -67 6 -106t27 -58zM341.5 87.5
q26.5 17.5 36.5 57t10 111.5q0 104 -33 140l-132 -323q15 -3 42 -3q50 0 76.5 17.5z" />
    <glyph glyph-name="ugrave" unicode="&#xf9;" horiz-adv-x="538" 
d="M64 0zM127 13.5q-35 24.5 -49 78t-14 147.5v261h93v-261q0 -69 7 -103.5t26.5 -48.5t59.5 -14q33 0 62.5 8t63.5 23v396h93v-500h-93v33q-42 -24 -75.5 -34t-73.5 -10q-65 0 -100 24.5zM109 664l30 80l228 -99l-24 -62z" />
    <glyph glyph-name="uacute" unicode="&#xfa;" horiz-adv-x="538" 
d="M64 0zM127 13.5q-35 24.5 -49 78t-14 147.5v261h93v-261q0 -69 7 -103.5t26.5 -48.5t59.5 -14q33 0 62.5 8t63.5 23v396h93v-500h-93v33q-42 -24 -75.5 -34t-73.5 -10q-65 0 -100 24.5zM147 645l228 99l30 -80l-234 -81z" />
    <glyph glyph-name="ucircumflex" unicode="&#xfb;" horiz-adv-x="538" 
d="M64 0zM127 13.5q-35 24.5 -49 78t-14 147.5v261h93v-261q0 -69 7 -103.5t26.5 -48.5t59.5 -14q33 0 62.5 8t63.5 23v396h93v-500h-93v33q-42 -24 -75.5 -34t-73.5 -10q-65 0 -100 24.5zM221 732h62l125 -144h-90l-65 81l-66 -81h-90z" />
    <glyph glyph-name="udieresis" unicode="&#xfc;" horiz-adv-x="538" 
d="M64 0zM127 13.5q-35 24.5 -49 78t-14 147.5v261h93v-261q0 -69 7 -103.5t26.5 -48.5t59.5 -14q33 0 62.5 8t63.5 23v396h93v-500h-93v33q-42 -24 -75.5 -34t-73.5 -10q-65 0 -100 24.5zM124 716h90v-103h-90v103zM329 716h90v-103h-90v103z" />
    <glyph glyph-name="yacute" unicode="&#xfd;" horiz-adv-x="488" 
d="M22 0zM239 0h-81l-136 500h93l114 -420h30l115 420h93l-198 -718h-92zM144 645l228 99l30 -80l-234 -81z" />
    <glyph glyph-name="thorn" unicode="&#xfe;" horiz-adv-x="532" 
d="M69 712h93v-234q72 33 134 33q70 0 111 -25t59.5 -81.5t18.5 -153.5q0 -98 -22 -154.5t-71 -82t-134 -25.5l-96 8v-215h-93v930zM336.5 88q29.5 18 41.5 57t12 108q0 94 -23.5 134t-80.5 40q-53 0 -106 -18l-18 -6v-327q59 -6 90 -6q55 0 84.5 18z" />
    <glyph glyph-name="ydieresis" unicode="&#xff;" horiz-adv-x="488" 
d="M22 0zM239 0h-81l-136 500h93l114 -420h30l115 420h93l-198 -718h-92zM96 716h90v-103h-90v103zM301 716h90v-103h-90v103z" />
    <glyph glyph-name="Amacron" unicode="&#x100;" horiz-adv-x="598" 
d="M22 0zM438 161h-278l-43 -161h-95l178 688h198l178 -688h-95zM180 246h238l-93 361h-52zM136 873h322v-70h-322v70z" />
    <glyph glyph-name="amacron" unicode="&#x101;" horiz-adv-x="504" 
d="M37 0zM74 29q-37 40 -37 115q0 74 38 108.5t121 42.5l142 13v39q0 44 -19 63.5t-56 19.5q-84 0 -194 -12l-3 68q106 25 197 25q88 0 128 -39.5t40 -124.5v-241q2 -20 13.5 -30.5t36.5 -14.5l-3 -72q-43 0 -73 9.5t-53 29.5q-85 -39 -170 -39q-71 0 -108 40zM317 86l21 7
v147l-130 -12q-39 -4 -57.5 -23.5t-18.5 -57.5q0 -80 67 -80q61 0 118 19zM111 687h279v-71h-279v71z" />
    <glyph glyph-name="Abreve" unicode="&#x102;" horiz-adv-x="598" 
d="M22 0zM438 161h-278l-43 -161h-95l178 688h198l178 -688h-95zM180 246h238l-93 361h-52zM179 815.5q-44 37.5 -49 100.5h85q2 -31 25 -50.5t57 -19.5q33 0 56 19.5t24 50.5h86q-5 -63 -49.5 -100.5t-117.5 -37.5t-117 37.5z" />
    <glyph glyph-name="abreve" unicode="&#x103;" horiz-adv-x="506" 
d="M131.5 629.5q-44.5 40.5 -49.5 108.5h96q3 -31 22 -48.5t53 -17.5q33 0 52.5 18t21.5 48h97q-5 -68 -50 -108.5t-121 -40.5q-77 0 -121.5 40.5zM73.5 30q-36.5 41 -36.5 116q0 73 38 108t121 42l142 12v36q0 38 -19.5 57.5t-56.5 19.5q-66 0 -192 -11l-3 80l33 5
q99 15 168 15q83 0 123 -39.5t40 -125.5v-228q1 -22 12.5 -32.5t36.5 -14.5l-2 -81q-46 0 -75 9t-51 28l-25 -9q-30 -11 -71.5 -19.5t-78.5 -8.5q-67 0 -103.5 41zM338 95v139l-130 -9q-76 -6 -76 -77q0 -37 16 -57.5t45 -20.5q67 0 145 25z" />
    <glyph glyph-name="Aogonek" unicode="&#x104;" horiz-adv-x="598" 
d="M594 -199q-47 -10 -89 -10q-40 0 -67 24.5t-27 59.5q0 32 18.5 64t42.5 53l10 8h-1l-43 161h-278l-43 -161h-95l178 688h198l178 -688h-10q-66 -63 -66 -95q0 -19 10.5 -29.5t27.5 -10.5l47 5zM180 246h238l-93 361h-52z" />
    <glyph glyph-name="aogonek" unicode="&#x105;" horiz-adv-x="504" 
d="M472 -130l9 -69q-47 -10 -89 -10q-40 0 -67 24.5t-27 59.5q0 32 18.5 64t42.5 53l21 17q-15 8 -28 19q-85 -39 -170 -39q-71 0 -108 40t-37 115q0 74 38 108.5t121 42.5l142 13v39q0 44 -19 63.5t-56 19.5q-84 0 -194 -12l-3 68q106 25 197 25q88 0 128 -39.5t40 -124.5
v-241q2 -20 13.5 -30.5t36.5 -14.5l-3 -72q-13 0 -35 2q-56 -55 -56 -86q0 -19 10.5 -29.5t27.5 -10.5zM338 240l-130 -12q-39 -4 -57.5 -23.5t-18.5 -57.5q0 -80 67 -80q61 0 118 19l21 7v147z" />
    <glyph glyph-name="Cacute" unicode="&#x106;" horiz-adv-x="544" 
d="M55 0zM155 28.5q-57 39.5 -78.5 115t-21.5 199.5q0 128 22 204t77.5 114t157.5 38q83 0 192 -24l-3 -79q-95 17 -170 17t-113 -26.5t-51 -85.5t-12 -171q0 -97 12.5 -149.5t51 -79t117.5 -26.5q66 0 165 17l3 -81q-110 -22 -185 -22q-107 0 -164 39.5zM171 833l227 102
l30 -82l-231 -85z" />
    <glyph glyph-name="cacute" unicode="&#x107;" horiz-adv-x="439" 
d="M47 0zM130.5 16q-44.5 27 -64 84t-19.5 150q0 124 43.5 192.5t157.5 68.5q29 0 62 -3.5t89 -14.5l-3 -74q-85 8 -120 8q-53 0 -82 -16t-40.5 -54t-11.5 -108q0 -68 11.5 -105t40.5 -54t85 -17l118 9l3 -76q-100 -17 -151 -17q-74 0 -118.5 27zM117 645l228 99l30 -80
l-234 -81z" />
    <glyph glyph-name="Ccircumflex" unicode="&#x108;" horiz-adv-x="544" 
d="M55 0zM155 28.5q-57 39.5 -78.5 115t-21.5 199.5q0 128 22 204t77.5 114t157.5 38q83 0 192 -24l-3 -79q-95 17 -170 17t-113 -26.5t-51 -85.5t-12 -171q0 -97 12.5 -149.5t51 -79t117.5 -26.5q66 0 165 17l3 -81q-110 -22 -185 -22q-107 0 -164 39.5zM267 922h81
l134 -139h-102l-72 73l-73 -73h-102z" />
    <glyph glyph-name="ccircumflex" unicode="&#x109;" horiz-adv-x="439" 
d="M47 0zM130.5 16q-44.5 27 -64 84t-19.5 150q0 124 43.5 192.5t157.5 68.5q29 0 62 -3.5t89 -14.5l-3 -74q-85 8 -120 8q-53 0 -82 -16t-40.5 -54t-11.5 -108q0 -68 11.5 -105t40.5 -54t85 -17l118 9l3 -76q-100 -17 -151 -17q-74 0 -118.5 27zM198 732h62l125 -144h-90
l-65 81l-66 -81h-90z" />
    <glyph glyph-name="Cdotaccent" unicode="&#x10a;" horiz-adv-x="544" 
d="M55 0zM155 28.5q-57 39.5 -78.5 115t-21.5 199.5q0 128 22 204t77.5 114t157.5 38q83 0 192 -24l-3 -79q-95 17 -170 17t-113 -26.5t-51 -85.5t-12 -171q0 -97 12.5 -149.5t51 -79t117.5 -26.5q66 0 165 17l3 -81q-110 -22 -185 -22q-107 0 -164 39.5zM244 890h92v-102
h-92v102z" />
    <glyph glyph-name="cdotaccent" unicode="&#x10b;" horiz-adv-x="439" 
d="M47 0zM130.5 16q-44.5 27 -64 84t-19.5 150q0 124 43.5 192.5t157.5 68.5q29 0 62 -3.5t89 -14.5l-3 -74q-85 8 -120 8q-53 0 -82 -16t-40.5 -54t-11.5 -108q0 -68 11.5 -105t40.5 -54t85 -17l118 9l3 -76q-100 -17 -151 -17q-74 0 -118.5 27zM207 694h92v-101h-92v101z
" />
    <glyph glyph-name="Ccaron" unicode="&#x10c;" horiz-adv-x="544" 
d="M55 0zM155 28.5q-57 39.5 -78.5 115t-21.5 199.5q0 128 22 204t77.5 114t157.5 38q83 0 192 -24l-3 -79q-95 17 -170 17t-113 -26.5t-51 -85.5t-12 -171q0 -97 12.5 -149.5t51 -79t117.5 -26.5q66 0 165 17l3 -81q-110 -22 -185 -22q-107 0 -164 39.5zM131 922h102
l73 -72l72 72h102l-134 -139h-81z" />
    <glyph glyph-name="ccaron" unicode="&#x10d;" horiz-adv-x="439" 
d="M47 0zM130.5 16q-44.5 27 -64 84t-19.5 150q0 124 43.5 192.5t157.5 68.5q29 0 62 -3.5t89 -14.5l-3 -74q-85 8 -120 8q-53 0 -82 -16t-40.5 -54t-11.5 -108q0 -68 11.5 -105t40.5 -54t85 -17l118 9l3 -76q-100 -17 -151 -17q-74 0 -118.5 27zM175 732l66 -81l65 81h89
l-125 -144h-61l-124 144h90z" />
    <glyph glyph-name="Dcaron" unicode="&#x10e;" horiz-adv-x="643" 
d="M82 0zM489 646q58 -42 79 -112.5t21 -174.5q0 -128 -27 -206.5t-85 -115.5t-154 -37h-241v688h241q108 0 166 -42zM452 150.5q39 66.5 39 206.5q0 89 -16.5 143t-53 79t-98.5 25h-145v-520h145q90 0 129 66.5zM123 922h102l73 -72l72 72h102l-134 -139h-81z" />
    <glyph glyph-name="dcaron" unicode="&#x10f;" horiz-adv-x="535" 
d="M46 0zM88 51.5q-42 62.5 -42 190.5q0 142 50 205.5t160 63.5q53 0 117 -14v215h93v-712h-93v30q-78 -41 -146 -41q-97 0 -139 62.5zM301 80q31 7 54 16l18 7v315q-62 12 -106 12q-69 0 -97 -42t-28 -141q0 -90 23.5 -132t80.5 -42q24 0 55 7zM568 681h91l-51 -215h-83z
" />
    <glyph glyph-name="Dcroat" unicode="&#x110;" horiz-adv-x="645" 
d="M85 300h-63v92h63v302h241q100 0 158 -37t83 -110t25 -189q0 -187 -62.5 -272.5t-203.5 -85.5h-241v300zM326 91q86 0 126.5 62.5t40.5 203.5q0 87 -16 140.5t-52.5 79.5t-98.5 26h-146v-211h149v-92h-149v-209h146z" />
    <glyph glyph-name="dcroat" unicode="&#x111;" horiz-adv-x="540" 
d="M88 49q-45 60 -45 197q0 138 50 201.5t158 63.5q39 0 114 -13v124h-210v94h311v-8h8v-708h-108v26q-73 -37 -134 -37q-99 0 -144 60zM348 104l17 7v296q-57 10 -111 10q-101 0 -101 -168q0 -90 23 -126.5t75 -36.5q51 0 97 18z" />
    <glyph glyph-name="Emacron" unicode="&#x112;" horiz-adv-x="553" 
d="M82 0zM178 604v-214h270v-83h-270v-223h330v-84h-426v688h426v-84h-330zM131 873h322v-70h-322v70z" />
    <glyph glyph-name="emacron" unicode="&#x113;" horiz-adv-x="507" 
d="M46 0zM95 48.5q-49 59.5 -49 188.5q0 139 52.5 206.5t162.5 67.5q204 0 204 -232l-6 -68h-319q1 -54 14 -83.5t42 -42.5t82 -13q31 0 70 1.5t70 4.5l28 3l2 -72q-117 -20 -189 -20q-115 0 -164 59.5zM372 284q0 81 -25.5 115t-85.5 34q-63 0 -92 -35.5t-30 -113.5h233z
M120 687h279v-71h-279v71z" />
    <glyph glyph-name="Ebreve" unicode="&#x114;" horiz-adv-x="553" 
d="M82 0zM178 604v-214h270v-83h-270v-223h330v-84h-426v688h426v-84h-330zM186 815.5q-44 37.5 -49 100.5h85q2 -31 25 -50.5t57 -19.5q33 0 56 19.5t24 50.5h86q-5 -63 -49.5 -100.5t-117.5 -37.5t-117 37.5z" />
    <glyph glyph-name="ebreve" unicode="&#x115;" horiz-adv-x="507" 
d="M46 0zM150.5 623q-41.5 41 -46.5 104h73q3 -36 24 -57t57 -21q35 0 56 20.5t23 57.5h74q-5 -63 -46.5 -104t-106.5 -41q-66 0 -107.5 41zM95 48.5q-49 59.5 -49 188.5q0 139 52.5 206.5t162.5 67.5q204 0 204 -232l-6 -68h-319q1 -54 14 -83.5t42 -42.5t82 -13
q31 0 70 1.5t70 4.5l28 3l2 -72q-117 -20 -189 -20q-115 0 -164 59.5zM372 284q0 81 -25.5 115t-85.5 34q-63 0 -92 -35.5t-30 -113.5h233z" />
    <glyph glyph-name="Edotaccent" unicode="&#x116;" horiz-adv-x="553" 
d="M82 0zM178 604v-214h270v-83h-270v-223h330v-84h-426v688h426v-84h-330zM252 892h92v-102h-92v102z" />
    <glyph glyph-name="edotaccent" unicode="&#x117;" horiz-adv-x="507" 
d="M46 0zM95 48.5q-49 59.5 -49 188.5q0 139 52.5 206.5t162.5 67.5q204 0 204 -232l-6 -68h-319q1 -54 14 -83.5t42 -42.5t82 -13q31 0 70 1.5t70 4.5l28 3l2 -72q-117 -20 -189 -20q-115 0 -164 59.5zM372 284q0 81 -25.5 115t-85.5 34q-63 0 -92 -35.5t-30 -113.5h233z
M209 694h92v-101h-92v101z" />
    <glyph glyph-name="Eogonek" unicode="&#x118;" horiz-adv-x="553" 
d="M178 604v-214h270v-83h-270v-223h330v-84h-28q-66 -63 -66 -95q0 -19 10.5 -29.5t27.5 -10.5l47 5l9 -69q-47 -10 -89 -10q-40 0 -67 24.5t-27 59.5q0 32 18.5 64t42.5 53l10 8h-314v688h426v-84h-330z" />
    <glyph glyph-name="eogonek" unicode="&#x119;" horiz-adv-x="507" 
d="M459 211h-319q1 -54 14 -83.5t42 -42.5t82 -13q31 0 70 1.5t70 4.5l28 3l2 -72q-15 -3 -45 -7l9 -1q-67 -63 -67 -96q0 -19 10.5 -29.5t27.5 -10.5l47 5l9 -69q-47 -10 -89 -10q-40 0 -67 24.5t-27 59.5q0 32 18.5 64t42.5 53q-33 -3 -58 -3q-115 0 -164 59.5t-49 188.5
q0 139 52.5 206.5t162.5 67.5q204 0 204 -232zM372 284q0 81 -25.5 115t-85.5 34q-63 0 -92 -35.5t-30 -113.5h233z" />
    <glyph glyph-name="Ecaron" unicode="&#x11a;" horiz-adv-x="553" 
d="M82 0zM178 604v-214h270v-83h-270v-223h330v-84h-426v688h426v-84h-330zM113 922h102l73 -72l72 72h102l-134 -139h-81z" />
    <glyph glyph-name="ecaron" unicode="&#x11b;" horiz-adv-x="507" 
d="M46 0zM95 48.5q-49 59.5 -49 188.5q0 139 52.5 206.5t162.5 67.5q204 0 204 -232l-6 -68h-319q1 -54 14 -83.5t42 -42.5t82 -13q31 0 70 1.5t70 4.5l28 3l2 -72q-117 -20 -189 -20q-115 0 -164 59.5zM372 284q0 81 -25.5 115t-85.5 34q-63 0 -92 -35.5t-30 -113.5h233z
M188 732l66 -81l65 81h89l-125 -144h-61l-124 144h90z" />
    <glyph glyph-name="Gcircumflex" unicode="&#x11c;" horiz-adv-x="614" 
d="M53 0zM163.5 27q-59.5 38 -85 115.5t-25.5 202.5t26 202t84.5 114.5t157.5 37.5q90 0 196 -20l35 -7l-4 -77q-123 18 -209 18q-78 0 -118 -28.5t-54 -86t-14 -160.5q0 -99 15.5 -155.5t54.5 -82.5t110 -26q68 0 124 10v188h-99v85h194v-344q-132 -24 -228 -24
q-101 0 -160.5 38zM284 922h81l134 -139h-102l-72 73l-73 -73h-102z" />
    <glyph glyph-name="gcircumflex" unicode="&#x11d;" horiz-adv-x="520" 
d="M46 0zM96.5 -200.5q-50.5 32.5 -50.5 108.5q0 43 16.5 68.5t60.5 59.5q-16 11 -23.5 29t-7.5 38q0 14 6.5 29.5t29.5 54.5q-76 40 -76 149q0 174 195 174q46 0 102 -13l152 4v-77l-89 3q16 -18 23 -39.5t7 -55.5q0 -89 -47.5 -127.5t-148.5 -38.5q-30 0 -49 4
q-16 -38 -16 -55q0 -24 19.5 -31t60.5 -7h35q70 -1 112 -11t65 -40.5t23 -88.5q0 -88 -56.5 -129t-182.5 -41q-110 0 -160.5 32.5zM325.5 262q23.5 23 23.5 76q0 52 -24 75t-77 23q-54 0 -78.5 -23.5t-24.5 -75.5t24.5 -75t78.5 -23t77.5 23zM370.5 -136.5
q30.5 19.5 30.5 66.5q0 28 -11.5 41.5t-34.5 18t-68 5.5l-102 6q-27 -21 -37 -38t-10 -41q0 -43 29 -60.5t98 -17.5q75 0 105.5 19.5zM233 732h62l125 -144h-90l-65 81l-66 -81h-90z" />
    <glyph glyph-name="Gbreve" unicode="&#x11e;" horiz-adv-x="614" 
d="M53 0zM163.5 27q-59.5 38 -85 115.5t-25.5 202.5t26 202t84.5 114.5t157.5 37.5q90 0 196 -20l35 -7l-4 -77q-123 18 -209 18q-78 0 -118 -28.5t-54 -86t-14 -160.5q0 -99 15.5 -155.5t54.5 -82.5t110 -26q68 0 124 10v188h-99v85h194v-344q-132 -24 -228 -24
q-101 0 -160.5 38zM209 815.5q-44 37.5 -49 100.5h85q2 -31 25 -50.5t57 -19.5q33 0 56 19.5t24 50.5h86q-5 -63 -49.5 -100.5t-117.5 -37.5t-117 37.5z" />
    <glyph glyph-name="gbreve" unicode="&#x11f;" horiz-adv-x="520" 
d="M46 0zM96.5 -200.5q-50.5 32.5 -50.5 108.5q0 43 16.5 68.5t60.5 59.5q-16 11 -23.5 29t-7.5 38q0 14 6.5 29.5t29.5 54.5q-76 40 -76 149q0 174 195 174q46 0 102 -13l152 4v-77l-89 3q16 -18 23 -39.5t7 -55.5q0 -89 -47.5 -127.5t-148.5 -38.5q-30 0 -49 4
q-16 -38 -16 -55q0 -24 19.5 -31t60.5 -7h35q70 -1 112 -11t65 -40.5t23 -88.5q0 -88 -56.5 -129t-182.5 -41q-110 0 -160.5 32.5zM325.5 262q23.5 23 23.5 76q0 52 -24 75t-77 23q-54 0 -78.5 -23.5t-24.5 -75.5t24.5 -75t78.5 -23t77.5 23zM370.5 -136.5
q30.5 19.5 30.5 66.5q0 28 -11.5 41.5t-34.5 18t-68 5.5l-102 6q-27 -21 -37 -38t-10 -41q0 -43 29 -60.5t98 -17.5q75 0 105.5 19.5zM157.5 623q-41.5 41 -46.5 104h73q3 -36 24 -57t57 -21q35 0 56 20.5t23 57.5h74q-5 -63 -46.5 -104t-106.5 -41q-66 0 -107.5 41z" />
    <glyph glyph-name="Gdotaccent" unicode="&#x120;" horiz-adv-x="614" 
d="M53 0zM163.5 27q-59.5 38 -85 115.5t-25.5 202.5t26 202t84.5 114.5t157.5 37.5q90 0 196 -20l35 -7l-4 -77q-123 18 -209 18q-78 0 -118 -28.5t-54 -86t-14 -160.5q0 -99 15.5 -155.5t54.5 -82.5t110 -26q68 0 124 10v188h-99v85h194v-344q-132 -24 -228 -24
q-101 0 -160.5 38zM267 892h92v-102h-92v102z" />
    <glyph glyph-name="gdotaccent" unicode="&#x121;" horiz-adv-x="520" 
d="M46 0zM96.5 -200.5q-50.5 32.5 -50.5 108.5q0 43 16.5 68.5t60.5 59.5q-16 11 -23.5 29t-7.5 38q0 14 6.5 29.5t29.5 54.5q-76 40 -76 149q0 174 195 174q46 0 102 -13l152 4v-77l-89 3q16 -18 23 -39.5t7 -55.5q0 -89 -47.5 -127.5t-148.5 -38.5q-30 0 -49 4
q-16 -38 -16 -55q0 -24 19.5 -31t60.5 -7h35q70 -1 112 -11t65 -40.5t23 -88.5q0 -88 -56.5 -129t-182.5 -41q-110 0 -160.5 32.5zM325.5 262q23.5 23 23.5 76q0 52 -24 75t-77 23q-54 0 -78.5 -23.5t-24.5 -75.5t24.5 -75t78.5 -23t77.5 23zM370.5 -136.5
q30.5 19.5 30.5 66.5q0 28 -11.5 41.5t-34.5 18t-68 5.5l-102 6q-27 -21 -37 -38t-10 -41q0 -43 29 -60.5t98 -17.5q75 0 105.5 19.5zM218 694h92v-101h-92v101z" />
    <glyph glyph-name="Gcommaaccent" unicode="&#x122;" horiz-adv-x="614" 
d="M53 0zM163.5 27q-59.5 38 -85 115.5t-25.5 202.5t26 202t84.5 114.5t157.5 37.5q90 0 196 -20l35 -7l-4 -77q-123 18 -209 18q-78 0 -118 -28.5t-54 -86t-14 -160.5q0 -99 15.5 -155.5t54.5 -82.5t110 -26q68 0 124 10v188h-99v85h194v-344q-132 -24 -228 -24
q-101 0 -160.5 38zM290 -78h91l-51 -215h-83z" />
    <glyph glyph-name="gcommaaccent" unicode="&#x123;" horiz-adv-x="520" 
d="M276 587h-91l51 215h83zM96.5 -200.5q-50.5 32.5 -50.5 108.5q0 43 16.5 68.5t60.5 59.5q-16 11 -23.5 29t-7.5 38q0 14 6.5 29.5t29.5 54.5q-76 40 -76 149q0 174 195 174q46 0 102 -13l152 4v-77l-89 3q16 -18 23 -39.5t7 -55.5q0 -89 -47.5 -127.5t-148.5 -38.5
q-30 0 -49 4q-16 -38 -16 -55q0 -24 19.5 -31t60.5 -7h35q70 -1 112 -11t65 -40.5t23 -88.5q0 -88 -56.5 -129t-182.5 -41q-110 0 -160.5 32.5zM325.5 262q23.5 23 23.5 76q0 52 -24 75t-77 23q-54 0 -78.5 -23.5t-24.5 -75.5t24.5 -75t78.5 -23t77.5 23zM370.5 -136.5
q30.5 19.5 30.5 66.5q0 28 -11.5 41.5t-34.5 18t-68 5.5l-102 6q-27 -21 -37 -38t-10 -41q0 -43 29 -60.5t98 -17.5q75 0 105.5 19.5z" />
    <glyph glyph-name="Hcircumflex" unicode="&#x124;" horiz-adv-x="676" 
d="M82 0zM594 688v-688h-95v303h-321v-303h-96v688h96v-300h321v300h95zM298 922h81l134 -139h-102l-72 73l-73 -73h-102z" />
    <glyph glyph-name="hcircumflex" unicode="&#x125;" horiz-adv-x="542" 
d="M69 0zM69 712h93v-239q43 20 78 29t72 9q64 0 100 -24.5t51 -77.5t15 -143v-266h-93v264q0 65 -8 99t-29.5 49t-62.5 15q-51 0 -106 -19l-17 -6v-402h-93v712zM238 910h62l125 -144h-90l-65 81l-66 -81h-90z" />
    <glyph glyph-name="Hbar" unicode="&#x126;" horiz-adv-x="686" 
d="M86 501h-70v81h70v106h96v-106h321v106h95v-106h78v-81h-78v-501h-95v303h-321v-303h-96v501zM503 388v113h-321v-113h321z" />
    <glyph glyph-name="hbar" unicode="&#x127;" horiz-adv-x="542" 
d="M69 565h-58v82h58v65h93v-65h151v-82h-151v-92q78 38 145 38t103.5 -24t52 -76.5t15.5 -144.5v-266h-93v264q0 64 -8 98.5t-28.5 49.5t-60.5 15q-54 0 -109 -19l-17 -6v-402h-93v565z" />
    <glyph glyph-name="Itilde" unicode="&#x128;" horiz-adv-x="258" 
d="M0 0zM82 688h96v-688h-96v688zM122 815q-64 26 -76 26q-22 0 -62 -35l-14 -12l-20 69q20 24 48 42t51 18t86 -26t72 -26q20 0 60 34l13 11l21 -69q-20 -25 -45.5 -41.5t-48.5 -16.5q-22 0 -85 26z" />
    <glyph glyph-name="itilde" unicode="&#x129;" horiz-adv-x="230" 
d="M0 0zM69 500h93v-500h-93v500zM116 626q-50 21 -63 21q-25 0 -63 -28l-13 -9l-22 56q24 26 49.5 40.5t46.5 14.5q19 0 71 -22q51 -21 62 -21q23 0 61 28l13 9l21 -57q-22 -24 -46.5 -39t-45.5 -15q-23 0 -71 22z" />
    <glyph glyph-name="Imacron" unicode="&#x12a;" horiz-adv-x="258" 
d="M0 0zM82 688h96v-688h-96v688zM-29 873h322v-70h-322v70z" />
    <glyph glyph-name="imacron" unicode="&#x12b;" horiz-adv-x="230" 
d="M0 0zM69 500h93v-500h-93v500zM-23 687h279v-71h-279v71z" />
    <glyph glyph-name="Ibreve" unicode="&#x12c;" horiz-adv-x="258" 
d="M0 0zM82 688h96v-688h-96v688zM23 815.5q-44 37.5 -49 100.5h85q2 -31 25 -50.5t57 -19.5q33 0 56 19.5t24 50.5h86q-5 -63 -49.5 -100.5t-117.5 -37.5t-117 37.5z" />
    <glyph glyph-name="ibreve" unicode="&#x12d;" horiz-adv-x="230" 
d="M0 0zM69 500h93v-500h-93v500zM8.5 623q-41.5 41 -46.5 104h73q3 -36 24 -57t57 -21q35 0 56 20.5t23 57.5h74q-5 -63 -46.5 -104t-106.5 -41q-66 0 -107.5 41z" />
    <glyph glyph-name="Iogonek" unicode="&#x12e;" horiz-adv-x="258" 
d="M199 -199q-47 -10 -89 -10q-40 0 -67 24.5t-27 59.5q0 32 18.5 64t42.5 53l10 8h-5v688h96v-688h-7q-66 -63 -66 -95q0 -19 10.5 -29.5t27.5 -10.5l47 5z" />
    <glyph glyph-name="iogonek" unicode="&#x12f;" horiz-adv-x="230" 
d="M161 598h-92v101h92v-101zM184 -199q-47 -10 -89 -10q-40 0 -67 24.5t-27 59.5q0 32 18.5 64t42.5 53l10 8h-3v500h93v-500h-6q-66 -63 -66 -95q0 -19 10.5 -29.5t27.5 -10.5l47 5z" />
    <glyph glyph-name="Idotaccent" unicode="&#x130;" horiz-adv-x="258" 
d="M82 0zM82 688h96v-688h-96v688zM83 892h92v-102h-92v102z" />
    <glyph glyph-name="dotlessi" unicode="&#x131;" horiz-adv-x="230" 
d="M69 500h93v-500h-93v500z" />
    <glyph glyph-name="Jcircumflex" unicode="&#x134;" horiz-adv-x="293" 
d="M0 0zM18 13q44 0 65 7t29 27t8 64v577h95l1 -587q0 -75 -21.5 -112t-62.5 -48.5t-114 -11.5v84zM127 920h81l134 -139h-102l-72 73l-73 -73h-102z" />
    <glyph glyph-name="jcircumflex" unicode="&#x135;" horiz-adv-x="231" 
d="M0 0zM-44 -154q51 31 74 52t31.5 47t8.5 71v484h93v-485q0 -65 -14 -104.5t-49.5 -69.5t-106.5 -66zM84 732h62l125 -144h-90l-65 81l-66 -81h-90z" />
    <glyph glyph-name="Kcommaaccent" unicode="&#x136;" horiz-adv-x="576" 
d="M82 0zM286 296l-108 -7v-289h-96v688h96v-315l108 7l156 308h109l-182 -346l191 -342h-112zM258 -78h91l-51 -215h-83z" />
    <glyph glyph-name="kcommaaccent" unicode="&#x137;" horiz-adv-x="490" 
d="M66 0zM69 712h93v-416l70 6l129 198h105l-152 -232l159 -268h-105l-134 221l-72 -5v-216h-93v712zM109 -78h91l-51 -215h-83z" />
    <glyph glyph-name="Lacute" unicode="&#x139;" horiz-adv-x="477" 
d="M82 0zM464 85v-85h-382v688h96v-603h286zM127 833l227 102l30 -82l-231 -85z" />
    <glyph glyph-name="lacute" unicode="&#x13a;" horiz-adv-x="243" 
d="M48 0zM75 712h93v-712h-93v712zM48 851l228 99l30 -80l-234 -81z" />
    <glyph glyph-name="Lcommaaccent" unicode="&#x13b;" horiz-adv-x="477" 
d="M82 0zM464 85v-85h-382v688h96v-603h286zM230 -78h91l-51 -215h-83z" />
    <glyph glyph-name="lcommaaccent" unicode="&#x13c;" horiz-adv-x="243" 
d="M29 0zM75 712h93v-712h-93v712zM72 -78h91l-51 -215h-83z" />
    <glyph glyph-name="Lcaron" unicode="&#x13d;" horiz-adv-x="495" 
d="M446 452h-91v242h91v-242zM464 85v-85h-382v688h96v-603h286z" />
    <glyph glyph-name="lcaron" unicode="&#x13e;" horiz-adv-x="276" 
d="M75 0zM75 712h93v-712h-93v712zM270 681h91l-51 -215h-83z" />
    <glyph glyph-name="Lslash" unicode="&#x141;" horiz-adv-x="482" 
d="M88 255l-53 -37l-45 64l98 69v337h96v-270l128 90l46 -63l-174 -123v-237h287v-85h-383v255z" />
    <glyph glyph-name="lslash" unicode="&#x142;" horiz-adv-x="332" 
d="M116 260l-62 -43l-46 64l108 75v356h93v-291l70 50l46 -64l-116 -82v-325h-93v260z" />
    <glyph glyph-name="Nacute" unicode="&#x143;" horiz-adv-x="681" 
d="M82 0zM600 688v-688h-168l-238 604h-16v-604h-96v688h171l233 -604h18v604h96zM215 833l227 102l30 -82l-231 -85z" />
    <glyph glyph-name="nacute" unicode="&#x144;" horiz-adv-x="542" 
d="M69 0zM69 500h92v-33q43 24 78 34t74 10q63 0 99 -25t51 -77.5t15 -142.5v-266h-93v264q0 63 -7.5 97.5t-28 50t-59.5 15.5q-53 0 -111 -23l-17 -8v-396h-93v500zM155 645l228 99l30 -80l-234 -81z" />
    <glyph glyph-name="Ncommaaccent" unicode="&#x145;" horiz-adv-x="681" 
d="M82 0zM600 688v-688h-168l-238 604h-16v-604h-96v688h171l233 -604h18v604h96zM316 -78h91l-51 -215h-83z" />
    <glyph glyph-name="ncommaaccent" unicode="&#x146;" horiz-adv-x="542" 
d="M69 0zM69 500h92v-33q43 24 78 34t74 10q63 0 99 -25t51 -77.5t15 -142.5v-266h-93v264q0 63 -7.5 97.5t-28 50t-59.5 15.5q-53 0 -111 -23l-17 -8v-396h-93v500zM127 -78h91l-51 -215h-83z" />
    <glyph glyph-name="Ncaron" unicode="&#x147;" horiz-adv-x="681" 
d="M82 0zM600 688v-688h-168l-238 604h-16v-604h-96v688h171l233 -604h18v604h96zM167 920h102l73 -72l72 72h102l-134 -139h-81z" />
    <glyph glyph-name="ncaron" unicode="&#x148;" horiz-adv-x="542" 
d="M69 0zM69 500h92v-33q43 24 78 34t74 10q63 0 99 -25t51 -77.5t15 -142.5v-266h-93v264q0 63 -7.5 97.5t-28 50t-59.5 15.5q-53 0 -111 -23l-17 -8v-396h-93v500zM205 732l66 -81l65 81h89l-125 -144h-61l-124 144h90z" />
    <glyph glyph-name="Eng" unicode="&#x14a;" horiz-adv-x="681" 
d="M403 -111q44 0 64.5 6.5t28.5 26.5t8 64v14h-72l-238 604h-16v-604h-96v688h171l234 -604h17v604h96v-712q0 -84 -26 -121t-93 -47q-27 -4 -78 -4v85z" />
    <glyph glyph-name="eng" unicode="&#x14b;" horiz-adv-x="542" 
d="M272 -163q51 29 74 49t31 44t8 67v263q0 91 -19.5 128.5t-72.5 37.5q-23 0 -54.5 -7t-56.5 -17l-21 -8v-394h-92v500h92v-30q87 41 149 41q63 0 100 -26t53 -80.5t16 -144.5v-260q0 -67 -13.5 -106t-48 -68.5t-105.5 -65.5z" />
    <glyph glyph-name="Omacron" unicode="&#x14c;" horiz-adv-x="658" 
d="M53 0zM166 26q-60 37 -86.5 113.5t-26.5 201.5q0 124 26.5 202.5t87 117t162.5 38.5t162.5 -38.5t87 -116.5t26.5 -204q0 -125 -26 -201t-86 -113t-164 -37q-103 0 -163 37zM437 100.5q38 26.5 53.5 83.5t15.5 156t-16 158.5t-54.5 88t-106.5 28.5t-106.5 -28.5
t-54.5 -87.5t-16 -158q0 -97 15.5 -154t53.5 -85t108 -28t108 26.5zM166 873h322v-70h-322v70z" />
    <glyph glyph-name="omacron" unicode="&#x14d;" horiz-adv-x="529" 
d="M46 0zM97 51.5q-51 62.5 -51 196.5q0 137 52 200t167 63q116 0 167.5 -63.5t51.5 -199.5q0 -133 -51 -196t-168 -63t-168 62.5zM339.5 87q26.5 17 37.5 55t11 106q0 71 -11.5 110t-38 55.5t-73.5 16.5t-74 -16.5t-38.5 -56t-11.5 -109.5q0 -67 11 -105.5t38 -55.5t75 -17
t74.5 17zM128 695h279v-71h-279v71z" />
    <glyph glyph-name="Obreve" unicode="&#x14e;" horiz-adv-x="658" 
d="M53 0zM166 26q-60 37 -86.5 113.5t-26.5 201.5q0 124 26.5 202.5t87 117t162.5 38.5t162.5 -38.5t87 -116.5t26.5 -204q0 -125 -26 -201t-86 -113t-164 -37q-103 0 -163 37zM437 100.5q38 26.5 53.5 83.5t15.5 156t-16 158.5t-54.5 88t-106.5 28.5t-106.5 -28.5
t-54.5 -87.5t-16 -158q0 -97 15.5 -154t53.5 -85t108 -28t108 26.5zM213 815.5q-44 37.5 -49 100.5h85q2 -31 25 -50.5t57 -19.5q33 0 56 19.5t24 50.5h86q-5 -63 -49.5 -100.5t-117.5 -37.5t-117 37.5z" />
    <glyph glyph-name="obreve" unicode="&#x14f;" horiz-adv-x="529" 
d="M46 0zM97 51.5q-51 62.5 -51 196.5q0 137 52 200t167 63q116 0 167.5 -63.5t51.5 -199.5q0 -133 -51 -196t-168 -63t-168 62.5zM339.5 87q26.5 17 37.5 55t11 106q0 71 -11.5 110t-38 55.5t-73.5 16.5t-74 -16.5t-38.5 -56t-11.5 -109.5q0 -67 11 -105.5t38 -55.5t75 -17
t74.5 17zM160.5 623q-41.5 41 -46.5 104h73q3 -36 24 -57t57 -21q35 0 56 20.5t23 57.5h74q-5 -63 -46.5 -104t-106.5 -41q-66 0 -107.5 41z" />
    <glyph glyph-name="Ohungarumlaut" unicode="&#x150;" horiz-adv-x="658" 
d="M53 0zM166 26q-60 37 -86.5 113.5t-26.5 201.5q0 124 26.5 202.5t87 117t162.5 38.5t162.5 -38.5t87 -116.5t26.5 -204q0 -125 -26 -201t-86 -113t-164 -37q-103 0 -163 37zM437 100.5q38 26.5 53.5 83.5t15.5 156t-16 158.5t-54.5 88t-106.5 28.5t-106.5 -28.5
t-54.5 -87.5t-16 -158q0 -97 15.5 -154t53.5 -85t108 -28t108 26.5zM153 782l119 152l73 -37l-124 -148zM354 782l118 151l74 -37l-125 -148z" />
    <glyph glyph-name="ohungarumlaut" unicode="&#x151;" horiz-adv-x="529" 
d="M46 0zM97 51.5q-51 62.5 -51 196.5q0 137 52 200t167 63q116 0 167.5 -63.5t51.5 -199.5q0 -133 -51 -196t-168 -63t-168 62.5zM339.5 87q26.5 17 37.5 55t11 106q0 71 -11.5 110t-38 55.5t-73.5 16.5t-74 -16.5t-38.5 -56t-11.5 -109.5q0 -67 11 -105.5t38 -55.5t75 -17
t74.5 17zM278 625l136 155l71 -50l-141 -154zM81 625l137 154l71 -49l-140 -154z" />
    <glyph glyph-name="OE" unicode="&#x152;" horiz-adv-x="918" 
d="M159 25.5q-57 36.5 -81 114t-24 207.5q0 129 25 206.5t82.5 114.5t155.5 37q65 0 134 -11h422v-92h-328v-202h268v-92h-268v-216h328v-93h-420q-97 -10 -136 -10q-101 0 -158 36.5zM451 90v513q-101 8 -127 8q-69 0 -106 -28t-51 -85.5t-14 -157.5q0 -98 15 -152.5
t53 -79.5t110 -25q49 0 120 7z" />
    <glyph glyph-name="oe" unicode="&#x153;" horiz-adv-x="850" 
d="M95.5 51.5q-49.5 62.5 -49.5 199.5q0 135 51 197t168 62q66 0 107 -22.5t65 -74.5q24 50 64.5 73.5t100.5 23.5q104 0 155 -56.5t51 -174.5l-6 -69h-319q1 -70 28.5 -103t84.5 -33q72 0 164 7l29 2l2 -74q-117 -20 -201 -20q-113 0 -157 84q-22 -43 -63.5 -63.5
t-106.5 -20.5q-118 0 -167.5 62.5zM715 284q0 78 -26 110.5t-87 32.5t-90.5 -35.5t-29.5 -107.5h233zM340.5 91q26.5 18 37 56t10.5 104q0 95 -28 135t-97 40q-46 0 -72.5 -16.5t-38 -54t-11.5 -102.5q0 -68 10.5 -106.5t37.5 -56t76 -17.5t75.5 18z" />
    <glyph glyph-name="Racute" unicode="&#x154;" horiz-adv-x="617" 
d="M82 0zM82 688h258q114 0 170.5 -53t56.5 -161q0 -152 -119 -200l122 -274h-105l-111 254h-176v-254h-96v688zM341 337q63 0 95.5 34.5t32.5 100.5q0 65 -32.5 99t-96.5 34h-162v-268h163zM182 833l227 102l30 -82l-231 -85z" />
    <glyph glyph-name="racute" unicode="&#x155;" horiz-adv-x="354" 
d="M61 0zM69 500h92v-63q89 57 176 74v-94q-39 -8 -81 -22t-70 -27l-24 -11v-357h-93v500zM61 645l228 99l30 -80l-234 -81z" />
    <glyph glyph-name="Rcommaaccent" unicode="&#x156;" horiz-adv-x="617" 
d="M82 0zM82 688h258q114 0 170.5 -53t56.5 -161q0 -152 -119 -200l122 -274h-105l-111 254h-176v-254h-96v688zM341 337q63 0 95.5 34.5t32.5 100.5q0 65 -32.5 99t-96.5 34h-162v-268h163zM277 -78h91l-51 -215h-83z" />
    <glyph glyph-name="rcommaaccent" unicode="&#x157;" horiz-adv-x="354" 
d="M26 0zM69 500h92v-63q89 57 176 74v-94q-39 -8 -81 -22t-70 -27l-24 -11v-357h-93v500zM69 -78h91l-51 -215h-83z" />
    <glyph glyph-name="Rcaron" unicode="&#x158;" horiz-adv-x="617" 
d="M82 0zM82 688h258q114 0 170.5 -53t56.5 -161q0 -152 -119 -200l122 -274h-105l-111 254h-176v-254h-96v688zM341 337q63 0 95.5 34.5t32.5 100.5q0 65 -32.5 99t-96.5 34h-162v-268h163zM126 922h102l73 -72l72 72h102l-134 -139h-81z" />
    <glyph glyph-name="rcaron" unicode="&#x159;" horiz-adv-x="354" 
d="M19 0zM69 500h92v-63q89 57 176 74v-94q-39 -8 -81 -22t-70 -27l-24 -11v-357h-93v500zM109 732l66 -81l65 81h89l-125 -144h-61l-124 144h90z" />
    <glyph glyph-name="Sacute" unicode="&#x15a;" horiz-adv-x="543" 
d="M45 0zM87 9l-36 6l10 77q135 -18 206 -18q135 0 135 123q0 34 -14 54.5t-44.5 33t-85.5 24.5q-81 19 -126 42.5t-66 60.5t-21 97q0 95 57 143t168 48q41 0 88.5 -5t125.5 -18l-8 -78q-137 16 -198 16q-137 0 -137 -100q0 -37 15.5 -58t49.5 -34.5t103 -29.5
q72 -18 112 -40t58.5 -57t18.5 -92q0 -106 -57.5 -160t-167.5 -54q-69 0 -186 19zM158 833l227 102l30 -82l-231 -85z" />
    <glyph glyph-name="sacute" unicode="&#x15b;" horiz-adv-x="467" 
d="M42 0zM80 5l-30 5l4 80q121 -17 173 -17q53 0 80 16t27 52q0 26 -13.5 39.5t-34.5 20t-60 12.5l-24 4q-57 9 -90.5 23t-51.5 41t-18 74q0 155 190 155q60 0 150 -15l29 -6l-2 -78q-112 16 -172 16q-102 0 -102 -62q0 -23 13 -35.5t33.5 -18.5t58.5 -13q7 -1 28 -5
q59 -11 92.5 -25.5t50 -42.5t16.5 -76q0 -83 -48 -121.5t-148 -38.5q-58 0 -151 16zM106 645l228 99l30 -80l-234 -81z" />
    <glyph glyph-name="Scircumflex" unicode="&#x15c;" horiz-adv-x="543" 
d="M45 0zM87 9l-36 6l10 77q135 -18 206 -18q135 0 135 123q0 34 -14 54.5t-44.5 33t-85.5 24.5q-81 19 -126 42.5t-66 60.5t-21 97q0 95 57 143t168 48q41 0 88.5 -5t125.5 -18l-8 -78q-137 16 -198 16q-137 0 -137 -100q0 -37 15.5 -58t49.5 -34.5t103 -29.5
q72 -18 112 -40t58.5 -57t18.5 -92q0 -106 -57.5 -160t-167.5 -54q-69 0 -186 19zM235 920h81l134 -139h-102l-72 73l-73 -73h-102z" />
    <glyph glyph-name="scircumflex" unicode="&#x15d;" horiz-adv-x="467" 
d="M42 0zM80 5l-30 5l4 80q121 -17 173 -17q53 0 80 16t27 52q0 26 -13.5 39.5t-34.5 20t-60 12.5l-24 4q-57 9 -90.5 23t-51.5 41t-18 74q0 155 190 155q60 0 150 -15l29 -6l-2 -78q-112 16 -172 16q-102 0 -102 -62q0 -23 13 -35.5t33.5 -18.5t58.5 -13q7 -1 28 -5
q59 -11 92.5 -25.5t50 -42.5t16.5 -76q0 -83 -48 -121.5t-148 -38.5q-58 0 -151 16zM203 732h62l125 -144h-90l-65 81l-66 -81h-90z" />
    <glyph glyph-name="Scedilla" unicode="&#x15e;" horiz-adv-x="543" 
d="M448 52q-50 -54 -146 -61v-36q63 -1 89 -18.5t26 -64.5q0 -96 -99 -96q-42 0 -75 5l-13 3l4 57q24 -2 60 -2q42 0 42 34q0 30 -42 30h-36v87q-64 1 -171 19l-36 6l10 77q135 -18 206 -18q135 0 135 123q0 34 -14 54.5t-44.5 33t-85.5 24.5q-81 19 -126 42.5t-66 60.5
t-21 97q0 95 57 143t168 48q41 0 88.5 -5t125.5 -18l-8 -78q-137 16 -198 16q-137 0 -137 -100q0 -37 15.5 -58t49.5 -34.5t103 -29.5q72 -18 112 -40t58.5 -57t18.5 -92q0 -98 -50 -152z" />
    <glyph glyph-name="scedilla" unicode="&#x15f;" horiz-adv-x="467" 
d="M383 31q-44 -39 -135 -42v-34q63 -1 89 -18.5t26 -64.5q0 -96 -99 -96q-42 0 -75 5l-13 3l4 57q24 -2 60 -2q42 0 42 34q0 30 -42 30h-36v87q-55 3 -124 15l-30 5l4 80q121 -17 173 -17q53 0 80 16t27 52q0 26 -13.5 39.5t-34.5 20t-60 12.5l-24 4q-57 9 -90.5 23
t-51.5 41t-18 74q0 155 190 155q60 0 150 -15l29 -6l-2 -78q-112 16 -172 16q-102 0 -102 -62q0 -23 13 -35.5t33.5 -18.5t58.5 -13q7 -1 28 -5q59 -11 92.5 -25.5t50 -42.5t16.5 -76q0 -79 -44 -118z" />
    <glyph glyph-name="Scaron" unicode="&#x160;" horiz-adv-x="543" 
d="M45 0zM87 9l-36 6l10 77q135 -18 206 -18q135 0 135 123q0 34 -14 54.5t-44.5 33t-85.5 24.5q-81 19 -126 42.5t-66 60.5t-21 97q0 95 57 143t168 48q41 0 88.5 -5t125.5 -18l-8 -78q-137 16 -198 16q-137 0 -137 -100q0 -37 15.5 -58t49.5 -34.5t103 -29.5
q72 -18 112 -40t58.5 -57t18.5 -92q0 -106 -57.5 -160t-167.5 -54q-69 0 -186 19zM112 922h102l73 -72l72 72h102l-134 -139h-81z" />
    <glyph glyph-name="scaron" unicode="&#x161;" horiz-adv-x="467" 
d="M42 0zM80 5l-30 5l4 80q121 -17 173 -17q53 0 80 16t27 52q0 26 -13.5 39.5t-34.5 20t-60 12.5l-24 4q-57 9 -90.5 23t-51.5 41t-18 74q0 155 190 155q60 0 150 -15l29 -6l-2 -78q-112 16 -172 16q-102 0 -102 -62q0 -23 13 -35.5t33.5 -18.5t58.5 -13q7 -1 28 -5
q59 -11 92.5 -25.5t50 -42.5t16.5 -76q0 -83 -48 -121.5t-148 -38.5q-58 0 -151 16zM178 732l66 -81l65 81h89l-125 -144h-61l-124 144h90z" />
    <glyph glyph-name="uni0162" unicode="&#x162;" horiz-adv-x="526" 
d="M287 0v-45q63 -1 89 -18.5t26 -64.5q0 -96 -99 -96q-42 0 -75 5l-13 3l4 57q24 -2 60 -2q42 0 42 34q0 30 -42 30h-36v97h-27v603h-203v85h500v-85h-201v-603h-25z" />
    <glyph glyph-name="uni0163" unicode="&#x163;" horiz-adv-x="355" 
d="M26 0zM148.5 6q-29.5 17 -42.5 57t-13 111v246h-67v80h67v149h93v-149h147v-80h-147v-229q0 -47 3.5 -70.5t16.5 -36t42 -12.5l85 5l6 -76q-70 -12 -108 -12q-53 0 -82.5 17zM96 -219l-13 3l4 57q24 -2 60 -2q42 0 42 34q0 30 -42 30h-36v98h44v-46q63 -1 89 -18.5
t26 -64.5q0 -96 -99 -96q-42 0 -75 5z" />
    <glyph glyph-name="Tcaron" unicode="&#x164;" horiz-adv-x="526" 
d="M13 0zM216 603h-203v85h500v-85h-201v-603h-96v603zM90 922h102l73 -72l72 72h102l-134 -139h-81z" />
    <glyph glyph-name="tcaron" unicode="&#x165;" horiz-adv-x="449" 
d="M372 694h90v-242h-90v242zM148.5 6q-29.5 17 -42.5 57t-13 111v246h-67v80h67v149h93v-149h147v-80h-147v-229q0 -47 3.5 -70.5t16.5 -36t42 -12.5l85 5l6 -76q-70 -12 -108 -12q-53 0 -82.5 17z" />
    <glyph glyph-name="Tbar" unicode="&#x166;" horiz-adv-x="529" 
d="M218 285h-153v82h153v236h-203v85h500v-85h-202v-236h157v-82h-157v-285h-95v285z" />
    <glyph glyph-name="tbar" unicode="&#x167;" horiz-adv-x="357" 
d="M152 6q-31 17 -44.5 56.5t-13.5 111.5v65h-47v72h47v104h-67v85h67v149h94v-149h147v-85h-147v-104h122v-72h-122v-43q0 -51 4 -75t16.5 -34t41.5 -10l85 4l5 -80q-66 -12 -101 -12q-56 0 -87 17z" />
    <glyph glyph-name="Utilde" unicode="&#x168;" horiz-adv-x="647" 
d="M76 0zM137 43.5q-61 54.5 -61 172.5v472h96v-474q0 -140 149 -140q78 0 116.5 34t38.5 106v474h95v-472q0 -118 -61.5 -172.5t-186.5 -54.5t-186 54.5zM318 815q-64 26 -76 26q-22 0 -62 -35l-14 -12l-20 69q20 24 48 42t51 18t86 -26t72 -26q20 0 60 34l13 11l21 -69
q-20 -25 -45.5 -41.5t-48.5 -16.5q-22 0 -85 26z" />
    <glyph glyph-name="utilde" unicode="&#x169;" horiz-adv-x="538" 
d="M64 0zM127 13.5q-35 24.5 -49 78t-14 147.5v261h93v-261q0 -69 7 -103.5t26.5 -48.5t59.5 -14q33 0 62.5 8t63.5 23v396h93v-500h-93v33q-42 -24 -75.5 -34t-73.5 -10q-65 0 -100 24.5zM264 626q-50 21 -63 21q-25 0 -63 -28l-13 -9l-22 56q24 26 49.5 40.5t46.5 14.5
q19 0 71 -22q51 -21 62 -21q23 0 61 28l13 9l21 -57q-22 -24 -46.5 -39t-45.5 -15q-23 0 -71 22z" />
    <glyph glyph-name="Umacron" unicode="&#x16a;" horiz-adv-x="647" 
d="M76 0zM137 43.5q-61 54.5 -61 172.5v472h96v-474q0 -140 149 -140q78 0 116.5 34t38.5 106v474h95v-472q0 -118 -61.5 -172.5t-186.5 -54.5t-186 54.5zM165 873h322v-70h-322v70z" />
    <glyph glyph-name="umacron" unicode="&#x16b;" horiz-adv-x="538" 
d="M64 0zM127 13.5q-35 24.5 -49 78t-14 147.5v261h93v-261q0 -69 7 -103.5t26.5 -48.5t59.5 -14q33 0 62.5 8t63.5 23v396h93v-500h-93v33q-42 -24 -75.5 -34t-73.5 -10q-65 0 -100 24.5zM128 687h279v-71h-279v71z" />
    <glyph glyph-name="Ubreve" unicode="&#x16c;" horiz-adv-x="647" 
d="M76 0zM137 43.5q-61 54.5 -61 172.5v472h96v-474q0 -140 149 -140q78 0 116.5 34t38.5 106v474h95v-472q0 -118 -61.5 -172.5t-186.5 -54.5t-186 54.5zM209 815.5q-44 37.5 -49 100.5h85q2 -31 25 -50.5t57 -19.5q33 0 56 19.5t24 50.5h86q-5 -63 -49.5 -100.5
t-117.5 -37.5t-117 37.5z" />
    <glyph glyph-name="ubreve" unicode="&#x16d;" horiz-adv-x="538" 
d="M64 0zM127 13.5q-35 24.5 -49 78t-14 147.5v261h93v-261q0 -69 7 -103.5t26.5 -48.5t59.5 -14q33 0 62.5 8t63.5 23v396h93v-500h-93v33q-42 -24 -75.5 -34t-73.5 -10q-65 0 -100 24.5zM157.5 623q-41.5 41 -46.5 104h73q3 -36 24 -57t57 -21q35 0 56 20.5t23 57.5h74
q-5 -63 -46.5 -104t-106.5 -41q-66 0 -107.5 41z" />
    <glyph glyph-name="Uring" unicode="&#x16e;" horiz-adv-x="647" 
d="M76 0zM137 43.5q-61 54.5 -61 172.5v472h96v-474q0 -140 149 -140q78 0 116.5 34t38.5 106v474h95v-472q0 -118 -61.5 -172.5t-186.5 -54.5t-186 54.5zM233.5 762q-35.5 30 -35.5 82t36 82t92 30q57 0 92.5 -30t35.5 -82t-35.5 -82t-92.5 -30t-92.5 30zM370.5 807.5
q16.5 13.5 16.5 36.5t-16.5 36t-44.5 13q-29 0 -45 -12.5t-16 -36.5q0 -23 16.5 -36.5t44.5 -13.5t44.5 13.5z" />
    <glyph glyph-name="uring" unicode="&#x16f;" horiz-adv-x="538" 
d="M64 0zM127 13.5q-35 24.5 -49 78t-14 147.5v261h93v-261q0 -69 7 -103.5t26.5 -48.5t59.5 -14q33 0 62.5 8t63.5 23v396h93v-500h-93v33q-42 -24 -75.5 -34t-73.5 -10q-65 0 -100 24.5zM193.5 566.5q-30.5 31.5 -30.5 77.5q0 45 30.5 76t75.5 31q44 0 75 -31.5t31 -75.5
q0 -46 -31 -77.5t-75 -31.5q-45 0 -75.5 31.5zM306 605.5q15 15.5 15 38.5q0 22 -15 37t-37 15t-37 -15t-15 -37q0 -23 15 -38.5t37 -15.5t37 15.5z" />
    <glyph glyph-name="Uhungarumlaut" unicode="&#x170;" horiz-adv-x="647" 
d="M76 0zM137 43.5q-61 54.5 -61 172.5v472h96v-474q0 -140 149 -140q78 0 116.5 34t38.5 106v474h95v-472q0 -118 -61.5 -172.5t-186.5 -54.5t-186 54.5zM154 782l119 152l73 -37l-124 -148zM355 782l118 151l74 -37l-125 -148z" />
    <glyph glyph-name="uhungarumlaut" unicode="&#x171;" horiz-adv-x="538" 
d="M64 0zM127 13.5q-35 24.5 -49 78t-14 147.5v261h93v-261q0 -69 7 -103.5t26.5 -48.5t59.5 -14q33 0 62.5 8t63.5 23v396h93v-500h-93v33q-42 -24 -75.5 -34t-73.5 -10q-65 0 -100 24.5zM301 625l136 155l71 -50l-141 -154zM104 625l137 154l71 -49l-140 -154z" />
    <glyph glyph-name="Uogonek" unicode="&#x172;" horiz-adv-x="647" 
d="M571 688v-472q0 -94 -39 -147.5t-117 -70.5q-64 -61 -64 -93q0 -19 10.5 -29.5t27.5 -10.5l47 5l9 -69q-47 -10 -89 -10q-40 0 -67 24.5t-27 59.5q0 30 17.5 61t40.5 53q-123 1 -183.5 55.5t-60.5 171.5v472h96v-474q0 -140 149 -140q78 0 116.5 34t38.5 106v474h95z" />
    <glyph glyph-name="uogonek" unicode="&#x173;" horiz-adv-x="538" 
d="M489 -199q-47 -10 -89 -10q-40 0 -67 24.5t-27 59.5q0 32 18.5 64t42.5 53l10 8h-1v33q-42 -24 -75.5 -34t-73.5 -10q-65 0 -100 24.5t-49 78t-14 147.5v261h93v-261q0 -69 7 -103.5t26.5 -48.5t59.5 -14q33 0 62.5 8t63.5 23v396h93v-500h-8q-66 -63 -66 -95
q0 -19 10.5 -29.5t27.5 -10.5l47 5z" />
    <glyph glyph-name="Wcircumflex" unicode="&#x174;" horiz-adv-x="900" 
d="M27 0zM27 688h100l107 -604h25l135 600h112l135 -600h24l108 604h99l-137 -688h-162l-123 568l-124 -568h-162zM410 920h81l134 -139h-102l-72 73l-73 -73h-102z" />
    <glyph glyph-name="wcircumflex" unicode="&#x175;" horiz-adv-x="765" 
d="M29 0zM29 500h93l88 -420h19l105 410h97l106 -410h19l88 420h92l-111 -500h-152l-90 365l-91 -365h-152zM352 732h62l125 -144h-90l-65 81l-66 -81h-90z" />
    <glyph glyph-name="Ycircumflex" unicode="&#x176;" horiz-adv-x="544" 
d="M7 0zM224 286l-217 402h107l158 -307l157 307h108l-217 -402v-286h-96v286zM233 922h81l134 -139h-102l-72 73l-73 -73h-102z" />
    <glyph glyph-name="ycircumflex" unicode="&#x177;" horiz-adv-x="488" 
d="M22 0zM239 0h-81l-136 500h93l114 -420h30l115 420h93l-198 -718h-92zM215 732h62l125 -144h-90l-65 81l-66 -81h-90z" />
    <glyph glyph-name="Ydieresis" unicode="&#x178;" horiz-adv-x="544" 
d="M7 0zM224 286l-217 402h107l158 -307l157 307h108l-217 -402v-286h-96v286zM122 897h90v-103h-90v103zM330 897h89v-103h-89v103z" />
    <glyph glyph-name="Zacute" unicode="&#x179;" horiz-adv-x="535" 
d="M42 0zM42 98l338 485v21h-338v84h450v-99l-337 -485v-20h337v-85h-450v99zM143 833l227 102l30 -82l-231 -85z" />
    <glyph glyph-name="zacute" unicode="&#x17a;" horiz-adv-x="455" 
d="M42 0zM42 83l258 334h-258v83h371v-83l-259 -334h259v-83h-371v83zM103 645l228 99l30 -80l-234 -81z" />
    <glyph glyph-name="Zdotaccent" unicode="&#x17b;" horiz-adv-x="535" 
d="M42 0zM42 98l338 485v21h-338v84h450v-99l-337 -485v-20h337v-85h-450v99zM221 892h92v-102h-92v102z" />
    <glyph glyph-name="zdotaccent" unicode="&#x17c;" horiz-adv-x="455" 
d="M42 0zM42 83l258 334h-258v83h371v-83l-259 -334h259v-83h-371v83zM181 694h92v-101h-92v101z" />
    <glyph glyph-name="Zcaron" unicode="&#x17d;" horiz-adv-x="535" 
d="M42 0zM42 98l338 485v21h-338v84h450v-99l-337 -485v-20h337v-85h-450v99zM99 922h102l73 -72l72 72h102l-134 -139h-81z" />
    <glyph glyph-name="zcaron" unicode="&#x17e;" horiz-adv-x="455" 
d="M42 0zM42 83l258 334h-258v83h371v-83l-259 -334h259v-83h-371v83zM168 732l66 -81l65 81h89l-125 -144h-61l-124 144h90z" />
    <glyph glyph-name="florin" unicode="&#x192;" 
d="M56 -226l-15 2v78l28 -1q42 -3 66 -3q33 0 49 23t16 76v423h-60v80h60v44q0 106 30 153t109 47q37 0 86 -8l17 -2v-77q-45 3 -82 3q-34 0 -50.5 -24.5t-16.5 -76.5v-59h138v-80h-138v-425q0 -68 -15 -107t-48 -56t-88 -17q-45 0 -86 7z" />
    <glyph glyph-name="Aringacute" unicode="&#x1fa;" horiz-adv-x="598" 
d="M22 0zM162 928l227 102l30 -82l-231 -85zM438 161h-278l-43 -161h-95l172 666q-24 29 -24 71q0 52 36 82t92 30q57 0 92.5 -30t35.5 -82q0 -41 -23 -69l173 -668h-95zM253 773.5q-16 -12.5 -16 -36.5q0 -20 12.5 -33t34.5 -16h28q22 3 34.5 16t12.5 33q0 23 -16.5 36
t-44.5 13q-29 0 -45 -12.5zM180 246h238l-93 361h-52z" />
    <glyph glyph-name="aringacute" unicode="&#x1fb;" horiz-adv-x="504" 
d="M37 0zM124 833l228 99l30 -80l-234 -81zM74 29q-37 40 -37 115q0 74 38 108.5t121 42.5l142 13v39q0 44 -19 63.5t-56 19.5q-84 0 -194 -12l-3 68q106 25 197 25q88 0 128 -39.5t40 -124.5v-241q2 -20 13.5 -30.5t36.5 -14.5l-3 -72q-43 0 -73 9.5t-53 29.5
q-85 -39 -170 -39q-71 0 -108 40zM317 86l21 7v147l-130 -12q-39 -4 -57.5 -23.5t-18.5 -57.5q0 -80 67 -80q61 0 118 19zM182.5 566.5q-30.5 31.5 -30.5 77.5q0 45 30.5 76t75.5 31q44 0 75 -31.5t31 -75.5q0 -46 -31 -77.5t-75 -31.5q-45 0 -75.5 31.5zM295 605.5
q15 15.5 15 38.5q0 22 -15 37t-37 15t-37 -15t-15 -37q0 -23 15 -38.5t37 -15.5t37 15.5z" />
    <glyph glyph-name="AEacute" unicode="&#x1fc;" horiz-adv-x="874" 
d="M18 0zM229 694h600v-91h-331v-203h271v-91h-271v-218h331v-91h-426v157h-239l-49 -157h-97zM403 249l1 354h-106l-109 -354h214zM399 833l227 102l30 -82l-231 -85z" />
    <glyph glyph-name="aeacute" unicode="&#x1fd;" horiz-adv-x="798" 
d="M37 0zM72.5 29.5q-35.5 40.5 -35.5 118.5q0 52 18 82.5t56 46t104 21.5l123 10v36q0 77 -77 77q-61 0 -159 -8l-31 -2l-3 82q116 17 202 17q96 0 131 -62q49 62 147 62q105 0 156.5 -56.5t51.5 -174.5l-6 -69h-319q1 -69 29 -102.5t84 -33.5q70 0 164 7l29 2l2 -74
q-117 -20 -206 -20q-92 0 -142 53l-29 -14q-85 -39 -183 -39q-71 0 -106.5 40.5zM663 284q0 78 -26 110.5t-87 32.5t-90 -34.5t-29 -108.5h232zM268 79.5q40 9.5 69 20.5l-1 134l-128 -9q-40 -3 -58 -21.5t-18 -55.5q0 -78 61 -78q35 0 75 9.5zM279 645l228 99l30 -80
l-234 -81z" />
    <glyph glyph-name="Oslashacute" unicode="&#x1fe;" horiz-adv-x="658" 
d="M53 0zM89 -86l59 125q-50 39 -72.5 112.5t-22.5 189.5q0 124 26.5 202.5t87 117t162.5 38.5q70 0 118 -18l58 121l71 -29l-61 -132q90 -78 90 -300q0 -126 -26 -202.5t-86.5 -113t-163.5 -36.5q-63 0 -113 15l-57 -123zM410 600q-33 15 -81 15q-69 0 -107 -28.5t-54 -88
t-16 -160.5q0 -148 40 -203zM437 100.5q38 26.5 53.5 83.5t15.5 156q0 141 -37 203l-215 -459q27 -10 75 -10q70 0 108 26.5zM197 833l227 102l30 -82l-231 -85z" />
    <glyph glyph-name="oslashacute" unicode="&#x1ff;" horiz-adv-x="529" 
d="M46 0zM91 -89l44 107q-47 27 -68 84.5t-21 151.5q0 132 51 194.5t168 62.5q29 0 68 -7l42 102l60 -22l-43 -102q92 -53 92 -228q0 -140 -50.5 -202.5t-168.5 -62.5q-38 0 -72 8l-43 -108zM303 426l-38 4q-69 0 -96.5 -38t-27.5 -124q0 -67 6 -106t27 -58zM341.5 87.5
q26.5 17.5 36.5 57t10 111.5q0 104 -33 140l-132 -323q15 -3 42 -3q50 0 76.5 17.5zM136 645l228 99l30 -80l-234 -81z" />
    <glyph glyph-name="Scommaaccent" unicode="&#x218;" horiz-adv-x="543" 
d="M45 0zM87 9l-36 6l10 77q135 -18 206 -18q135 0 135 123q0 34 -14 54.5t-44.5 33t-85.5 24.5q-81 19 -126 42.5t-66 60.5t-21 97q0 95 57 143t168 48q41 0 88.5 -5t125.5 -18l-8 -78q-137 16 -198 16q-137 0 -137 -100q0 -37 15.5 -58t49.5 -34.5t103 -29.5
q72 -18 112 -40t58.5 -57t18.5 -92q0 -106 -57.5 -160t-167.5 -54q-69 0 -186 19zM239 -78h91l-51 -215h-83z" />
    <glyph glyph-name="scommaaccent" unicode="&#x219;" horiz-adv-x="467" 
d="M42 0zM80 5l-30 5l4 80q121 -17 173 -17q53 0 80 16t27 52q0 26 -13.5 39.5t-34.5 20t-60 12.5l-24 4q-57 9 -90.5 23t-51.5 41t-18 74q0 155 190 155q60 0 150 -15l29 -6l-2 -78q-112 16 -172 16q-102 0 -102 -62q0 -23 13 -35.5t33.5 -18.5t58.5 -13q7 -1 28 -5
q59 -11 92.5 -25.5t50 -42.5t16.5 -76q0 -83 -48 -121.5t-148 -38.5q-58 0 -151 16zM114 -78h91l-51 -215h-83z" />
    <glyph glyph-name="uni021A" unicode="&#x21a;" horiz-adv-x="526" 
d="M13 0zM216 603h-203v85h500v-85h-201v-603h-96v603zM240 -78h91l-51 -215h-83z" />
    <glyph glyph-name="uni021B" unicode="&#x21b;" horiz-adv-x="355" 
d="M26 0zM148.5 6q-29.5 17 -42.5 57t-13 111v246h-67v80h67v149h93v-149h147v-80h-147v-229q0 -47 3.5 -70.5t16.5 -36t42 -12.5l85 5l6 -76q-70 -12 -108 -12q-53 0 -82.5 17zM113 -78h91l-51 -215h-83z" />
    <glyph glyph-name="circumflex" unicode="&#x2c6;" horiz-adv-x="246" 
d="M103 732h62l125 -144h-90l-65 81l-66 -81h-90z" />
    <glyph glyph-name="caron" unicode="&#x2c7;" horiz-adv-x="246" 
d="M72 732l66 -81l65 81h89l-125 -144h-61l-124 144h90z" />
    <glyph glyph-name="breve" unicode="&#x2d8;" horiz-adv-x="246" 
d="M28.5 623q-41.5 41 -46.5 104h73q3 -36 24 -57t57 -21q35 0 56 20.5t23 57.5h74q-5 -63 -46.5 -104t-106.5 -41q-66 0 -107.5 41z" />
    <glyph glyph-name="dotaccent" unicode="&#x2d9;" horiz-adv-x="246" 
d="M77 694h92v-101h-92v101z" />
    <glyph glyph-name="ring" unicode="&#x2da;" horiz-adv-x="246" 
d="M51.5 566.5q-30.5 31.5 -30.5 77.5q0 45 30.5 76t75.5 31q44 0 75 -31.5t31 -75.5q0 -46 -31 -77.5t-75 -31.5q-45 0 -75.5 31.5zM164 605.5q15 15.5 15 38.5q0 22 -15 37t-37 15t-37 -15t-15 -37q0 -23 15 -38.5t37 -15.5t37 15.5z" />
    <glyph glyph-name="ogonek" unicode="&#x2db;" horiz-adv-x="457" 
d="M225 -184.5q-27 24.5 -27 59.5q0 32 18.5 64t42.5 53l21 17l74 -8q-67 -63 -67 -96q0 -19 10.5 -29.5t27.5 -10.5l47 5l9 -69q-47 -10 -89 -10q-40 0 -67 24.5z" />
    <glyph glyph-name="tilde" unicode="&#x2dc;" horiz-adv-x="246" 
d="M133 626q-50 21 -63 21q-25 0 -63 -28l-13 -9l-22 56q24 26 49.5 40.5t46.5 14.5q19 0 71 -22q51 -21 62 -21q23 0 61 28l13 9l21 -57q-22 -24 -46.5 -39t-45.5 -15q-23 0 -71 22z" />
    <glyph glyph-name="hungarumlaut" unicode="&#x2dd;" horiz-adv-x="246" 
d="M146 625l136 155l71 -50l-141 -154zM-51 625l137 154l71 -49l-140 -154z" />
    <glyph glyph-name="pi" unicode="&#x3c0;" 
d="M410.5 7q-36.5 13 -50 46.5t-13.5 100.5v266h-134l-27 -420h-95l32 420q-50 0 -89 -10l-13 -3v77q58 16 144 16h240q63 0 109 10l15 3v-77q-28 -13 -89 -14v-268q0 -33 7 -49.5t24 -23.5t51 -7v-80q-75 0 -111.5 13z" />
    <glyph glyph-name="Wgrave" unicode="&#x1e80;" horiz-adv-x="900" 
d="M27 0zM27 688h100l107 -604h25l135 600h112l135 -600h24l108 604h99l-137 -688h-162l-123 568l-124 -568h-162zM322 853l30 82l228 -102l-27 -65z" />
    <glyph glyph-name="wgrave" unicode="&#x1e81;" horiz-adv-x="765" 
d="M29 0zM29 500h93l88 -420h19l105 410h97l106 -410h19l88 420h92l-111 -500h-152l-90 365l-91 -365h-152zM234 664l30 80l228 -99l-24 -62z" />
    <glyph glyph-name="Wacute" unicode="&#x1e82;" horiz-adv-x="900" 
d="M27 0zM27 688h100l107 -604h25l135 600h112l135 -600h24l108 604h99l-137 -688h-162l-123 568l-124 -568h-162zM331 833l227 102l30 -82l-231 -85z" />
    <glyph glyph-name="wacute" unicode="&#x1e83;" horiz-adv-x="765" 
d="M29 0zM29 500h93l88 -420h19l105 410h97l106 -410h19l88 420h92l-111 -500h-152l-90 365l-91 -365h-152zM268 645l228 99l30 -80l-234 -81z" />
    <glyph glyph-name="Wdieresis" unicode="&#x1e84;" horiz-adv-x="900" 
d="M27 0zM27 688h100l107 -604h25l135 600h112l135 -600h24l108 604h99l-137 -688h-162l-123 568l-124 -568h-162zM300 897h90v-103h-90v103zM508 897h89v-103h-89v103z" />
    <glyph glyph-name="wdieresis" unicode="&#x1e85;" horiz-adv-x="765" 
d="M29 0zM29 500h93l88 -420h19l105 410h97l106 -410h19l88 420h92l-111 -500h-152l-90 365l-91 -365h-152zM236 716h90v-103h-90v103zM441 716h90v-103h-90v103z" />
    <glyph glyph-name="uni1EAB" unicode="&#x1eab;" horiz-adv-x="504" 
d="M37 0zM74 29q-37 40 -37 115q0 74 38 108.5t121 42.5l142 13v39q0 44 -19 63.5t-56 19.5q-84 0 -194 -12l-3 68q106 25 197 25q88 0 128 -39.5t40 -124.5v-241q2 -20 13.5 -30.5t36.5 -14.5l-3 -72q-43 0 -73 9.5t-53 29.5q-85 -39 -170 -39q-71 0 -108 40zM317 86l21 7
v147l-130 -12q-39 -4 -57.5 -23.5t-18.5 -57.5q0 -80 67 -80q61 0 118 19zM204 702h62l125 -144h-90l-65 81l-66 -81h-90zM227 761q-50 21 -63 21q-25 0 -63 -28l-13 -9l-22 56q24 26 49.5 40.5t46.5 14.5q19 0 71 -22q51 -21 62 -21q23 0 61 28l13 9l21 -57
q-22 -24 -46.5 -39t-45.5 -15q-23 0 -71 22z" />
    <glyph glyph-name="uni1EB0" unicode="&#x1eb0;" horiz-adv-x="597" 
d="M22 0zM438 161h-278l-43 -161h-95l178 688h198l178 -688h-95zM180 246h238l-93 361h-52zM181 779.5q-44 37.5 -49 100.5h85q2 -31 25 -50.5t57 -19.5q33 0 56 19.5t24 50.5h86q-5 -63 -49.5 -100.5t-117.5 -37.5t-117 37.5zM115 1011l30 82l228 -102l-27 -65z" />
    <glyph glyph-name="uni1EC5" unicode="&#x1ec5;" horiz-adv-x="507" 
d="M46 0zM95 48.5q-49 59.5 -49 188.5q0 139 52.5 206.5t162.5 67.5q204 0 204 -232l-6 -68h-319q1 -54 14 -83.5t42 -42.5t82 -13q31 0 70 1.5t70 4.5l28 3l2 -72q-117 -20 -189 -20q-115 0 -164 59.5zM372 284q0 81 -25.5 115t-85.5 34q-63 0 -92 -35.5t-30 -113.5h233z
M228 702h62l125 -144h-90l-65 81l-66 -81h-90zM250 761q-50 21 -63 21q-25 0 -63 -28l-13 -9l-22 56q24 26 49.5 40.5t46.5 14.5q19 0 71 -22q51 -21 62 -21q23 0 61 28l13 9l21 -57q-22 -24 -46.5 -39t-45.5 -15q-23 0 -71 22z" />
    <glyph glyph-name="uni1ED7" unicode="&#x1ed7;" horiz-adv-x="529" 
d="M46 0zM97 51.5q-51 62.5 -51 196.5q0 137 52 200t167 63q116 0 167.5 -63.5t51.5 -199.5q0 -133 -51 -196t-168 -63t-168 62.5zM339.5 87q26.5 17 37.5 55t11 106q0 71 -11.5 110t-38 55.5t-73.5 16.5t-74 -16.5t-38.5 -56t-11.5 -109.5q0 -67 11 -105.5t38 -55.5t75 -17
t74.5 17zM230 702h62l125 -144h-90l-65 81l-66 -81h-90zM247 761q-50 21 -63 21q-25 0 -63 -28l-13 -9l-22 56q24 26 49.5 40.5t46.5 14.5q19 0 71 -22q51 -21 62 -21q23 0 61 28l13 9l21 -57q-22 -24 -46.5 -39t-45.5 -15q-23 0 -71 22z" />
    <glyph glyph-name="Ygrave" unicode="&#x1ef2;" horiz-adv-x="544" 
d="M7 0zM224 286l-217 402h107l158 -307l157 307h108l-217 -402v-286h-96v286zM141 853l30 82l228 -102l-27 -65z" />
    <glyph glyph-name="ygrave" unicode="&#x1ef3;" horiz-adv-x="488" 
d="M22 0zM239 0h-81l-136 500h93l114 -420h30l115 420h93l-198 -718h-92zM97 664l30 80l228 -99l-24 -62z" />
    <glyph glyph-name="uni1EF8" unicode="&#x1ef8;" horiz-adv-x="534" 
d="M7 0zM264 815q-64 26 -76 26q-22 0 -62 -35l-14 -12l-20 69q20 24 48 42t51 18t86 -26t72 -26q20 0 60 34l13 11l21 -69q-20 -25 -45.5 -41.5t-48.5 -16.5q-22 0 -85 26zM224 286l-217 402h107l158 -307l157 307h108l-217 -402v-286h-96v286z" />
    <glyph glyph-name="uni1EF9" unicode="&#x1ef9;" horiz-adv-x="488" 
d="M22 0zM239 626q-50 21 -63 21q-25 0 -63 -28l-13 -9l-22 56q24 26 49.5 40.5t46.5 14.5q19 0 71 -22q51 -21 62 -21q23 0 61 28l13 9l21 -57q-22 -24 -46.5 -39t-45.5 -15q-23 0 -71 22zM239 0h-81l-136 500h93l114 -420h30l115 420h93l-198 -718h-92z" />
    <glyph glyph-name="endash" unicode="&#x2013;" horiz-adv-x="626" 
d="M63 308h500v-81h-500v81z" />
    <glyph glyph-name="emdash" unicode="&#x2014;" horiz-adv-x="1126" 
d="M63 308h1000v-81h-1000v81z" />
    <glyph glyph-name="quoteleft" unicode="&#x2018;" horiz-adv-x="231" 
d="M117 699h72l-45 -228h-98z" />
    <glyph glyph-name="quoteright" unicode="&#x2019;" horiz-adv-x="228" 
d="M122 472h-73l46 227h97z" />
    <glyph glyph-name="quotesinglbase" unicode="&#x201a;" horiz-adv-x="230" 
d="M95 -21h-24l9 47h32z" />
    <glyph glyph-name="quotedblleft" unicode="&#x201c;" horiz-adv-x="395" 
d="M117 699h72l-45 -228h-98zM279 699h73l-45 -228h-98z" />
    <glyph glyph-name="quotedblright" unicode="&#x201d;" horiz-adv-x="396" 
d="M232 472h-121l45 228h147z" />
    <glyph glyph-name="quotedblbase" unicode="&#x201e;" horiz-adv-x="378" 
d="M84 114h72l-45 -228h-98zM246 114h73l-45 -228h-98z" />
    <glyph glyph-name="dagger" unicode="&#x2020;" horiz-adv-x="479" 
d="M193 419h-161v81h161v188h93v-188h160v-81h-160l-6 -493h-81z" />
    <glyph glyph-name="daggerdbl" unicode="&#x2021;" horiz-adv-x="518" 
d="M212 114h-160v80h160v225h-160v81h160v188h94v-188h160v-81h-160v-225h161v-80h-161v-188h-94v188z" />
    <glyph glyph-name="bullet" unicode="&#x2022;" horiz-adv-x="466" 
d="M108 388h250v-284h-250v284z" />
    <glyph glyph-name="ellipsis" unicode="&#x2026;" horiz-adv-x="738" 
d="M64 130h101v-130h-101v130zM318 130h101v-130h-101v130zM573 130h101v-130h-101v130z" />
    <glyph glyph-name="perthousand" unicode="&#x2030;" horiz-adv-x="838" 
d="M157 -5l215 692l55 -20l-214 -689zM64 424q-29 36 -29 106q0 141 113 141t113 -141q0 -71 -29 -106.5t-84 -35.5t-84 36zM190 530q0 42 -9.5 61.5t-31.5 19.5t-31.5 -19.5t-9.5 -61.5q0 -82 41 -82t41 82zM351 25.5q-29 36.5 -29 107.5q0 139 113 139t113 -140
q0 -70 -29.5 -106.5t-83.5 -36.5q-55 0 -84 36.5zM608 25.5q-29 36.5 -29 107.5q0 139 113 139t113 -140q0 -70 -29.5 -106.5t-83.5 -36.5q-55 0 -84 36.5zM466.5 69q9.5 20 9.5 63q0 42 -9.5 61t-31.5 19t-31.5 -19t-9.5 -60q0 -84 41 -84q22 0 31.5 20zM723.5 69
q9.5 20 9.5 63q0 42 -9.5 61t-31.5 19t-31.5 -19t-9.5 -60q0 -84 41 -84q22 0 31.5 20z" />
    <glyph glyph-name="guilsinglleft" unicode="&#x2039;" horiz-adv-x="306" 
d="M43 211v71l200 149v-95l-119 -88l119 -99v-96z" />
    <glyph glyph-name="guilsinglright" unicode="&#x203a;" horiz-adv-x="306" 
d="M63 152l119 99l-119 88v95l200 -149v-71l-200 -158v96z" />
    <glyph glyph-name="fraction" unicode="&#x2044;" horiz-adv-x="3" 
d="M-224 28l392 632l44 -28l-393 -632z" />
    <glyph glyph-name="uni2070" unicode="&#x2070;" horiz-adv-x="280" 
d="M50.5 502.5q-31.5 34.5 -31.5 131.5q0 96 31.5 131t89.5 35t90 -35.5t32 -130.5q0 -97 -32 -131.5t-90 -34.5t-89.5 34.5zM171 557.5q11 20.5 11 76.5t-11 76.5t-31 20.5t-31 -20.5t-11 -76.5t11 -76.5t31 -20.5t31 20.5z" />
    <glyph glyph-name="uni2074" unicode="&#x2074;" horiz-adv-x="280" 
d="M159 522h-138v65l60 203h84l-66 -199h60l8 90h68v-90h22v-69h-22v-44h-76v44z" />
    <glyph glyph-name="uni2075" unicode="&#x2075;" horiz-adv-x="280" 
d="M51 481l-17 3l6 62q55 -9 93 -9q42 0 42 38q0 37 -32 37q-23 0 -44 -12l-58 8l10 182h193v-67h-132l-5 -58q32 13 54 13q93 0 93 -99q0 -109 -110 -109q-44 0 -93 11z" />
    <glyph glyph-name="uni2076" unicode="&#x2076;" horiz-adv-x="280" 
d="M25 627q0 90 30 131.5t97 41.5q29 0 79 -8l16 -2l-5 -65q-50 7 -88 7q-51 0 -51 -59q39 11 53 11q102 0 102 -103q0 -52 -30.5 -82.5t-81.5 -30.5q-121 0 -121 159zM181 578q0 42 -32 42q-20 0 -32 -5t-14 -9q1 -70 40 -70q38 0 38 42z" />
    <glyph glyph-name="uni2077" unicode="&#x2077;" horiz-adv-x="280" 
d="M54 484l99 212v19h-124v75h212v-84l-102 -237z" />
    <glyph glyph-name="uni2078" unicode="&#x2078;" horiz-adv-x="280" 
d="M49 492q-30 24 -30 74q0 27 11.5 47t31.5 29q-38 18 -38 72q0 86 116 86t116 -86q0 -57 -38 -73q43 -15 43 -72q0 -52 -30 -76.5t-91 -24.5t-91 24zM152 667q28 12 28 38q0 32 -40 32t-40 -32q0 -25 28 -38h24zM182 569q0 30 -30 42h-24q-30 -12 -30 -43q0 -37 42 -37
t42 38z" />
    <glyph glyph-name="uni2079" unicode="&#x2079;" horiz-adv-x="280" 
d="M49 477l-15 3l5 64q43 -7 83 -7q54 0 55 57q-40 -10 -53 -10q-49 0 -75 27t-26 78q0 52 30.5 81.5t81.5 29.5q122 0 122 -166q0 -86 -29.5 -126t-96.5 -40q-39 0 -82 9zM180 657q-1 75 -42 75q-38 0 -38 -43q0 -20 10 -31.5t27 -11.5q15 0 43 11z" />
    <glyph glyph-name="uni2080" unicode="&#x2080;" horiz-adv-x="280" 
d="M19 0zM50.5 -75.5q-31.5 34.5 -31.5 131.5q0 96 31.5 131t89.5 35t90 -35.5t32 -130.5q0 -97 -32 -131.5t-90 -34.5t-89.5 34.5zM171 -20.5q11 20.5 11 76.5t-11 76.5t-31 20.5t-31 -20.5t-11 -76.5t11 -76.5t31 -20.5t31 20.5z" />
    <glyph glyph-name="uni2081" unicode="&#x2081;" horiz-adv-x="280" 
d="M25 0zM122 127l-62 -42l-35 55l103 72h71v-312h-77v227z" />
    <glyph glyph-name="uni2082" unicode="&#x2082;" horiz-adv-x="280" 
d="M27 -34l84 78q49 46 49 75q0 30 -45 30l-82 -8l-3 70q58 11 113 11q97 0 97 -90q0 -35 -13 -59.5t-46 -52.5l-55 -51h117v-69h-216v66z" />
    <glyph glyph-name="uni2083" unicode="&#x2083;" horiz-adv-x="280" 
d="M27 0zM27 -101l5 68q61 -8 100 -8q41 0 41 35q0 33 -40 33h-66v63h65q13 0 22.5 10t9.5 25q0 28 -39 28l-89 -7l-5 67q61 9 104 9q110 0 110 -85q0 -52 -36 -72q22 -9 32.5 -26t10.5 -50q0 -99 -110 -99z" />
    <glyph glyph-name="uni2084" unicode="&#x2084;" horiz-adv-x="280" 
d="M159 -56h-138v65l60 203h84l-66 -199h60l8 90h68v-90h22v-69h-22v-44h-76v44z" />
    <glyph glyph-name="uni2085" unicode="&#x2085;" horiz-adv-x="280" 
d="M34 0zM51 -97l-17 3l6 62q55 -9 93 -9q42 0 42 38q0 37 -32 37q-23 0 -44 -12l-58 8l10 182h193v-67h-132l-5 -58q32 13 54 13q93 0 93 -99q0 -109 -110 -109q-44 0 -93 11z" />
    <glyph glyph-name="uni2086" unicode="&#x2086;" horiz-adv-x="280" 
d="M25 0zM25 49q0 90 30 131.5t97 41.5q29 0 79 -8l16 -2l-5 -65q-50 7 -88 7q-51 0 -51 -59q39 11 53 11q102 0 102 -103q0 -52 -30.5 -82.5t-81.5 -30.5q-121 0 -121 159zM181 0q0 42 -32 42q-20 0 -32 -5t-14 -9q1 -70 40 -70q38 0 38 42z" />
    <glyph glyph-name="uni2087" unicode="&#x2087;" horiz-adv-x="280" 
d="M29 0zM54 -94l99 212v19h-124v75h212v-84l-102 -237z" />
    <glyph glyph-name="uni2088" unicode="&#x2088;" horiz-adv-x="280" 
d="M19 0zM49 -86q-30 24 -30 74q0 27 11.5 47t31.5 29q-38 18 -38 72q0 86 116 86t116 -86q0 -57 -38 -73q43 -15 43 -72q0 -52 -30 -76.5t-91 -24.5t-91 24zM152 89q28 12 28 38q0 32 -40 32t-40 -32q0 -25 28 -38h24zM182 -9q0 30 -30 42h-24q-30 -12 -30 -43
q0 -37 42 -37t42 38z" />
    <glyph glyph-name="uni2089" unicode="&#x2089;" horiz-adv-x="280" 
d="M23 0zM49 -101l-15 3l5 64q43 -7 83 -7q54 0 55 57q-40 -10 -53 -10q-49 0 -75 27t-26 78q0 52 30.5 81.5t81.5 29.5q122 0 122 -166q0 -86 -29.5 -126t-96.5 -40q-39 0 -82 9zM180 79q-1 75 -42 75q-38 0 -38 -43q0 -20 10 -31.5t27 -11.5q15 0 43 11z" />
    <glyph glyph-name="Euro" unicode="&#x20ac;" 
d="M161.5 42.5q-55.5 53.5 -69.5 168.5h-63v74h58v86h-58v74h63q13 120 68 173t172 53q79 0 185 -23l-3 -76q-89 16 -168 16q-77 0 -112 -32.5t-46 -110.5h271v-74h-276l-1 -86h277v-74h-270q10 -75 45 -107t110 -32q80 0 170 16l3 -77q-105 -22 -189 -22
q-111 0 -166.5 53.5z" />
    <glyph glyph-name="trademark" unicode="&#x2122;" horiz-adv-x="672" 
d="M164 575h-76v59h200v-59h-59v-243h-65v243zM317 634h81l59 -192l63 192h79v-303h-61v209l-56 -192h-47l-57 192v-209h-61v303z" />
    <glyph glyph-name="uni2126" unicode="&#x2126;" 
d="M47 72h110q-40 58 -72 144t-32 163q0 104 22 167.5t71.5 94t133.5 30.5t133.5 -30.5t71.5 -94t22 -167.5q0 -77 -32.5 -162.5t-72.5 -144.5h111v-81h-201v70q36 67 66 151.5t30 141.5q0 90 -10.5 139.5t-37.5 71.5t-80 22t-80.5 -22t-37.5 -71t-10 -140q0 -57 30 -141.5
t66 -151.5v-70h-201v81z" />
    <glyph glyph-name="partialdiff" unicode="&#x2202;" 
d="M98.5 47.5q-58.5 56.5 -58.5 165.5q0 104 56 161.5t157 57.5q72 0 132 -20l21 -8q-3 88 -19 139.5t-49 75t-89 23.5q-30 0 -69 -9.5t-65 -21.5l-23 -10l-4 74q35 20 85.5 34t91.5 14q125 0 183 -87.5t58 -276.5q0 -190 -56.5 -279t-177.5 -89q-115 0 -173.5 56.5z
M372.5 133.5q33.5 61.5 33.5 190.5q-65 28 -139 28q-63 0 -95 -36.5t-32 -103.5q0 -68 32.5 -104t97.5 -36q69 0 102.5 61.5z" />
    <glyph glyph-name="uni2206" unicode="&#x2206;" 
d="M50 72l148 588h163l148 -590v-70h-459v72zM414 81l-121 499h-27l-121 -499h269z" />
    <glyph glyph-name="product" unicode="&#x220f;" 
d="M95 672h-65v84h500v-84h-67v-840h-96v840h-177v-840h-95v840z" />
    <glyph glyph-name="summation" unicode="&#x2211;" 
d="M40 -55l258 360l-258 338v112h479v-84h-379v-20l244 -314v-67l-244 -332v-21h379v-85h-479v113z" />
    <glyph glyph-name="minus" unicode="&#x2212;" 
d="M65 293h430v-84h-430v84z" />
    <glyph glyph-name="radical" unicode="&#x221a;" 
d="M61 360h-58v84h136l117 -498h10l208 835h94l-233 -915h-150z" />
    <glyph glyph-name="infinity" unicode="&#x221e;" 
d="M29 292q0 84 32 127.5t95 43.5q42 0 71.5 -23.5t52.5 -73.5q23 50 52 73.5t72 23.5q63 0 95 -43.5t32 -127.5q0 -171 -129 -171q-42 0 -71 23t-51 73q-22 -53 -49.5 -74.5t-72.5 -21.5q-129 0 -129 171zM247 292q-21 54 -39 71.5t-39 17.5q-52 0 -52 -89t52 -89
q45 0 78 89zM443 292q0 89 -52 89q-22 0 -40 -19t-38 -70q21 -57 41 -73t37 -16q52 0 52 89z" />
    <glyph glyph-name="integral" unicode="&#x222b;" 
d="M140 -188q-27 3 -46 7l3 78q32 -4 69 -4q34 0 49 22.5t15 77.5v588q0 74 14 117.5t44.5 62.5t81.5 19q43 0 81 -7l15 -3l-3 -78q-32 4 -71 4q-36 0 -51.5 -26t-15.5 -90v-589q0 -96 -34 -139t-106 -43q-18 0 -45 3z" />
    <glyph glyph-name="approxequal" unicode="&#x2248;" 
d="M276 297q-77 28 -96 28t-42.5 -9t-46.5 -25l-17 -11l-12 76q29 24 61 38.5t59 14.5q30 0 105 -28q74 -28 94 -28q34 0 89 33l17 11l9 -75q-12 -12 -40 -29q-42 -25 -75 -25q-26 0 -105 29zM276 101q-77 28 -96 28t-42.5 -9t-46.5 -25l-17 -10l-12 75q29 24 61 38.5
t59 14.5q29 0 105 -27q73 -29 94 -29q35 0 89 34l17 10l9 -75q-14 -14 -40 -28q-40 -25 -75 -25q-28 0 -105 28z" />
    <glyph glyph-name="notequal" unicode="&#x2260;" 
d="M124 -7l53 120h-115v85h152l47 107h-199v85h236l68 154l74 -29l-56 -125h114v-85h-151l-46 -107h197v-85h-234l-65 -150z" />
    <glyph glyph-name="lessequal" unicode="&#x2264;" 
d="M65 281v83l423 139v-92l-316 -86l316 -92v-93zM65 105h423v-84h-423v84z" />
    <glyph glyph-name="greaterequal" unicode="&#x2265;" 
d="M71 233l316 92l-316 86v92l423 -139v-83l-423 -141v93zM71 21v84h423v-84h-423z" />
    <glyph glyph-name="lozenge" unicode="&#x25ca;" 
d="M45 324l149 336h175l148 -336l-148 -324h-175zM315 81l108 242l-108 256h-67l-110 -256l110 -242h67z" />
    <glyph glyph-name="uniF6BE" unicode="&#xf6be;" horiz-adv-x="231" 
d="M-44 -154q51 31 74 52t31.5 47t8.5 71v484h93v-485q0 -65 -14 -104.5t-49.5 -69.5t-106.5 -66z" />
    <glyph glyph-name="uniF6C3" unicode="&#xf6c3;" horiz-adv-x="0" 
d="M-113 -78h91l-51 -215h-83z" />
    <glyph glyph-name="grave.cap" horiz-adv-x="246" 
d="M10 853l30 82l228 -102l-27 -65z" />
    <glyph glyph-name="acute.cap" horiz-adv-x="246" 
d="M9 833l227 102l30 -82l-231 -85z" />
    <glyph glyph-name="circumflex.cap" horiz-adv-x="469" 
d="M179 922h81l134 -139h-102l-72 73l-73 -73h-102z" />
    <glyph glyph-name="caron.cap" horiz-adv-x="246" 
d="M-38 922h102l73 -72l72 72h102l-134 -139h-81z" />
    <glyph glyph-name="tilde.cap" horiz-adv-x="246" 
d="M140 815q-64 26 -76 26q-22 0 -62 -35l-14 -12l-20 69q20 24 48 42t51 18t86 -26t72 -26q20 0 60 34l13 11l21 -69q-20 -25 -45.5 -41.5t-48.5 -16.5q-22 0 -85 26z" />
    <glyph glyph-name="dieresis.cap" horiz-adv-x="246" 
d="M-28 897h90v-103h-90v103zM180 897h89v-103h-89v103z" />
    <glyph glyph-name="macron.cap" horiz-adv-x="246" 
d="M-23 873h322v-70h-322v70z" />
    <glyph glyph-name="breve.cap" horiz-adv-x="246" 
d="M25 815.5q-44 37.5 -49 100.5h85q2 -31 25 -50.5t57 -19.5q33 0 56 19.5t24 50.5h86q-5 -63 -49.5 -100.5t-117.5 -37.5t-117 37.5z" />
    <glyph glyph-name="ring.cap" horiz-adv-x="246" 
d="M44.5 681q-35.5 30 -35.5 82t36 82t92 30q57 0 92.5 -30t35.5 -82t-35.5 -82t-92.5 -30t-92.5 30zM181.5 726.5q16.5 13.5 16.5 36.5t-16.5 36t-44.5 13q-29 0 -45 -12.5t-16 -36.5q0 -23 16.5 -36.5t44.5 -13.5t44.5 13.5z" />
    <glyph glyph-name="hungarumlaut.cap" horiz-adv-x="246" 
d="M-35 782l119 152l73 -37l-124 -148zM166 782l118 151l74 -37l-125 -148z" />
    <glyph glyph-name="dotaccent.cap" horiz-adv-x="246" 
d="M77 892h92v-102h-92v102z" />
    <glyph glyph-name="zero.numr" horiz-adv-x="280" 
d="M19 368zM50.5 402.5q-31.5 34.5 -31.5 131.5q0 96 31.5 131t89.5 35t90 -35.5t32 -130.5q0 -97 -32 -131.5t-90 -34.5t-89.5 34.5zM171 457.5q11 20.5 11 76.5t-11 76.5t-31 20.5t-31 -20.5t-11 -76.5t11 -76.5t31 -20.5t31 20.5z" />
    <glyph glyph-name="one.numr" horiz-adv-x="280" 
d="M25 378zM122 605l-62 -42l-35 55l103 72h71v-312h-77v227z" />
    <glyph glyph-name="two.numr" horiz-adv-x="280" 
d="M27 378zM27 444l84 78q49 46 49 75q0 30 -45 30l-82 -8l-3 70q58 11 113 11q97 0 97 -90q0 -35 -13 -59.5t-46 -52.5l-55 -51h117v-69h-216v66z" />
    <glyph glyph-name="three.numr" horiz-adv-x="280" 
d="M27 368zM27 377l5 68q61 -8 100 -8q41 0 41 35q0 33 -40 33h-66v63h65q13 0 22.5 10t9.5 25q0 28 -39 28l-89 -7l-5 67q61 9 104 9q110 0 110 -85q0 -52 -36 -72q22 -9 32.5 -26t10.5 -50q0 -99 -110 -99z" />
    <glyph glyph-name="four.numr" horiz-adv-x="280" 
d="M21 378zM159 422h-138v65l60 203h84l-66 -199h60l8 90h68v-90h22v-69h-22v-44h-76v44z" />
    <glyph glyph-name="five.numr" horiz-adv-x="280" 
d="M34 370zM51 381l-17 3l6 62q55 -9 93 -9q42 0 42 38q0 37 -32 37q-23 0 -44 -12l-58 8l10 182h193v-67h-132l-5 -58q32 13 54 13q93 0 93 -99q0 -109 -110 -109q-44 0 -93 11z" />
    <glyph glyph-name="six.numr" horiz-adv-x="280" 
d="M25 368zM25 527q0 90 30 131.5t97 41.5q29 0 79 -8l16 -2l-5 -65q-50 7 -88 7q-51 0 -51 -59q39 11 53 11q102 0 102 -103q0 -52 -30.5 -82.5t-81.5 -30.5q-121 0 -121 159zM181 478q0 42 -32 42q-20 0 -32 -5t-14 -9q1 -70 40 -70q38 0 38 42z" />
    <glyph glyph-name="seven.numr" horiz-adv-x="280" 
d="M29 369zM54 384l99 212v19h-124v75h212v-84l-102 -237z" />
    <glyph glyph-name="eight.numr" horiz-adv-x="280" 
d="M19 368zM49 392q-30 24 -30 74q0 27 11.5 47t31.5 29q-38 18 -38 72q0 86 116 86t116 -86q0 -57 -38 -73q43 -15 43 -72q0 -52 -30 -76.5t-91 -24.5t-91 24zM152 567q28 12 28 38q0 32 -40 32t-40 -32q0 -25 28 -38h24zM182 469q0 30 -30 42h-24q-30 -12 -30 -43
q0 -37 42 -37t42 38z" />
    <glyph glyph-name="nine.numr" horiz-adv-x="280" 
d="M23 368zM49 377l-15 3l5 64q43 -7 83 -7q54 0 55 57q-40 -10 -53 -10q-49 0 -75 27t-26 78q0 52 30.5 81.5t81.5 29.5q122 0 122 -166q0 -86 -29.5 -126t-96.5 -40q-39 0 -82 9zM180 557q-1 75 -42 75q-38 0 -38 -43q0 -20 10 -31.5t27 -11.5q15 0 43 11z" />
    <glyph glyph-name="zero.dnom" horiz-adv-x="280" 
d="M19 0zM50.5 24.5q-31.5 34.5 -31.5 131.5q0 96 31.5 131t89.5 35t90 -35.5t32 -130.5q0 -97 -32 -131.5t-90 -34.5t-89.5 34.5zM171 79.5q11 20.5 11 76.5t-11 76.5t-31 20.5t-31 -20.5t-11 -76.5t11 -76.5t31 -20.5t31 20.5z" />
    <glyph glyph-name="one.dnom" horiz-adv-x="280" 
d="M25 0zM122 227l-62 -42l-35 55l103 72h71v-312h-77v227z" />
    <glyph glyph-name="two.dnom" horiz-adv-x="280" 
d="M27 0zM27 66l84 78q49 46 49 75q0 30 -45 30l-82 -8l-3 70q58 11 113 11q97 0 97 -90q0 -35 -13 -59.5t-46 -52.5l-55 -51h117v-69h-216v66z" />
    <glyph glyph-name="three.dnom" horiz-adv-x="280" 
d="M27 0zM27 -1l5 68q61 -8 100 -8q41 0 41 35q0 33 -40 33h-66v63h65q13 0 22.5 10t9.5 25q0 28 -39 28l-89 -7l-5 67q61 9 104 9q110 0 110 -85q0 -52 -36 -72q22 -9 32.5 -26t10.5 -50q0 -99 -110 -99z" />
    <glyph glyph-name="four.dnom" horiz-adv-x="280" 
d="M21 0zM159 44h-138v65l60 203h84l-66 -199h60l8 90h68v-90h22v-69h-22v-44h-76v44z" />
    <glyph glyph-name="five.dnom" horiz-adv-x="280" 
d="M34 0zM51 3l-17 3l6 62q55 -9 93 -9q42 0 42 38q0 37 -32 37q-23 0 -44 -12l-58 8l10 182h193v-67h-132l-5 -58q32 13 54 13q93 0 93 -99q0 -109 -110 -109q-44 0 -93 11z" />
    <glyph glyph-name="six.dnom" horiz-adv-x="280" 
d="M25 0zM25 149q0 90 30 131.5t97 41.5q29 0 79 -8l16 -2l-5 -65q-50 7 -88 7q-51 0 -51 -59q39 11 53 11q102 0 102 -103q0 -52 -30.5 -82.5t-81.5 -30.5q-121 0 -121 159zM181 100q0 42 -32 42q-20 0 -32 -5t-14 -9q1 -70 40 -70q38 0 38 42z" />
    <glyph glyph-name="seven.dnom" horiz-adv-x="280" 
d="M29 0zM54 6l99 212v19h-124v75h212v-84l-102 -237z" />
    <glyph glyph-name="eight.dnom" horiz-adv-x="280" 
d="M19 0zM49 14q-30 24 -30 74q0 27 11.5 47t31.5 29q-38 18 -38 72q0 86 116 86t116 -86q0 -57 -38 -73q43 -15 43 -72q0 -52 -30 -76.5t-91 -24.5t-91 24zM152 189q28 12 28 38q0 32 -40 32t-40 -32q0 -25 28 -38h24zM182 91q0 30 -30 42h-24q-30 -12 -30 -43
q0 -37 42 -37t42 38z" />
    <glyph glyph-name="nine.dnom" horiz-adv-x="280" 
d="M23 0zM49 -1l-15 3l5 64q43 -7 83 -7q54 0 55 57q-40 -10 -53 -10q-49 0 -75 27t-26 78q0 52 30.5 81.5t81.5 29.5q122 0 122 -166q0 -86 -29.5 -126t-96.5 -40q-39 0 -82 9zM180 179q-1 75 -42 75q-38 0 -38 -43q0 -20 10 -31.5t27 -11.5q15 0 43 11z" />
    <glyph glyph-name="uni0621" unicode="&#x621;" horiz-adv-x="536" 
d="M496 91l-431 -91l-17 68l99 25q-34 33 -50.5 73.5t-16.5 83.5q0 53 25 100t70.5 76t105.5 29q39 0 75.5 -11t63.5 -25l-16 -73q-42 21 -87 21q-41 0 -73 -20t-49 -52t-17 -68q0 -32 13.5 -61t40.5 -51l243 62z" />
    <glyph glyph-name="uni0627" unicode="&#x627;" horiz-adv-x="272" 
d="M87 712h95v-712h-95v712z" />
    <glyph glyph-name="uni0627.short" horiz-adv-x="272" 
d="M87 626h95v-626h-95v626z" />
    <glyph glyph-name="uniFE8E.short" horiz-adv-x="277" 
d="M277 85v-85h-190v626h95v-541h95z" />
    <glyph glyph-name="uni0623" unicode="&#x623;" horiz-adv-x="272" 
d="M21 0zM87 626h95v-626h-95v626zM240 709l-209 -41l-10 36l48 13q-18 14 -27 33.5t-9 40.5q0 38 27 66t70 28q38 0 74 -24l-11 -45q-6 5 -18 10t-26 5q-25 0 -41 -16.5t-16 -39.5q0 -28 24 -46l112 30z" />
    <glyph glyph-name="uni0625" unicode="&#x625;" horiz-adv-x="272" 
d="M32 0zM87 712h95v-712h-95v712zM250 -233l-208 -41l-10 36l47 13q-35 31 -35 74q0 38 27 66t70 28q38 0 74 -24l-11 -45q-6 5 -18 9.5t-27 4.5q-25 0 -40.5 -16t-15.5 -39q0 -27 23 -46l112 30z" />
    <glyph glyph-name="uni0622" unicode="&#x622;" horiz-adv-x="272" 
d="M0 0zM87 626h95v-626h-95v626zM132 708q-18 8 -35 15t-24 7q-15 0 -47 -28l-12 -10l-16 54q17 19 37.5 32.5t40.5 13.5q18 0 69 -22q49 -21 56 -21q6 0 18 7.5t26 19.5l11 10l17 -55q-39 -44 -71 -44q-17 0 -70 21z" />
    <glyph glyph-name="uni0671" unicode="&#x671;" horiz-adv-x="272" 
d="M13 0zM87 626h95v-626h-95v626zM13 730h43q0 26 15 51t41.5 41.5t59.5 16.5q84 0 84 -109v-48h-243v48zM215 730q0 38 -13.5 53t-37.5 15q-31 0 -54 -19t-23 -49h128z" />
    <glyph glyph-name="uni066E" unicode="&#x66e;" horiz-adv-x="789" 
d="M712 500v-500h-391q-92 0 -150 15t-87.5 52.5t-29.5 104.5q0 42 9.5 103t21.5 116l75 -4l-9 -74q-12 -84 -12 -119q0 -58 38.5 -83.5t138.5 -25.5h301v415h95z" />
    <glyph glyph-name="uni0628" unicode="&#x628;" horiz-adv-x="789" 
d="M54 0zM712 500v-500h-391q-92 0 -150 15t-87.5 52.5t-29.5 104.5q0 42 9.5 103t21.5 116l75 -4l-9 -74q-12 -84 -12 -119q0 -58 38.5 -83.5t138.5 -25.5h301v415h95zM350 -80h91v-98h-91v98z" />
    <glyph glyph-name="uni067E" unicode="&#x67e;" horiz-adv-x="789" 
d="M54 0zM712 500v-500h-391q-92 0 -150 15t-87.5 52.5t-29.5 104.5q0 42 9.5 103t21.5 116l75 -4l-9 -74q-12 -84 -12 -119q0 -58 38.5 -83.5t138.5 -25.5h301v415h95zM285 -80h85v-95h-85v95zM419 -80h84v-95h-84v95zM353 -211h82v-91h-82v91z" />
    <glyph glyph-name="uni062A" unicode="&#x62a;" horiz-adv-x="789" 
d="M54 0zM712 500v-500h-391q-92 0 -150 15t-87.5 52.5t-29.5 104.5q0 42 9.5 103t21.5 116l75 -4l-9 -74q-12 -84 -12 -119q0 -58 38.5 -83.5t138.5 -25.5h301v415h95zM286 597h85v-97h-85v97zM420 597h84v-97h-84v97z" />
    <glyph glyph-name="uni062B" unicode="&#x62b;" horiz-adv-x="789" 
d="M54 0zM712 500v-500h-391q-92 0 -150 15t-87.5 52.5t-29.5 104.5q0 42 9.5 103t21.5 116l75 -4l-9 -74q-12 -84 -12 -119q0 -58 38.5 -83.5t138.5 -25.5h301v415h95zM353 722h82v-91h-82v91zM285 595h85v-95h-85v95zM419 595h84v-95h-84v95z" />
    <glyph glyph-name="uni0679" unicode="&#x679;" horiz-adv-x="789" 
d="M54 0zM712 500v-500h-391q-92 0 -150 15t-87.5 52.5t-29.5 104.5q0 42 9.5 103t21.5 116l75 -4l-9 -74q-12 -84 -12 -119q0 -58 38.5 -83.5t138.5 -25.5h301v415h95zM481.5 650q22.5 -21 22.5 -64v-86h-215v48h13v193h44v-128q15 28 34.5 43t47.5 15q31 0 53.5 -21z
M367.5 601.5q-21.5 -23.5 -21.5 -48.5v-5h115v38q0 17 -10.5 28t-30.5 11q-31 0 -52.5 -23.5z" />
    <glyph glyph-name="uni062C" unicode="&#x62c;" horiz-adv-x="565" 
d="M40 0zM136 -92q0 -67 38 -103.5t115 -36.5q30 0 80.5 5.5t105.5 15.5l11 -74q-51 -12 -110 -21.5t-106 -9.5q-112 0 -171 60t-59 170q0 101 52 152.5t155 51.5q50 0 94 -10.5t70 -24.5v248q0 96 -97 96q-45 0 -208 -16l-3 67q55 13 122 22.5t111 9.5q79 0 124 -38.5
t45 -130.5v-341h-94q-27 13 -67.5 23.5t-79.5 10.5q-128 0 -128 -126zM281 -68h84v-95h-84v95z" />
    <glyph glyph-name="uni0686" unicode="&#x686;" horiz-adv-x="586" 
d="M171 -195.5q38 -36.5 115 -36.5l13 -83q-11 -1 -32 -1q-112 0 -171 60t-59 170q0 101 52 152.5t155 51.5q44 0 86.5 -9.5t77.5 -25.5v248q0 96 -98 96q-44 0 -207 -16l-3 67q55 13 122 22.5t111 9.5q79 0 124 -38.5t45 -130.5v-341h-94q-27 13 -68 23.5t-79 10.5
q-128 0 -128 -126q0 -67 38 -103.5zM294 -179v103h88v-103h-88zM534 -76v-103h-88v103h88zM373 -211h82v-95h-82v95z" />
    <glyph glyph-name="uni062D" unicode="&#x62d;" horiz-adv-x="565" 
d="M136 -92q0 -67 38 -103.5t115 -36.5q30 0 80.5 5.5t105.5 15.5l11 -74q-51 -12 -110 -21.5t-106 -9.5q-112 0 -171 60t-59 170q0 101 52 152.5t155 51.5q50 0 94 -10.5t70 -24.5v248q0 96 -97 96q-45 0 -208 -16l-3 67q55 13 122 22.5t111 9.5q79 0 124 -38.5t45 -130.5
v-341h-94q-27 13 -67.5 23.5t-79.5 10.5q-128 0 -128 -126z" />
    <glyph glyph-name="uni062E" unicode="&#x62e;" horiz-adv-x="565" 
d="M40 0zM136 -92q0 -67 38 -103.5t115 -36.5q30 0 80.5 5.5t105.5 15.5l11 -74q-51 -12 -110 -21.5t-106 -9.5q-112 0 -171 60t-59 170q0 101 52 152.5t155 51.5q50 0 94 -10.5t70 -24.5v248q0 96 -97 96q-45 0 -208 -16l-3 67q55 13 122 22.5t111 9.5q79 0 124 -38.5
t45 -130.5v-341h-94q-27 13 -67.5 23.5t-79.5 10.5q-128 0 -128 -126zM240 691h91v-98h-91v98z" />
    <glyph glyph-name="uni062F" unicode="&#x62f;" horiz-adv-x="502" 
d="M329.5 487.5q58.5 -34.5 93.5 -110.5t35 -195v-182h-418v85h324v92q0 142 -55 200.5t-129 58.5h-87l-7 71q15 5 49 10t64 5q72 0 130.5 -34.5z" />
    <glyph glyph-name="uni0630" unicode="&#x630;" horiz-adv-x="502" 
d="M40 0zM329.5 487.5q58.5 -34.5 93.5 -110.5t35 -195v-182h-418v85h324v92q0 142 -55 200.5t-129 58.5h-87l-7 71q15 5 49 10t64 5q72 0 130.5 -34.5zM116 718h91v-98h-91v98z" />
    <glyph glyph-name="uni0688" unicode="&#x688;" horiz-adv-x="502" 
d="M40 0zM329.5 487.5q58.5 -34.5 93.5 -110.5t35 -195v-182h-418v85h324v92q0 142 -55 200.5t-129 58.5h-87l-7 71q15 5 49 10t64 5q72 0 130.5 -34.5zM247.5 770q22.5 -21 22.5 -64v-86h-215v48h13v193h44v-128q15 28 34.5 43t47.5 15q31 0 53.5 -21zM133.5 721.5
q-21.5 -23.5 -21.5 -48.5v-5h115v38q0 17 -10.5 28t-30.5 11q-31 0 -52.5 -23.5z" />
    <glyph glyph-name="uni0631" unicode="&#x631;" horiz-adv-x="347" 
d="M64 -246l-24 2v84q33 -3 54 -3q45 0 68 36t23 101v525h94v-505q0 -118 -41 -180.5t-124 -62.5q-23 0 -50 3z" />
    <glyph glyph-name="uni0632" unicode="&#x632;" horiz-adv-x="347" 
d="M40 0zM64 -246l-24 2v84q33 -3 54 -3q45 0 68 36t23 101v525h94v-505q0 -118 -41 -180.5t-124 -62.5q-23 0 -50 3zM186 691h91v-98h-91v98z" />
    <glyph glyph-name="uni0691" unicode="&#x691;" horiz-adv-x="347" 
d="M40 0zM64 -246l-24 2v84q33 -3 54 -3q45 0 68 36t23 101v525h94v-505q0 -118 -41 -180.5t-124 -62.5q-23 0 -50 3zM317.5 743q22.5 -21 22.5 -64v-86h-215v48h13v193h44v-128q15 28 34.5 43t47.5 15q31 0 53.5 -21zM203.5 694.5q-21.5 -23.5 -21.5 -48.5v-5h115v38
q0 17 -10.5 28t-30.5 11q-31 0 -52.5 -23.5z" />
    <glyph glyph-name="uni0698" unicode="&#x698;" horiz-adv-x="347" 
d="M40 0zM64 -246l-24 2v84q33 -3 54 -3q45 0 68 36t23 101v525h94v-505q0 -118 -41 -180.5t-124 -62.5q-23 0 -50 3zM189 815h82v-91h-82v91zM121 688h85v-95h-85v95zM255 688h84v-95h-84v95z" />
    <glyph glyph-name="uni0633" unicode="&#x633;" horiz-adv-x="1153" 
d="M1077 377.5q9 -65.5 9 -99.5v-278h-192q-61 0 -112 40q-37 -40 -96 -40h-113v-40q0 -61 -33.5 -108.5t-93.5 -73.5t-137 -26q-84 0 -145 30.5t-92.5 81t-31.5 108.5q0 64 41 303l91 -5q-39 -223 -39 -281q0 -41 21.5 -76t61 -55t90.5 -20q48 0 87.5 18.5t62 50.5t22.5 72
v471h95v-365h82q44 0 64.5 37t20.5 93v235h94v-234q0 -58 -13 -101q14 -12 34.5 -21t40.5 -9h96v193q0 70 -16 219l80 3q12 -57 21 -122.5z" />
    <glyph glyph-name="uni0634" unicode="&#x634;" horiz-adv-x="1153" 
d="M40 0zM1077 377.5q9 -65.5 9 -99.5v-278h-192q-61 0 -112 40q-37 -40 -96 -40h-113v-40q0 -61 -33.5 -108.5t-93.5 -73.5t-137 -26q-84 0 -145 30.5t-92.5 81t-31.5 108.5q0 64 41 303l91 -5q-39 -223 -39 -281q0 -41 21.5 -76t61 -55t90.5 -20q48 0 87.5 18.5t62 50.5
t22.5 72v471h95v-365h82q44 0 64.5 37t20.5 93v235h94v-234q0 -58 -13 -101q14 -12 34.5 -21t40.5 -9h96v193q0 70 -16 219l80 3q12 -57 21 -122.5zM745 815h82v-91h-82v91zM677 688h85v-95h-85v95zM811 688h84v-95h-84v95z" />
    <glyph glyph-name="uni0635" unicode="&#x635;" horiz-adv-x="1144" 
d="M1084 0h-511v-40q0 -61 -33.5 -108.5t-93.5 -73.5t-136 -26q-84 0 -145 30.5t-93 80.5t-32 107q0 66 41 305l91 -5q-14 -87 -26.5 -170t-12.5 -111q0 -41 22 -76t61.5 -55.5t89.5 -20.5q48 0 87.5 18.5t62 51t22.5 72.5v521h95v-160q45 56 81.5 91t85.5 57t113 22
q126 0 178.5 -77.5t52.5 -181.5v-251zM573 220v-135h416v150q0 81 -39 135.5t-112 54.5q-137 0 -265 -205z" />
    <glyph glyph-name="uni0636" unicode="&#x636;" horiz-adv-x="1144" 
d="M40 0zM1084 0h-511v-40q0 -61 -33.5 -108.5t-93.5 -73.5t-136 -26q-84 0 -145 30.5t-93 80.5t-32 107q0 66 41 305l91 -5q-14 -87 -26.5 -170t-12.5 -111q0 -41 22 -76t61.5 -55.5t89.5 -20.5q48 0 87.5 18.5t62 51t22.5 72.5v521h95v-160q45 56 81.5 91t85.5 57t113 22
q126 0 178.5 -77.5t52.5 -181.5v-251zM573 220v-135h416v150q0 81 -39 135.5t-112 54.5q-137 0 -265 -205zM744 691h91v-98h-91v98z" />
    <glyph glyph-name="uni0637" unicode="&#x637;" horiz-adv-x="739" 
d="M626.5 432.5q52.5 -77.5 52.5 -181.5v-251h-659v85h54v627h94v-372q45 56 81.5 91t85.5 57t113 22q126 0 178.5 -77.5zM168 220v-135h417v150q0 81 -39 135.5t-113 54.5q-137 0 -265 -205z" />
    <glyph glyph-name="uni0638" unicode="&#x638;" horiz-adv-x="739" 
d="M20 0zM626.5 432.5q52.5 -77.5 52.5 -181.5v-251h-659v85h54v627h94v-372q45 56 81.5 91t85.5 57t113 22q126 0 178.5 -77.5zM168 220v-135h417v150q0 81 -39 135.5t-113 54.5q-137 0 -265 -205zM323 691h91v-98h-91v98z" />
    <glyph glyph-name="uni0639" unicode="&#x639;" horiz-adv-x="519" 
d="M367.5 -227q48.5 5 101.5 15l11 -74q-48 -12 -106 -21t-104 -9q-112 0 -171 60t-59 171q0 64 24.5 114t83.5 73q-22 35 -33.5 78.5t-11.5 91.5q0 72 28 126.5t78 83.5t113 29q37 0 80 -9.5t78 -26.5l-4 -86q-21 12 -64 24t-80 12q-61 0 -97 -40t-36 -118q0 -91 53 -149
q51 -1 95 -11.5t69 -23.5v-83q-25 13 -69.5 23.5t-84.5 10.5q-61 0 -94 -31t-33 -95q0 -67 37.5 -103.5t116.5 -36.5q30 0 78.5 5z" />
    <glyph glyph-name="uni063A" unicode="&#x63a;" horiz-adv-x="519" 
d="M40 0zM367.5 -227q48.5 5 101.5 15l11 -74q-48 -12 -106 -21t-104 -9q-112 0 -171 60t-59 171q0 64 24.5 114t83.5 73q-22 35 -33.5 78.5t-11.5 91.5q0 72 28 126.5t78 83.5t113 29q37 0 80 -9.5t78 -26.5l-4 -86q-21 12 -64 24t-80 12q-61 0 -97 -40t-36 -118
q0 -91 53 -149q51 -1 95 -11.5t69 -23.5v-83q-25 13 -69.5 23.5t-84.5 10.5q-61 0 -94 -31t-33 -95q0 -67 37.5 -103.5t116.5 -36.5q30 0 78.5 5zM257 691h91v-98h-91v98z" />
    <glyph glyph-name="uni0641" unicode="&#x641;" horiz-adv-x="975" 
d="M40 0zM918 488v-488h-611q-93 0 -150.5 15t-87 52.5t-29.5 105.5q0 42 9.5 104t22.5 114l75 -4l-8 -60q-14 -96 -14 -133q0 -58 38.5 -83.5t138.5 -25.5h216q-23 53 -23 160q0 99 23.5 153.5t76.5 77.5t146 23q79 0 141 -7zM598 140q9 -33 24 -55h201v327q-63 5 -88 5
q-60 0 -91 -17t-43 -55t-12 -107q0 -65 9 -98zM688 691h91v-98h-91v98z" />
    <glyph glyph-name="uni06A4" unicode="&#x6a4;" horiz-adv-x="975" 
d="M40 0zM918 488v-488h-611q-93 0 -150.5 15t-87 52.5t-29.5 105.5q0 42 9.5 104t22.5 114l75 -4l-8 -60q-14 -96 -14 -133q0 -58 38.5 -83.5t138.5 -25.5h216q-23 53 -23 160q0 99 23.5 153.5t76.5 77.5t146 23q79 0 141 -7zM598 140q9 -33 24 -55h201v327q-63 5 -88 5
q-60 0 -91 -17t-43 -55t-12 -107q0 -65 9 -98zM691 815h82v-91h-82v91zM623 688h85v-95h-85v95zM757 688h84v-95h-84v95z" />
    <glyph glyph-name="uni06A1" unicode="&#x6a1;" horiz-adv-x="975" 
d="M918 488v-488h-611q-93 0 -150.5 15t-87 52.5t-29.5 105.5q0 42 9.5 104t22.5 114l75 -4l-8 -60q-14 -96 -14 -133q0 -58 38.5 -83.5t138.5 -25.5h216q-23 53 -23 160q0 99 23.5 153.5t76.5 77.5t146 23q79 0 141 -7zM598 140q9 -33 24 -55h201v327q-63 5 -88 5
q-60 0 -91 -17t-43 -55t-12 -107q0 -65 9 -98z" />
    <glyph glyph-name="uni066F" unicode="&#x66f;" horiz-adv-x="872" 
d="M805 488v-525q0 -63 -28 -113t-83 -78.5t-132 -28.5h-281q-77 0 -131.5 28.5t-82 78.5t-27.5 114q0 83 38 292l89 -14l-7 -44q-10 -66 -18.5 -126.5t-8.5 -91.5q0 -70 36.5 -111t113.5 -41h276q77 0 114 41t37 110v21h-138q-72 0 -112.5 19t-59 69t-18.5 146
q0 100 21.5 157t73 83t142.5 26q33 0 77.5 -2.5t72.5 -5.5zM489 141.5q12 -32.5 38 -44.5t73 -12h110v326q-53 5 -84 5q-57 0 -89.5 -17.5t-46 -56t-13.5 -105.5q0 -63 12 -95.5z" />
    <glyph glyph-name="uni0642" unicode="&#x642;" horiz-adv-x="872" 
d="M40 0zM805 488v-525q0 -63 -28 -113t-83 -78.5t-132 -28.5h-281q-77 0 -131.5 28.5t-82 78.5t-27.5 114q0 83 38 292l89 -14l-7 -44q-10 -66 -18.5 -126.5t-8.5 -91.5q0 -70 36.5 -111t113.5 -41h276q77 0 114 41t37 110v21h-138q-72 0 -112.5 19t-59 69t-18.5 146
q0 100 21.5 157t73 83t142.5 26q33 0 77.5 -2.5t72.5 -5.5zM489 141.5q12 -32.5 38 -44.5t73 -12h110v326q-53 5 -84 5q-57 0 -89.5 -17.5t-46 -56t-13.5 -105.5q0 -63 12 -95.5zM524 690h85v-97h-85v97zM658 690h84v-97h-84v97z" />
    <glyph glyph-name="dotlesskafar" horiz-adv-x="774" 
d="M687 712v-712h-373q-92 0 -150 15t-87.5 52.5t-29.5 104.5q0 63 25 190l78 -4l-4 -32q-14 -94 -14 -132q0 -58 38.5 -83.5t138.5 -25.5h283v627h95z" />
    <glyph glyph-name="dotlesskafar.fina" horiz-adv-x="836" 
d="M836 85v-85h-522q-92 0 -150 15t-87.5 52.5t-29.5 104.5q0 63 25 190l78 -4l-4 -32q-14 -94 -14 -132q0 -58 38.5 -83.5t138.5 -25.5h283v627h95v-627h149z" />
    <glyph glyph-name="uni0643" unicode="&#x643;" horiz-adv-x="774" 
d="M47 0zM687 712v-712h-373q-92 0 -150 15t-87.5 52.5t-29.5 104.5q0 63 25 190l78 -4l-4 -32q-14 -94 -14 -132q0 -58 38.5 -83.5t138.5 -25.5h283v627h95zM467 392l-209 -41l-10 36l48 13q-18 14 -27 33.5t-9 40.5q0 38 27 66t70 28q38 0 74 -24l-11 -45q-6 5 -18 10
t-26 5q-25 0 -41 -16.5t-16 -39.5q0 -28 24 -46l112 30z" />
    <glyph glyph-name="uni06A9" unicode="&#x6a9;" horiz-adv-x="822" 
d="M730.5 381q40.5 -67 40.5 -158v-223h-464q-92 0 -150 15t-87.5 52.5t-29.5 104.5q0 63 25 190l78 -4q-2 -24 -8 -60q-1 -12 -5.5 -48t-4.5 -56q0 -58 38.5 -83.5t138.5 -25.5h375v139q0 56 -23 97t-70 42h-270l-57 76l55 107q19 37 54.5 86.5t70.5 91.5l68 -39
q-71 -106 -107 -175l-32 -62h229q95 0 135.5 -67z" />
    <glyph glyph-name="uni06AF" unicode="&#x6af;" horiz-adv-x="822" 
d="M40 0zM730.5 381q40.5 -67 40.5 -158v-223h-464q-92 0 -150 15t-87.5 52.5t-29.5 104.5q0 63 25 190l78 -4q-2 -24 -8 -60q-1 -12 -5.5 -48t-4.5 -56q0 -58 38.5 -83.5t138.5 -25.5h375v139q0 56 -23 97t-70 42h-270l-57 76l55 107q19 37 54.5 86.5t70.5 91.5l68 -39
q-71 -106 -107 -175l-32 -62h229q95 0 135.5 -67zM192 533l32 64q18 34 53 84.5t68 91.5l57 -32q-34 -40 -74.5 -97.5t-57.5 -91.5l-37 -74z" />
    <glyph glyph-name="uni0644" unicode="&#x644;" horiz-adv-x="660" 
d="M173 -219.5q-62 28.5 -97.5 78.5t-35.5 112q0 69 39 303l90 -5q-15 -95 -25.5 -178.5t-10.5 -111.5q0 -40 23 -72.5t63.5 -51t89.5 -18.5q72 0 120.5 38.5t48.5 103.5v733h95v-744q0 -66 -34.5 -115t-94 -75t-132.5 -26q-77 0 -139 28.5z" />
    <glyph glyph-name="uni0645" unicode="&#x645;" horiz-adv-x="618" 
d="M504.5 449q56.5 -61 56.5 -199v-250h-323q-111 0 -111 -137q0 -65 27 -188l-80 -2q-33 145 -33 228q0 133 88 171q-17 87 -17 174q0 63 9 127.5t20 107.5q26 11 74.5 20t102.5 9q130 0 186.5 -61zM466 85v167q0 92 -38.5 132.5t-122.5 40.5q-43 0 -84 -9
q-15 -92 -15 -170q0 -45 4.5 -89.5t9.5 -71.5h246z" />
    <glyph glyph-name="uni0646" unicode="&#x646;" horiz-adv-x="631" 
d="M40 0zM173 -219.5q-62 28.5 -97.5 78.5t-35.5 112q0 69 39 303l90 -5q-15 -95 -25.5 -178.5t-10.5 -111.5q0 -40 23 -72.5t63.5 -51t89.5 -18.5q72 0 120.5 38.5t48.5 103.5v521h95v-532q0 -66 -34.5 -115t-94 -75t-132.5 -26q-77 0 -139 28.5zM269 598h91v-98h-91v98z
" />
    <glyph glyph-name="uni06BA" unicode="&#x6ba;" horiz-adv-x="631" 
d="M173 -219.5q-62 28.5 -97.5 78.5t-35.5 112q0 69 39 303l90 -5q-15 -95 -25.5 -178.5t-10.5 -111.5q0 -40 23 -72.5t63.5 -51t89.5 -18.5q72 0 120.5 38.5t48.5 103.5v521h95v-532q0 -66 -34.5 -115t-94 -75t-132.5 -26q-77 0 -139 28.5z" />
    <glyph glyph-name="uni0647" unicode="&#x647;" horiz-adv-x="571" 
d="M402 506q77 -4 112 -8v-498h-228q-92 0 -145 24t-77 79t-24 152q0 95 23 150.5t75 80t143 24.5q44 0 121 -4zM150.5 154q15.5 -37 50.5 -53t96 -16h123v333q-80 6 -127 6q-59 0 -93.5 -16.5t-49.5 -53t-15 -98.5q0 -65 15.5 -102z" />
    <glyph glyph-name="uni06C1" unicode="&#x6c1;" horiz-adv-x="571" 
d="M40 0zM402 506q77 -4 112 -8v-498h-228q-92 0 -145 24t-77 79t-24 152q0 95 23 150.5t75 80t143 24.5q44 0 121 -4zM150.5 154q15.5 -37 50.5 -53t96 -16h123v333q-80 6 -127 6q-59 0 -93.5 -16.5t-49.5 -53t-15 -98.5q0 -65 15.5 -102z" />
    <glyph glyph-name="uni06C2" unicode="&#x6c2;" horiz-adv-x="571" 
d="M40 0zM402 506q77 -4 112 -8v-498h-228q-92 0 -145 24t-77 79t-24 152q0 95 23 150.5t75 80t143 24.5q44 0 121 -4zM150.5 154q15.5 -37 50.5 -53t96 -16h123v333q-80 6 -127 6q-59 0 -93.5 -16.5t-49.5 -53t-15 -98.5q0 -65 15.5 -102zM399 644l-209 -41l-10 36l48 13
q-18 14 -27 33.5t-9 40.5q0 38 27 66t70 28q38 0 74 -24l-11 -45q-6 5 -18 10t-26 5q-25 0 -41 -16.5t-16 -39.5q0 -28 24 -46l112 30z" />
    <glyph glyph-name="uni06BE" unicode="&#x6be;" horiz-adv-x="752" 
d="M534.5 518q74.5 -36 117.5 -113t43 -194v-211h-655v85h53v62q0 50 25 93.5t68.5 69.5t95.5 26t95 -25.5t68 -69t25 -94.5v-62h131v125q0 144 -74.5 201.5t-181.5 57.5q-44 0 -97 -7.5t-122 -19.5l-6 74q138 38 244 38q96 0 170.5 -36zM215 222q-27 -28 -27 -69v-68h187
v69q0 40 -27 68t-66 28q-40 0 -67 -28z" />
    </font>
</defs>
</svg>
