<svg xmlns="http://www.w3.org/2000/svg" height="681.333" viewBox="0 -10 511.991 511" width="681.333"  xmlns:v="https://vecta.io/nano"><path d="M510.652 185.883c-3.371-10.367-12.566-17.707-23.402-18.687l-147.797-13.418-58.41-136.75C276.73 6.98 266.918.496 255.996.496s-20.738 6.484-25.023 16.531l-58.41 136.75-147.82 13.418c-10.836 1-20.012 8.34-23.402 18.688-3.371 10.367-.258 21.738 7.938 28.926L121 312.773 88.059 457.859c-2.41 10.668 1.73 21.699 10.582 28.098 4.758 3.457 10.348 5.184 15.957 5.184a27.14 27.14 0 0 0 13.953-3.859l127.445-76.203 127.422 76.203c9.348 5.586 21.102 5.074 29.934-1.324 8.852-6.398 12.992-17.43 10.582-28.098l-32.941-145.086 111.723-97.965c8.191-7.187 11.309-18.535 7.938-28.926zM258.449 409.605"/></svg>