<?xml version="1.0" encoding="UTF-8" standalone="no"?>
<svg
   xmlns:dc="http://purl.org/dc/elements/1.1/"
   xmlns:cc="http://creativecommons.org/ns#"
   xmlns:rdf="http://www.w3.org/1999/02/22-rdf-syntax-ns#"
   xmlns:svg="http://www.w3.org/2000/svg"
   xmlns="http://www.w3.org/2000/svg"
   xmlns:sodipodi="http://sodipodi.sourceforge.net/DTD/sodipodi-0.dtd"
   xmlns:inkscape="http://www.inkscape.org/namespaces/inkscape"
   width="354.850px"
   height="323px"
   viewBox="0 0 134.23242 122.18295"
   version="1.1"
   id="svg631"
   inkscape:version="1.0.2-2 (e86c870879, 2021-01-15)"
   sodipodi:docname="line.svg">
  <defs
     id="defs625" />
  <sodipodi:namedview
     id="base"
     pagecolor="#ffffff"
     bordercolor="#666666"
     borderopacity="1.0"
     inkscape:pageopacity="0.0"
     inkscape:pageshadow="2"
     inkscape:zoom="0.35"
     inkscape:cx="1022.2378"
     inkscape:cy="185.18358"
     inkscape:document-units="mm"
     inkscape:current-layer="layer1"
     inkscape:document-rotation="0"
     showgrid="false"
     inkscape:window-width="1862"
     inkscape:window-height="1030"
     inkscape:window-x="40"
     inkscape:window-y="0"
     inkscape:window-maximized="0" />
  <metadata
     id="metadata628">
    <rdf:RDF>
      <cc:Work
         rdf:about="">
        <dc:format>image/svg+xml</dc:format>
        <dc:type
           rdf:resource="http://purl.org/dc/dcmitype/StillImage" />
        <dc:title></dc:title>
      </cc:Work>
    </rdf:RDF>
  </metadata>
  <g
     inkscape:label="Шар 1"
     inkscape:groupmode="layer"
     id="layer1"
     transform="translate(164.63376,-99.170178)">
    <path
       style="fill:#000000;fill-opacity:1;fill-rule:nonzero;stroke:none;stroke-width:0.264583"
       id="path612"
       d="m -146.63038,218.96289 c -0.0248,-1.04222 -0.0174,-2.08496 -0.0104,-3.12737 0.0313,-0.59213 -0.0615,-1.19798 0.0461,-1.78553 0.0225,-0.12286 0.1515,-0.55277 0.18804,-0.67767 0.2541,-0.5564 0.5355,-1.09954 0.8596,-1.61833 0.43508,-0.62393 0.66862,-1.33934 0.94198,-2.03889 0.36361,-0.62122 0.6378,-1.28776 0.9713,-1.92436 0.24352,-0.62188 0.47167,-1.24609 0.71951,-1.86809 0.2345,-0.70606 0.50712,-1.39955 0.66766,-2.12745 0.15963,-0.68825 0.37704,-1.36047 0.51711,-2.0537 0.10635,-0.70573 0.11851,-1.42107 0.12496,-2.13339 0.005,-0.64958 0.005,-1.29918 0.005,-1.94878 0.003,-0.60916 -0.002,-1.2182 -0.0102,-1.82729 -0.0129,-1.06459 -0.0118,-2.12934 -0.005,-3.19398 -0.0244,-0.84349 0.0596,-1.69394 -0.033,-2.53367 -0.0514,-0.69901 -0.24099,-1.3629 -0.42276,-2.03531 -0.19971,-0.93299 -0.49525,-1.8417 -0.77436,-2.7531 -0.23876,-0.87385 -0.40345,-1.76447 -0.63991,-2.63917 -0.28734,-1.04465 -0.41615,-2.12204 -0.56307,-3.19285 -0.26275,-1.1225 -0.56495,-2.23502 -0.78099,-3.36784 -0.2012,-0.97048 -0.46859,-1.91985 -0.7478,-2.87028 -0.22566,-0.96937 -0.59451,-1.89499 -0.91139,-2.83644 -0.34457,-0.75603 -0.59082,-1.54528 -0.86171,-2.32807 -0.26064,-0.99605 -0.65274,-1.94731 -0.96115,-2.92821 -0.3819,-0.9527 -0.76811,-1.90045 -1.09116,-2.87483 -0.30203,-0.80622 -0.64853,-1.59805 -1.08327,-2.34191 -0.35587,-0.68788 -0.68453,-1.39916 -0.91654,-2.13953 -0.34106,-0.76097 -0.71264,-1.50677 -1.17961,-2.1986 -0.54906,-0.71134 -1.04904,-1.45782 -1.57176,-2.18809 -0.76377,-0.90375 -1.42507,-1.88086 -1.95062,-2.9402 -0.40979,-0.98643 -0.93444,-1.91743 -1.39516,-2.87878 -0.38902,-0.9074 -0.7087,-1.8426 -1.10433,-2.74699 -0.34304,-0.73374 -0.62591,-1.49062 -0.90631,-2.2503 -0.37481,-1.1285 -0.72168,-2.26701 -1.06397,-3.40584 -0.25834,-1.04065 -0.66489,-2.03142 -0.95573,-3.06381 -0.30003,-1.17443 -0.3919,-2.3867 -0.52778,-3.58764 -0.14127,-1.28546 -0.17367,-2.57869 -0.19225,-3.87062 -0.005,-0.97443 -0.004,-1.94886 -0.006,-2.92331 -0.0516,-0.98627 0.0293,-1.94527 0.22014,-2.91117 0.32426,-1.34046 0.89082,-2.58788 1.49818,-3.81879 0.55614,-1.02187 1.12664,-2.04157 1.82553,-2.97385 0.66739,-0.94175 1.94658,-2.50004 -1.43771,1.67451 -0.10202,0.12584 0.21902,-0.23887 0.33329,-0.3537 0.26362,-0.26493 0.42368,-0.39772 0.70307,-0.64362 0.79371,-0.66262 1.69516,-1.18374 2.60305,-1.67203 1.15119,-0.58831 2.41512,-0.88927 3.67602,-1.13518 1.7146,-0.2967 3.46012,-0.30776 5.19497,-0.3221 1.53012,0.0165 3.06425,-0.055 4.59233,0.0418 1.18267,0.10153 2.31231,0.46326 3.42448,0.85567 1.03477,0.42058 1.95605,1.05294 2.82254,1.74792 1.05605,0.84501 1.82497,1.96196 2.59416,3.0577 0.83711,1.10515 1.57428,2.26174 2.12193,3.53533 0.46019,1.20496 0.86468,2.42577 1.45712,3.5745 0.63129,1.2298 1.4058,2.38365 2.30464,3.43226 1.116,1.06016 2.23258,2.13132 3.50839,2.998 1.79844,1.03347 3.78124,1.70495 5.72345,2.41671 1.33208,0.52145 2.69079,0.89109 4.11129,1.04397 1.2952,0.0992 2.59789,0.0829 3.89635,0.0774 1.22506,0.001 2.41651,-0.29397 3.57041,-0.68081 1.17825,-0.45765 2.27768,-1.06929 3.33431,-1.75664 0.85858,-0.5576 1.62477,-1.2379 2.38984,-1.9141 0.93517,-0.78691 1.82482,-1.61599 2.65819,-2.51059 1.21664,-1.33828 2.34085,-2.76026 3.50576,-4.1416 0.58045,-0.6883 -1.15365,1.38269 -1.72678,2.07709 -0.10297,0.12475 0.20924,-0.24678 0.31624,-0.3681 0.1099,-0.12459 0.22294,-0.24639 0.33441,-0.36958 1.57151,-1.69465 3.04956,-3.4645 4.53679,-5.23452 -0.53153,0.63428 -1.06761,1.26478 -1.59459,1.90284 -0.17984,0.21776 0.36269,-0.43325 0.55311,-0.64182 0.20383,-0.22325 0.41757,-0.43725 0.62917,-0.65314 0.60492,-0.61717 1.23427,-1.20735 1.85752,-1.80571 1.10275,-1.14758 2.291,-2.19569 3.59289,-3.11056 1.08674,-0.67372 2.09921,-1.46046 3.1929,-2.12195 1.04986,-0.56422 2.15277,-1.0118 3.25005,-1.47191 0.97175,-0.45349 2.02416,-0.60587 3.08126,-0.69591 0.99945,-0.0647 2.0017,-0.0649 3.00281,-0.0667 1.12923,0.01 2.22827,0.33033 3.26626,0.75404 0.82659,0.3958 1.68793,0.71498 2.47775,1.18283 0.88004,0.50483 1.74745,1.03081 2.61663,1.55578 1.07974,0.66399 2.12262,1.38326 3.20175,2.04842 0.93693,0.53375 1.9014,1.01787 2.90603,1.40998 0.67869,0.29918 1.41248,0.36674 2.13508,0.48105 0.73127,0.13524 1.47193,0.19851 2.21362,0.23766 0.90783,0.0808 1.79216,-0.0484 2.67168,-0.26199 1.21038,-0.35986 2.3101,-1.02046 3.3935,-1.65559 0.9566,-0.55888 1.79486,-1.27993 2.59596,-2.03798 1.73086,-1.80264 3.32196,-3.75238 4.83544,-5.74248 0.62282,-0.71984 1.10096,-1.52252 1.54767,-2.35634 0.44524,-0.93053 1.08874,-1.74246 1.63649,-2.61308 0.2218,-0.38589 0.49038,-0.73234 0.77566,-1.07115 0.0842,-0.10004 0.3331,-0.40341 0.24896,-0.30326 -2.23896,2.6651 -2.48871,2.95323 -1.6355,1.96036 0.42787,-0.47898 0.88612,-0.93231 1.35629,-1.36992 0.64281,-0.63859 1.47464,-1.03732 2.26946,-1.4512 0.89636,-0.44796 1.80045,-0.88551 2.73176,-1.25662 0.34117,-0.14141 0.69203,-0.25432 1.04526,-0.36057 0,0 1.90675,-2.784052 1.90675,-2.784052 v 0 c -0.36418,0.09866 -0.72645,0.203433 -1.07519,0.3497 -0.95346,0.359516 -1.86181,0.829572 -2.78089,1.267272 -0.79613,0.40305 -1.63152,0.77744 -2.32458,1.34652 -0.44853,0.47124 -0.95455,0.88847 -1.38855,1.37514 -1.27988,1.44475 -2.59384,2.88638 -3.62453,4.52429 -0.56475,0.87135 -1.18407,1.71054 -1.63794,2.64848 -0.4374,0.81309 -0.96585,1.56099 -1.54436,2.28081 -0.5463,0.70457 -0.27507,0.36278 -0.87304,1.09869 -0.16545,0.20362 -0.66784,0.80944 -0.49658,0.61067 3.1897,-3.70223 1.54333,-1.79278 0.78004,-0.99422 -0.80362,0.75371 -1.60253,1.5201 -2.54894,2.09849 -1.04874,0.63932 -2.12698,1.27103 -3.29094,1.67356 -0.84548,0.23225 -1.69833,0.39777 -2.57981,0.30661 -0.72892,-0.0295 -1.45886,-0.0788 -2.17614,-0.21934 -0.70111,-0.12669 -1.42615,-0.14033 -2.09281,-0.42576 -0.99189,-0.37683 -1.96692,-0.79903 -2.88148,-1.3419 -1.07915,-0.66462 -2.1331,-1.36656 -3.19145,-2.06348 -0.86455,-0.53232 -1.74288,-1.04247 -2.60279,-1.57993 -0.80723,-0.47707 -1.69168,-0.77909 -2.5331,-1.18896 -1.07091,-0.4529 -2.20823,-0.77793 -3.3761,-0.82563 -1.00424,-0.005 -2.01058,-0.0344 -3.01338,0.0316 -1.08117,0.093 -2.17701,0.20351 -3.17955,0.64991 -1.09592,0.4816 -2.21584,0.90639 -3.28309,1.45308 -1.1443,0.61797 -2.13187,1.47964 -3.24448,2.15207 -1.3229,0.8861 -2.54191,1.90583 -3.63216,3.06896 -2.005,1.9623 -4.03655,3.86853 -5.67339,6.17965 3.65282,-4.33438 0.61028,-0.75206 -0.29366,0.19773 -1.11538,1.14949 -2.17279,2.52907 -3.16283,3.69812 -0.55998,0.66123 1.11501,-1.32664 1.67637,-1.9867 0.3186,-0.37461 -1.26803,1.53833 -0.96364,1.11714 -0.5578,0.61961 -1.13264,1.25093 -1.76891,1.7925 -0.14073,0.11978 -0.29895,0.21786 -0.44033,0.33688 -0.141,0.11872 -0.27058,0.25038 -0.40588,0.37556 -0.75726,0.68014 -1.51813,1.35859 -2.35031,1.94649 -1.04984,0.6804 -2.10085,1.34878 -3.27366,1.80783 -1.11416,0.41369 -2.29383,0.70933 -3.48485,0.75374 -1.28753,-4e-5 -2.57637,0.0203 -3.86197,-0.0677 -1.40512,-0.12704 -2.76666,-0.44789 -4.09225,-0.93825 -1.92895,-0.65496 -3.87759,-1.34873 -5.62972,-2.4003 -1.25444,-0.84152 -2.34968,-1.89672 -3.4404,-2.93648 -0.86356,-1.04774 -1.62841,-2.18472 -2.22459,-3.40697 -0.56715,-1.14624 -1.002,-2.34584 -1.46263,-3.53747 -0.24907,-0.58342 -0.31033,-0.77634 -0.61926,-1.31604 -0.45479,-0.79452 -1.04734,-1.50329 -1.54714,-2.26821 -0.76964,-1.13501 -1.59573,-2.24401 -2.65167,-3.13276 -0.88168,-0.7415 -1.84442,-1.37705 -2.91378,-1.81889 -1.13892,-0.40457 -2.28534,-0.79587 -3.49713,-0.91674 -1.54593,-0.0738 -3.09665,0.001 -4.64381,-0.01 -1.74055,0.0322 -3.49572,0.002 -5.22079,0.2602 -1.27866,0.23303 -2.57148,0.4985 -3.74831,1.06882 -0.92382,0.46337 -1.83205,0.97485 -2.6533,1.6055 -1.49376,1.27121 -2.7855,2.76638 -3.89033,4.39106 -0.65347,0.94228 -1.20848,1.94972 -1.73362,2.96796 -0.60726,1.26229 -1.18302,2.55053 -1.48173,3.92636 -0.16939,0.97932 -0.21138,1.95874 -0.17489,2.95231 -0.004,0.97249 -0.007,1.9451 0.0219,2.91733 0.0344,1.29628 0.0784,2.5943 0.22161,3.88392 0.1348,1.21838 0.23034,2.44686 0.55725,3.63344 0.28432,1.03931 0.70501,2.03096 0.95348,3.08064 0.36254,1.13604 0.72552,2.27183 1.07875,3.41092 0.26836,0.77636 0.53886,1.54877 0.90635,2.28505 0.39879,0.90507 0.74781,1.83065 1.12547,2.74458 0.47649,0.9535 0.98424,1.89124 1.41077,2.8695 0.55541,1.06326 1.22363,2.04853 1.97709,2.98262 0.51281,0.73596 1.01086,1.48263 1.55052,2.19942 0.44482,0.67005 0.81184,1.38852 1.11443,2.13373 0.25788,0.75347 0.58044,1.49124 0.96729,2.18703 0.41513,0.72824 0.75388,1.50046 1.04024,2.2878 0.32201,0.97003 0.75084,1.89671 1.10615,2.85451 0.32449,0.98519 0.66932,1.96254 0.93515,2.96583 0.26743,0.78085 0.5635,1.54819 0.87025,2.31445 0.31022,0.93516 0.70753,1.84191 0.91729,2.80866 0.26302,0.9466 0.50345,1.89808 0.72512,2.85515 0.23575,1.12113 0.53564,2.22668 0.77142,3.34743 0.1451,1.08444 0.28249,2.17176 0.58555,3.22646 0.21887,0.88624 0.36384,1.79057 0.64174,2.66175 0.28993,0.90564 0.55922,1.81842 0.7579,2.74906 0.17203,0.65937 0.30976,1.32367 0.37387,2.00333 0.0557,0.82979 0.0119,1.66284 0.0302,2.49388 0.006,1.06824 0.007,2.13659 -0.005,3.20478 -0.008,0.61479 -0.0121,1.22951 -0.006,1.84435 0.003,0.64477 0.009,1.2896 2.7e-4,1.93435 -0.0166,0.69936 -0.0311,1.40348 -0.17574,2.09079 -0.15714,0.68785 -0.36266,1.36346 -0.52535,2.05011 -0.18482,0.70504 -0.43441,1.39259 -0.68632,2.07585 -0.25608,0.61899 -0.45881,1.25752 -0.75145,1.86021 -0.31504,0.64923 -0.63645,1.29551 -0.94507,1.94756 -0.26044,0.7019 -0.56868,1.37776 -0.99038,2.00038 -0.31302,0.53278 -0.59843,1.09463 -0.78742,1.68333 -0.1962,0.82745 -0.16865,1.66224 -0.15616,2.5086 0.007,1.04935 0.014,2.09901 -0.0104,3.14818 0,0 2.39067,-2.39066 2.39067,-2.39066 z" />
  </g>
</svg>
