<?xml version="1.0" encoding="UTF-8" standalone="no"?>
<svg
   xmlns:dc="http://purl.org/dc/elements/1.1/"
   xmlns:cc="http://creativecommons.org/ns#"
   xmlns:rdf="http://www.w3.org/1999/02/22-rdf-syntax-ns#"
   xmlns:svg="http://www.w3.org/2000/svg"
   xmlns="http://www.w3.org/2000/svg"
   xmlns:sodipodi="http://sodipodi.sourceforge.net/DTD/sodipodi-0.dtd"
   xmlns:inkscape="http://www.inkscape.org/namespaces/inkscape"
   width="99.675px"
   height="45px"
   viewBox="0 0 330.59308 90.36248"
   version="1.1"
   id="svg438"
   sodipodi:docname="logo.svg"
   inkscape:version="1.0.2-2 (e86c870879, 2021-01-15)">
  <defs
     id="defs432" />
  <sodipodi:namedview
     id="base"
     pagecolor="#ffffff"
     bordercolor="#666666"
     borderopacity="1.0"
     inkscape:pageopacity="0.0"
     inkscape:pageshadow="2"
     inkscape:zoom="0.35"
     inkscape:cx="392.60194"
     inkscape:cy="247.80846"
     inkscape:document-units="mm"
     inkscape:current-layer="layer1"
     inkscape:document-rotation="0"
     showgrid="false"
     inkscape:window-width="1862"
     inkscape:window-height="1030"
     inkscape:window-x="40"
     inkscape:window-y="0"
     inkscape:window-maximized="0" />
  <metadata
     id="metadata435">
    <rdf:RDF>
      <cc:Work
         rdf:about="">
        <dc:format>image/svg+xml</dc:format>
        <dc:type
           rdf:resource="http://purl.org/dc/dcmitype/StillImage" />
      </cc:Work>
    </rdf:RDF>
  </metadata>
  <g
     inkscape:label="Шар 1"
     inkscape:groupmode="layer"
     id="layer1"
     transform="translate(-1.957404,-82.600677)">
    <g
       id="g512"
       transform="matrix(1.651529,0,0,1,-1.2753053,0)">
      <path
         style="fill:#000000;fill-opacity:1;fill-rule:nonzero;stroke:none;stroke-width:0.264583"
         id="path440"
         d="m 12.453836,93.437368 c 0.199561,2.771145 0.739097,5.494726 1.151472,8.237822 0.220215,2.3837 1.139993,4.60775 2.304178,6.67301 1.817388,2.96699 4.394161,5.02762 7.344863,6.78805 3.570091,1.85197 7.62818,2.389 11.585616,2.75624 2.015347,0.0171 4.109117,0.0512 6.066266,-0.52395 1.245931,-0.36612 2.350212,-0.94235 3.524687,-1.48896 1.798963,-0.95738 3.659034,-1.84419 5.26075,-3.12584 3.432156,-2.74632 7.965307,-9.05823 9.816933,-11.3046 1.666952,-3.009957 1.906132,-6.487241 2.076916,-9.853323 0.04739,-1.58923 0.04926,-3.179154 0.06294,-4.768844 0.0034,-0.399238 0.08542,-1.396215 -0.107074,-1.861683 -0.06335,-0.15318 -0.220049,-0.247962 -0.330073,-0.371943 -2.304161,2.4448 -4.724276,4.785294 -6.912483,7.334401 -0.160369,0.186819 0.02849,0.496533 -0.01741,0.738425 -0.272126,1.434021 -0.977424,3.037211 -1.497941,4.399251 -1.220978,3.607116 -2.501101,7.194496 -3.718875,10.804486 -1.396206,4.35744 -3.088256,8.61895 -4.829312,12.84917 -2.41291,5.42359 -4.284636,11.05044 -6.273271,16.6341 -1.705957,4.33996 -3.050058,8.80893 -4.438137,13.25705 -1.126368,3.23748 -2.27171,6.44082 -3.879331,9.47504 -1.2768,2.69948 -3.063618,5.09378 -4.9924,7.35486 11.993172,-14.76269 5.34451,-4.95346 2.669374,-4.45594 -1.456939,0.27095 -2.216488,-0.0421 -3.659936,-0.33587 -2.94019,-1.07383 -5.773972,-2.48108 -8.525635,-3.9722 -1.98477,-1.1257 -3.926529,-2.38233 -5.3688652,-4.17221 -1.0569856,-1.63937 -1.1264919,-3.65562 -0.981116,-5.54662 0.1936303,-0.80531 0.2049049,-1.15431 0.643034,-1.85606 0.1481249,-0.23725 0.7073222,-0.86678 0.533027,-0.64803 -1.7922296,2.24933 -3.759818,4.36831 -5.3868878,6.73985 -0.2239391,0.3264 0.7116456,-0.35361 1.0885024,-0.47472 0.4419225,-0.14202 0.9048724,-0.20752 1.3573086,-0.31128 3.481647,-0.48591 7.018606,-0.50617 10.526156,-0.3848 4.202579,0.1918 8.256277,1.05798 12.151643,2.61608 3.500707,1.57485 6.787785,3.60762 9.794346,5.98997 1.751848,1.44833 3.343936,3.07409 4.940392,4.68816 1.019861,1.20676 2.384875,2.01864 3.548182,3.06557 0.787768,0.70895 1.472073,1.45403 2.203643,2.2193 1.41034,1.52877 0.705546,0.74215 2.1122,2.36183 0,0 6.237396,-7.19328 6.237396,-7.19328 v 0 c -1.419915,-1.66534 -0.704106,-0.86583 -2.143085,-2.4024 -1.814158,-1.89772 -3.77186,-3.6015 -5.701117,-5.37106 -1.629415,-1.63895 -3.2619,-3.28438 -5.079468,-4.71821 -3.129055,-2.36652 -6.550173,-4.3377 -10.09038,-6.0203 -0.715608,-0.31174 -1.417138,-0.65803 -2.146822,-0.93522 -3.272311,-1.24307 -6.792237,-1.52656 -10.238007,-1.92083 -3.541384,-0.1948 -7.105538,-0.1803 -10.638073,0.16534 -0.123296,0.0182 -2.5375278,0.33563 -2.7143827,0.50828 -3.7099087,3.62169 -7.2906798,5.90725 -7.8261737,10.65966 -5.53e-4,2.12514 0.1337437,4.3039 1.4824031,6.04921 1.5885382,1.8183 3.5879238,3.17632 5.680077,4.36309 2.8344603,1.53154 5.8187803,2.83818 8.8161943,4.01325 1.337359,0.34933 2.572971,0.7768 3.976475,0.75502 4.976021,-0.0772 5.934614,-10.42514 9.971836,-9.7699 1.862553,-2.31167 3.537233,-4.76616 4.800295,-7.46328 1.532171,-3.0877 2.646498,-6.3363 3.760621,-9.59416 1.317165,-4.38654 2.61874,-8.78321 4.282633,-13.05447 1.979533,-5.59138 3.936934,-11.19252 6.329193,-16.62605 1.749087,-4.29456 3.54751,-8.58162 4.922121,-13.0144 1.238099,-3.627991 2.463151,-7.26303 3.811764,-10.85101 0.558988,-1.526252 1.003822,-3.059377 1.46952,-4.612992 0.968783,-3.231946 5.221018,-5.668418 -6.415815,6.103183 -0.169373,-0.271878 -0.01344,-0.05054 0.01873,0.456965 0.122242,1.929378 -0.01524,3.87333 -0.05066,5.802307 -0.207595,3.278937 -0.556069,6.642077 -2.450669,9.434907 10.866467,-12.682771 4.379709,-4.74517 2.393165,-2.96131 -1.519211,1.36421 -3.351097,2.2435 -5.111835,3.23921 -0.301953,0.1409 -2.806951,1.32597 -3.296039,1.49988 -1.870144,0.66499 -3.895087,0.66624 -5.850318,0.73077 -3.851117,-0.25817 -7.792866,-0.65604 -11.280016,-2.44087 -2.796826,-1.66897 -5.193245,-3.71477 -6.883307,-6.54058 -1.051605,-2.03994 -1.791524,-4.190899 -2.040475,-6.484992 -0.470003,-2.706339 -1.049316,-5.410253 -0.997137,-8.173876 0,0 -6.842327,6.842326 -6.842326,6.842326 z" />
      <path
         style="fill:#000000;fill-opacity:1;fill-rule:nonzero;stroke:none;stroke-width:0.264583"
         id="path442"
         d="m 80.495478,97.301628 c 0.08571,3.475312 0.06223,6.952022 0.06339,10.428032 0.0081,3.01654 0.04069,6.0206 -0.284027,9.02124 -0.562211,3.45573 -1.511782,6.82609 -2.196992,10.25807 -0.520536,4.22052 -2.146501,8.14617 -3.528526,12.1308 -1.167095,4.3191 -2.698069,8.5226 -4.063941,12.77902 -0.755521,3.42175 -1.530387,6.84061 -2.235444,10.27332 -0.209989,1.4184 -0.631285,2.79048 -0.941914,4.18817 0,0 6.978206,-6.6762 6.978206,-6.6762 v 0 c 0.312666,-1.37463 0.649046,-2.74517 0.862248,-4.14014 0.677037,-3.39129 1.3604,-6.78683 2.236314,-10.13272 1.333465,-4.24317 2.803421,-8.44253 4.03639,-12.71747 1.405266,-4.01821 2.930345,-8.00516 3.483187,-12.25603 0.754991,-3.46877 1.703647,-6.90289 2.211723,-10.41894 0.249018,-3.00065 0.16215,-6.00416 0.146463,-9.01281 0.0011,-3.518282 -0.02119,-7.037203 0.06339,-10.554817 0,0 -6.830472,6.830475 -6.830472,6.830475 z" />
      <path
         style="fill:#000000;fill-opacity:1;fill-rule:nonzero;stroke:none;stroke-width:0.264583"
         id="path444"
         d="m 84.269312,102.50879 c -0.06224,4.04431 0.293341,8.05746 0.703929,12.07565 0.444421,3.98766 0.693745,7.99031 0.808043,11.99977 0.06678,3.0676 0.04067,6.13613 0.06274,9.20416 0.0186,3.61483 0.0077,7.22978 0.0035,10.84465 -0.114059,3.83271 0.121973,7.65211 0.368731,11.47398 0.369703,5.19205 -0.684934,4.78645 7.06837,-5.574 0.332235,-0.44395 0.124738,-1.10235 0.212032,-1.64994 0.228291,-1.43204 0.510257,-2.8551 0.745197,-4.28605 0.934394,-4.69123 2.014931,-9.34796 3.092648,-14.00725 1.204698,-5.13933 2.507964,-10.25644 4.088958,-15.29381 1.90741,-5.0191 4.23398,-9.86164 6.15943,-14.87471 1.51942,-4.742954 3.70499,-9.247699 5.9188,-13.699245 1.04878,-2.212409 2.38147,-4.229608 3.92208,-6.121318 0,0 -7.19269,6.301769 -7.19269,6.301769 v 0 c -1.41868,1.927194 -2.63888,3.973015 -3.6587,6.142186 -2.17774,4.468892 -4.30266,8.988478 -5.82851,13.728788 -1.955697,5.02565 -4.344376,9.87082 -6.147811,14.95461 -1.52065,5.05832 -2.779305,10.18997 -4.02826,15.3211 -1.129144,4.66892 -2.152899,9.36226 -3.080845,14.07525 -0.265713,1.46255 -0.555596,2.92077 -0.806625,4.38592 -0.100954,0.58922 -0.778946,2.09029 -0.272542,1.7726 7.78011,-4.88094 6.881061,-3.35705 6.465366,-7.92335 -0.269732,-3.81084 -0.402796,-7.61786 -0.31224,-11.43921 -5.29e-4,-3.62301 -0.004,-7.2461 0.02032,-10.86903 0.02225,-3.06946 0.0013,-6.13924 -0.105484,-9.20721 -0.157755,-3.99255 -0.457501,-7.97434 -0.952857,-11.94054 -0.394523,-4.07283 -0.630679,-8.143958 -0.411231,-12.237091 0,0 -6.842326,6.842321 -6.842326,6.842321 z" />
      <path
         style="fill:#000000;fill-opacity:1;fill-rule:nonzero;stroke:none;stroke-width:0.264583"
         id="path446"
         d="m 117.16614,138.79101 c -2.82827,-0.88743 -5.15196,-0.49128 -7.67645,0.97356 -3.51456,2.72664 -6.08627,6.52819 -8.78811,9.98812 -0.4432,0.56757 -1.044525,2.43676 -1.30795,3.16933 -0.514162,1.72479 -0.863335,3.53972 -0.643154,5.33699 0.420542,1.58709 1.232752,2.76702 2.627974,3.62105 2.4716,1.16309 5.13464,0.23349 7.54967,-0.60777 1.83168,-0.79308 3.57288,-1.82073 4.85206,-3.38474 6.83128,-8.35235 5.5158,-4.97594 7.06076,-9.41009 0.61227,-1.93349 0.4854,-3.83152 -0.21291,-5.70908 -2.78088,-3.95782 -8.19497,3.98665 -7.46527,8.056 0.57404,1.42422 0.95192,2.89627 1.16556,4.41371 0.0929,1.97632 0.35171,3.92926 0.58853,5.89266 0.0663,1.29905 0.29548,2.56183 0.55723,3.83211 0,0 6.69548,-6.96757 6.69548,-6.96757 v 0 c -0.24531,-1.2425 -0.40922,-2.4914 -0.53173,-3.75214 -0.24906,-1.9847 -0.37108,-3.97273 -0.57212,-5.96026 -0.26599,-1.48428 -0.74803,-2.90236 -1.06951,-4.3691 0.36393,-3.56939 4.80238,-4.94658 -5.83039,6.21832 -0.28458,0.29883 -0.35167,-0.59775 -0.32718,-0.56823 0.072,0.0868 0.11267,0.1954 0.16901,0.2931 0.57675,1.71814 0.43684,3.46519 -0.23027,5.14643 -1.74371,3.52359 -0.55142,0.90913 4.94074,-5.33075 0.28917,-0.32854 -0.50133,0.7199 -0.79082,1.04817 -1.0236,1.16068 -2.31164,1.94957 -3.67559,2.65214 -2.12885,0.82929 -4.49017,1.8439 -6.76296,0.97054 -1.15691,-0.63717 -1.74093,-1.6744 -1.9401,-2.97686 -0.0134,-1.70759 0.29914,-3.39757 0.89824,-4.9986 0.30666,-0.74804 0.501,-1.27417 0.88552,-1.99352 0.17778,-0.33261 0.83066,-1.25269 0.57817,-0.97254 -10.383133,11.52036 -5.98737,6.8233 -3.59531,4.43948 2.15265,-1.62792 4.23257,-2.303 6.88132,-1.42503 0,0 5.96956,-7.62543 5.96956,-7.62543 z" />
      <path
         style="fill:#000000;fill-opacity:1;fill-rule:nonzero;stroke:none;stroke-width:0.264583"
         id="path448"
         d="m 131.89431,112.33618 c 0.0947,3.5827 0.0699,7.16727 0.0847,10.75088 0.0356,3.68093 -0.0377,7.36157 -0.0418,11.04235 0.0414,2.63539 0.009,5.25051 -0.25853,7.87176 -0.29982,2.56141 -0.77614,5.09532 -1.0519,7.66342 -0.33843,2.83153 -1.12377,5.56781 -1.80953,8.32578 -0.51663,1.95685 -0.6385,3.96864 -0.68331,5.98143 -0.005,0.3375 -0.01,0.67501 -0.0146,1.01251 0,0 6.83051,-6.80332 6.83051,-6.80332 v 0 c 0.009,-0.33407 0.017,-0.66813 0.0255,-1.0022 0.0956,-1.95695 0.28689,-3.906 0.78836,-5.80736 0.67893,-2.78639 1.37951,-5.57469 1.73076,-8.42641 0.2857,-2.56169 0.78963,-5.09009 1.02735,-7.65679 0.23868,-2.63447 0.1955,-5.27187 0.17196,-7.91537 -0.004,-3.65292 -0.0778,-7.30569 -0.0418,-10.95876 0.0149,-3.64008 -0.009,-7.28103 0.0847,-10.92025 0,0 -6.84232,6.84233 -6.84232,6.84233 z" />
      <path
         style="fill:#000000;fill-opacity:1;fill-rule:nonzero;stroke:none;stroke-width:0.264583"
         id="path450"
         d="m 127.39351,134.7447 c 2.96325,0.18413 5.92058,0.30089 8.85757,0.75189 0,0 5.69149,-7.58441 5.69149,-7.58441 v 0 c -2.92424,-0.4617 -5.86924,-0.60659 -8.81102,-0.9165 0,0 -5.73804,7.74902 -5.73804,7.74902 z" />
      <path
         style="fill:#000000;fill-opacity:1;fill-rule:nonzero;stroke:none;stroke-width:0.264583"
         id="path452"
         d="m 156.98456,145.35105 c -1.18258,-2.16685 -2.63116,-4.08158 -4.73164,-5.40366 -1.93013,-1.03756 -3.9853,-0.64974 -5.94107,0.075 -1.29904,0.58182 -2.37097,1.50215 -3.27597,2.59003 -6.81806,8.19586 -5.0903,5.06511 -7.19619,9.06045 -0.97945,2.4017 -0.72578,3.84924 0.85429,5.86368 1.35725,1.5837 2.83031,2.97761 4.67609,3.96123 2.37317,0.76301 4.89197,1.14556 7.3809,0.978 1.47853,-0.23247 3.11992,-0.70192 4.15049,-1.88344 6.67584,-7.65373 5.2593,-5.153 7.43439,-9.26492 0.44487,-0.88735 0.62629,-1.86289 0.91979,-2.80178 0.15756,-0.50402 0.0402,-0.37736 0.32799,-0.57196 -2.32596,2.38313 -4.65193,4.76626 -6.97789,7.14939 -0.001,1.47558 0.20988,2.98026 0.62132,4.39793 0.54018,1.55513 0.56364,3.21358 0.92111,4.8032 0.0582,0.26236 0.11649,0.52471 0.17473,0.78707 0,0 6.69695,-6.98857 6.69695,-6.98857 v 0 c -0.0543,-0.25807 -0.10868,-0.51614 -0.16302,-0.77422 -0.27384,-1.62499 -0.46705,-3.26582 -0.95948,-4.84675 -0.32736,-1.44082 -0.44322,-2.90248 -0.48712,-4.37563 -10.33812,9.39063 -5.14116,3.25501 -8.22374,9.64538 -2.13007,3.22936 -1.00477,1.43716 4.7532,-5.33342 0.25524,-0.30013 -0.49194,0.62053 -0.78611,0.88261 -0.34601,0.30828 -1.36336,0.914 -1.80217,1.07718 -0.33504,0.1246 -0.69459,0.16929 -1.04189,0.25393 -2.28455,0.40371 -4.6789,-0.0591 -6.89608,-0.66368 -1.73306,-0.87856 -3.12253,-2.17026 -4.35808,-3.66364 -1.28117,-1.83808 -1.08315,-3.13394 -0.0463,-5.0803 2.06985,-3.19918 0.66533,-0.95098 -4.94426,5.62916 -0.23529,0.276 0.45834,-0.56226 0.69254,-0.83919 0.64968,-0.76821 1.33741,-1.46092 2.21013,-1.98146 1.6314,-0.78249 3.4484,-1.38439 5.19674,-0.59526 2.0394,1.16808 3.35496,3.03031 4.37551,5.12189 0,0 6.4448,-7.20824 6.4448,-7.20824 z" />
      <path
         style="fill:#000000;fill-opacity:1;fill-rule:nonzero;stroke:none;stroke-width:0.264583"
         id="path454"
         d="m 173.73113,103.1139 c -0.17209,0.51561 -0.32888,1.03658 -0.51628,1.54682 -0.076,0.20676 -1.67503,4.24708 -1.68656,4.27979 -0.95261,2.70065 -1.53856,5.49744 -2.18114,8.28203 -1.61293,6.39831 -2.46134,12.94218 -2.96291,19.51042 -0.36778,4.87027 -0.39827,9.75383 -0.41056,14.63484 -0.025,4.25884 0.0206,8.51757 0.0244,12.77638 -0.0125,2.6595 -0.004,1.37028 -0.0241,3.86765 0,0 6.71286,-6.71426 6.71286,-6.71426 v 0 c -0.0251,-2.45704 -0.0138,-1.18665 -0.0331,-3.81116 -0.009,-4.25795 0.01,-8.51595 -0.0221,-12.77386 0.008,-4.82598 0.0384,-9.65562 0.34783,-14.47354 0.51616,-6.54905 1.37413,-13.07107 3.08295,-19.42936 0.4436,-1.86181 0.87442,-3.80422 1.43798,-5.63559 0.906,-2.94414 2.20962,-5.742216 3.34261,-8.60079 0,0 -7.11195,6.54063 -7.11195,6.54063 z" />
      <path
         style="fill:#000000;fill-opacity:1;fill-rule:nonzero;stroke:none;stroke-width:0.264583"
         id="path456"
         d="m 175.7514,145.01112 c 0.094,3.14117 0.0265,6.28397 0.0294,9.42585 -0.007,2.18126 -0.0132,4.3625 -0.0104,6.54377 0,0 6.78079,-6.78079 6.78079,-6.78079 v 0 c 0.003,-2.17431 -0.004,-4.3486 -0.0104,-6.52291 0.003,-3.16145 -0.0641,-6.32376 0.0293,-9.48453 0,0 -6.81862,6.81861 -6.81862,6.81861 z" />
      <path
         style="fill:#000000;fill-opacity:1;fill-rule:nonzero;stroke:none;stroke-width:0.264583"
         id="path458"
         d="m 189.36043,156.3141 c 4.94906,-3.19559 9.22969,-7.67041 12.0036,-12.9066 0.76502,-1.80889 1.13491,-3.53545 0.2618,-5.35858 -1.01226,-1.43407 -2.60102,-1.8226 -4.24489,-2.03963 -1.58083,-0.1501 -3.14867,-0.26624 -4.6017,0.44996 -6.08528,6.71992 -6.99265,6.09235 -7.21084,12.50118 -0.028,2.02131 -0.0189,4.04288 -0.0134,6.0643 0.16864,1.77119 -0.16386,3.40861 -0.77343,5.05189 -0.4627,1.58789 -0.60535,3.23667 -0.69057,4.88052 -0.12433,1.79605 -0.1277,2.90116 1.51983,3.89167 1.30066,0.53847 2.71444,0.58599 4.1012,0.6274 0,0 5.70047,-7.80079 5.70047,-7.80079 v 0 c -1.2393,-0.0311 -2.50324,-0.0278 -3.70218,-0.3837 -1.17869,-0.56321 -0.74651,-2.05422 -0.73069,-3.13518 0.12338,-1.59584 0.32747,-3.1907 0.87127,-4.70616 0.51613,-1.71578 0.60811,-3.47735 0.5329,-5.26284 -0.0192,-2.00281 -0.0545,-4.00723 0.0322,-6.00896 0.0599,-0.95275 0.0986,-1.9262 0.35297,-2.85323 0.83644,-3.0488 6.80769,-7.93328 -5.14785,5.34557 0.13402,-0.1782 0.22893,-0.3941 0.40207,-0.5346 0.94924,-0.77024 2.48653,-0.29339 3.5783,-0.35326 1.26789,0.10987 2.68454,0.20685 3.44112,1.37468 0.48944,1.6221 -0.0474,3.2307 -0.82679,4.67952 -2.07039,3.21426 -0.93872,1.36475 4.70581,-5.27685 0.30876,-0.3633 -0.60873,0.7354 -0.94211,1.07625 -0.94277,0.96388 -1.2158,1.11935 -2.32377,1.86451 -0.34855,0.23442 -0.70502,0.45683 -1.05753,0.68524 0,0 -5.23783,8.12769 -5.23783,8.12769 z" />
    </g>
    <path
       style="fill:#000000;fill-opacity:1;fill-rule:nonzero;stroke:none;stroke-width:0.34002"
       id="path460"
       d="m 94.056865,163.76807 c 1.198882,0.98852 2.143508,2.07715 3.159993,3.13499 0,0 10.591012,-7.12325 10.591012,-7.12325 v 0 c -1.03987,-1.09532 -2.04486,-2.20377 -3.1656,-3.27003 0,0 -10.585405,7.25829 -10.585405,7.25829 z" />
  </g>
</svg>
